<svg xmlns="http://www.w3.org/2000/svg" width="207.47377mm" height="280.52652mm" viewBox="0 0 207.47377 280.52652">
    <path d="m 15247.824,8330.4727 c -90.543,14.2681 -223.878,14.1589 -237.453,136.8535 0,0 23.403,46.9861 67.576,46.3496 44.173,-0.6365 76.067,-35.9922 76.067,-35.9922 0,0 13.373,18.6326 55.103,19.3848 41.729,0.7523 76.707,-38.1921 88.281,-83.4434 11.574,-45.2513 -49.574,-83.1523 -49.574,-83.1523 z m -236.371,19.8613 c -7.227,0.012 -15.558,3.6676 -23.957,12.5664 -14.146,14.9873 -8.424,42.4746 -8.424,42.4746 0,0 -9.516,-1.9682 -23.34,29.916 -13.824,31.8842 18.325,35.3554 38,33.3301 18.068,-8.7957 39.479,-106.5894 30.67,-113.707 -3.578,-2.8915 -8.004,-4.5883 -12.949,-4.5801 z m 229.82,182.3555 c -28.558,0.079 -67.918,6.583 -80.136,18.7304 -15.641,15.5487 -19.459,40.916 -19.459,40.916 0,0 -1.547,2.5374 -23.643,-10.3925 -22.096,-12.9299 -68.289,-16.5302 -76.564,-10.3926 0,0 -25.733,28.6418 -18.004,64.1582 7.73,35.5164 54.377,118.0058 54.377,118.0058 0,0 -24.631,28.8533 -44.381,58.0684 -8.936,5.576 -17.453,12.0531 -24.447,19.4961 -29.916,31.8339 -33.826,75.2879 -47.739,107.3672 -13.913,32.0794 -60.834,54.1742 -102.117,71.4414 -41.283,17.2672 -81.383,50.4929 -74.017,71.9336 0,0 45.521,-31.1469 89.75,-10.8027 40.919,18.8221 74.654,33.8805 119.574,6.0566 44.92,-27.824 52.892,-4.0689 135.998,-26.7404 64.972,-17.7247 70.092,-65.3651 77.646,-92.8077 19.449,-8.7408 47.367,-23.8852 96.243,-95.1707 54.649,-79.7074 39.737,-233.0659 28.916,-278.4843 -10.821,-45.4185 -46.375,-45.3372 -71.381,-49.92 -5.471,-1.0024 -12.619,-1.4849 -20.616,-1.4628 z" transform="translate(-109.2505,168.21784) matrix(0.26458333,0,0,0.26458333,-2905.5959,-1715.0952) translate(-3313.5291,-2437.8203)" color="#000" overflow="visible" fill="#fff" paint-order="fill markers stroke"/>
    <path d="m 11531.13,6901.4383 c -0.996,-10.3056 8.816,-18.0546 45.07,-31.0323 30.657,-10.9755 35.267,-14.2516 37.454,-19.2438 2.805,-6.4021 27.696,-42.8693 50.233,-79.3873 10.792,-17.4843 25.689,-41.6934 33.107,-53.7982 13.877,-22.6452 72.463,-109.9052 106.384,-158.4487 10.531,-15.0726 19.752,-28.841 20.489,-30.5978 0.738,-1.7576 -0.937,-5.3172 -3.721,-7.9108 -2.784,-2.5929 -6.1,-6.5691 -7.368,-8.8365 -2.024,-3.6148 -3.248,-3.7283 -10.031,-0.9189 -8.957,3.7106 -33.939,1.1558 -52.202,-3.3069 l -6.921,-1.6911 c -44.711,67.3379 -83.644,95.4188 -133.291,141.3279 26.156,5.5184 52.989,-1.7151 71.42,-15.5602 16.507,-12.5668 18.307,-2.4609 2.296,12.8787 -17.295,16.5727 -45.818,21.0905 -76.626,15.2451 l -8.86,-1.681 c -40.603,34.6197 -70.873,64.7145 -112.417,98.1454 -14.038,11.2525 -20.006,16.6162 -20.407,27.4224 -0.234,6.2595 -6.971,20.7186 -10.995,33.4961 -10.527,33.4263 -12.271,39.2123 -7.675,48.1014 7.494,14.762 -8.925,17.3103 -16.025,8.5109 -7.735,-9.8342 -6.524,-24.6941 4.739,-58.1329 5.394,-16.0129 9.384,-29.5353 8.869,-30.0525 -0.516,-0.5158 -10.156,4.607 -21.423,11.3817 -21.196,12.7487 -25.19,14.1413 -27.916,9.7298 -2.452,-3.9671 1.817,-16.3448 23.324,-30.3771 53.454,-38.7637 107.73,-76.9716 157.343,-129.0866 -7.012,-7.5933 -3.308,-2.1121 -12.408,-6.7059 -59.261,-21.0878 -90.402,19.5843 -97.553,10.9996 -3.232,0 -1.167,-14.1553 1.013,-22.8434 7.396,-29.477 47.329,-51.221 71.176,-61.9831 57.77,-26.0728 71.466,-33.9265 90.333,-51.8124 12.94,-12.2643 14.859,-25.4864 28.243,-63.422 12.493,-40.9641 35.577,-73.8125 65.919,-101.0963 8.92,-7.8792 21.178,-14.738 21.178,-15.7539 0,-1.0165 -2.083,-2.5076 -4.628,-3.3161 -2.546,-0.8072 -5.98,-4.7317 -7.632,-8.7232 -2.364,-5.7075 -4.534,-7.255 -10.167,-7.255 -9.391,0 -19.873,-5.5737 -24.896,-13.2383 -8.454,-12.9028 -2.345,-37.4394 14.222,-57.128 l 6.296,-7.4848 -7.938,-19.5673 c -13.934,-34.3446 -4.038,-73.8669 14.856,-91.4832 5.414,-5.0472 10.992,-4.2643 28.172,-3.1256 10.549,0.7008 27.099,4.0111 37.507,7.5051 l 18.63,6.2542 14.863,-14.5403 c 24.158,-23.6322 47.069,-31.8711 94.34,-33.9284 26.537,-1.1557 33.148,-0.6235 50.131,4.0275 23.922,6.5515 36.256,13.5283 49.711,28.1256 5.666,6.1473 11.273,11.1763 12.46,11.1763 2.04,0 11.974,-14.1918 24.555,-35.0782 6.278,-10.4268 6.275,-10.4465 -8.518,-34.6161 -12.825,-20.952 -2.604,-25.754 13.029,-6.1204 8.029,10.0875 10.023,11.4762 11.41,7.9487 1.253,-3.1815 -1.805,-7.4113 -11.967,-16.5523 -14.771,-13.2895 -16.068,-16.3103 -9.104,-21.2074 2.544,-1.7883 4.428,-5.8874 4.28,-9.3098 -0.216,-4.9647 1.028,-6.2614 6.616,-6.9013 3.786,-0.4345 9.695,1.0526 13.131,3.303 7.126,4.6699 17.38,6.4045 19.318,3.2702 2.525,-4.086 11.247,-2.1565 12.537,2.7754 0.891,3.4092 3.336,4.8891 8.068,4.8891 3.902,0 7.413,1.6269 8.256,3.8241 0.808,2.102 2.528,3.1678 3.824,2.3678 1.295,-0.8013 4.066,1.1556 6.157,4.3484 3.368,5.1393 3.399,6.9532 0.278,15.801 -1.941,5.4982 -5.318,12.7303 -7.507,16.0714 -3.621,5.5264 -3.649,7.6921 -0.318,24.0154 15.217,74.5474 17.091,147.3033 4.461,173.2239 -3.441,7.0635 -5.679,8.6864 -12.806,9.2862 -11.22,0.9443 -15.043,-3.2151 -34.36,-37.408 -14.429,-25.5373 -24.027,-40.8079 -40.292,-64.0982 -7.288,-10.4381 -13.131,-14.4091 -8.519,-5.789 7.408,13.84 11.954,87.9608 4.523,139.7916 -11.592,80.8561 -53.708,180.3877 -91.195,198.1248 -10.573,5.0026 -5.095,5.3631 3.387,33.5676 28.578,95.0263 75.951,176.6883 125.774,222.2687 17.89,16.3653 60.101,46.8815 81.18,56.8679 16.825,7.973 23.943,13.4858 22.705,19.9193 -1.253,6.5055 -53.678,45.0219 -69.33,50.8778 -15.403,5.7627 -39.472,6.7438 -46.123,1.8803 -9.735,-7.945 14.164,-14.8717 18.616,-15.467 8.456,-1.0836 17.728,-3.7077 21.763,-5.2525 7.85,-3.0057 45.342,-27.0518 45.599,-29.2386 0.09,-0.7205 -1.739,-3.1643 -10.559,-7.5147 -30.627,-15.1013 -65.177,-40.0028 -90.5,-65.2211 -27.659,-27.5443 -48.808,-57.7897 -73.258,-104.7654 -19.84,-38.1194 -50.075,-121.4391 -50.075,-137.9955 0,-3.03 -0.697,-5.5093 -1.55,-5.5093 -3.062,0 -19.225,3.3687 -18.339,5.5094 2.238,5.4136 3.851,10.1282 8.86,20.7713 56.32,102.304 -17.312,159.3235 -70.892,202.2967 -13.45,10.6507 -30.258,25.2796 -37.352,32.5077 l -12.897,13.1411 13.777,15.6901 c 14.883,16.952 41.631,32.8797 55.217,32.8797 8.804,0 12.097,6.6354 5.638,11.358 -15.042,10.999 -55.409,-9.8782 -76.337,-39.4798 -8.275,-11.7073 -11.628,-5.4989 -11.628,21.5222 0,17.6458 -0.808,21.8816 -3.421,22.495 -11.899,2.7932 -10.469,-17.0201 -11.641,-32.6638 -2.497,-33.3259 17.956,-54.4187 71.544,-97.8112 92.852,-71.6412 90.446,-117.1848 60.093,-174.191 l -12.476,-23.4411 -14.145,2.2247 c -7.78,1.2253 -17.775,2.755 -22.211,3.4001 -5.831,0.8493 -6.854,8.142 -11.379,14.6764 -76.64,107.6274 -131.176,195.6369 -195.162,301.4408 -6.527,9.2339 -9.852,22.1956 -19.661,27.6064 l -42.087,13.3715 c -14.204,0.082 -47.81,25.4444 -47.665,9.4601 z m 193.095,-401.2961 c -28.355,-18.5395 -39.511,-36.265 -36.389,-60.7842 2.278,-19.6535 0.576,-18.6196 -12.679,19.885 -13.924,40.4518 -22.386,55.2952 -39.775,69.7659 -19.814,16.49 -30.725,23.0764 -56.523,34.1155 -46.475,19.8888 -56.943,26.2087 -77.243,46.6455 -10.667,10.7385 -19.396,20.5182 -19.396,21.7324 0,1.2141 4.597,-0.1471 10.213,-3.0045 22.591,-11.5253 48.799,-10.1866 78.417,4.0072 9.685,4.6424 15.218,6.2445 16.375,6.2445 49.956,-41.3142 88.532,-78.6058 137,-138.6073 z m 166.858,4.7484 c 36.915,-7.6186 48.579,-12.3026 68.698,-43.2693 29.641,-45.6205 51.296,-111.876 58.163,-177.9536 3.598,-34.6221 4.174,-102.5372 0.916,-108.025 -2.368,-3.9888 -3.458,-3.6627 -13.45,4.0295 -14.851,11.4315 -51.916,32.3107 -68.312,38.4809 -7.413,2.7872 -22.598,5.7955 -33.745,6.6814 l -20.266,1.6119 -0.578,24.4538 c -0.468,19.8042 -1.673,26.7791 -6.347,36.6815 -5.213,11.0501 -5.719,15.1493 -5.246,42.5773 0.682,39.6012 -3.362,55.1633 -25.927,99.7771 -9.668,19.1144 -18.853,40.8907 -20.409,48.3886 -2.503,12.0529 -2.294,14.6669 1.804,22.5605 2.548,4.9115 5.837,9.3302 7.305,9.8197 1.469,0.4916 16.227,-21.4298 20.005,-26.5453 17.9,-24.2262 20.561,-19.5247 25.621,-18.7982 9.063,1.3001 6.96,8.1745 -8.157,26.6688 -8.13,9.9464 -12.784,14.9097 -12.784,15.9184 0,2.9066 8.864,1.8634 32.709,-3.058 z m -84.294,-24.1214 c 1.793,-10.0999 6.888,-24.635 12.429,-35.4581 5.166,-10.0875 15.07,-29.345 22.008,-42.794 14.425,-27.9622 19.077,-43.9076 21.493,-73.6765 1.704,-21.0164 1.702,-21.0275 -3.582,-18.2016 -8.566,4.5854 -8.839,-2.2188 -0.799,-19.9486 7.757,-17.1102 11.266,-40.8887 8.349,-56.5775 -1.746,-9.3866 -1.877,-9.4804 -19.717,-14.0086 -35.2,-8.9358 -93.307,-41.7125 -93.307,-52.6341 0,-5.6931 5.991,-3.9192 34.057,10.0855 38.523,19.2227 68.65,30.4568 68.65,25.5997 0,-5.0729 -29.187,-32.9525 -46.191,-44.1235 -19.414,-12.7506 -47.308,-23.1479 -66.131,-24.6481 -10.74,-0.8564 -10.891,-0.7593 -16.879,10.8336 -8.086,15.6553 -9.769,41.1782 -4.137,62.7563 4.256,16.3123 23.334,61.1077 26.067,61.2082 0.853,0.04 4.007,-5.9937 7.009,-13.3905 3.901,-9.6124 6.773,-13.4509 10.067,-13.4509 6.613,0 5.946,12.8459 -1.45,27.9472 l -5.903,12.0517 8.329,-8.3832 c 4.582,-4.6109 12.524,-16.0864 17.651,-25.5012 6.652,-12.2184 10.695,-17.1188 14.122,-17.1188 2.722,0 5.179,1.9531 5.671,4.5079 1.427,7.408 -13.56,34.6582 -25.933,47.1523 -9.065,9.1536 -9.972,10.6998 -4.213,7.1874 11.518,-7.0228 18.142,-13.7423 28.485,-28.8902 5.281,-7.7342 10.695,-14.062 12.032,-14.062 7.994,0 3.881,18.1321 -7.757,34.1963 -7.817,10.7916 -5.618,10.5849 9.789,-0.9241 4.571,-3.4152 9.248,-5.6308 10.392,-4.9245 7.486,4.6272 -5.294,20.0535 -26.389,31.8506 -18.439,10.3105 -19.361,13.9732 -1.2,4.7703 15.157,-7.6809 18.006,-7.826 17.001,-0.8676 -1.257,8.7081 -19.943,18.5127 -41.281,21.6622 -18.392,2.7143 -18.55,2.8022 -29.345,16.1835 -40.274,49.9217 -42.644,54.6521 -42.644,85.1285 0,21.7224 3.794,30.5519 17.827,41.4847 13.269,10.3388 13.879,10.0192 25.948,-13.6124 8.289,-16.2354 18.234,-20.0056 20.917,-11.5542 1.571,4.9522 -3.155,16.769 -13.21,33.0372 -5.4,7.5775 -3.269,9.2942 12.099,12.8215 5.38,1.2325 15.824,2.0522 23.21,1.8231 l 13.428,-0.4181 z m -69.136,-188.7111 c 1.906,-7.5944 -12.375,-43.2619 -16.342,-40.8114 -3.994,2.4689 -14.062,26.1261 -14.087,33.1029 -0.04,9.5486 5.967,14.2364 18.226,14.2364 9.407,0 10.744,-0.7153 12.203,-6.5279 z m 381.454,-87.6203 c 0.105,-29.9521 -1.142,-49.2634 -4.463,-69.0841 -4.375,-26.1077 -6.393,-31.0047 -10.227,-24.8016 -2.106,3.4093 -19.792,0.8321 -27.1,-3.9507 -5.025,-3.2887 -5.869,-2.4873 -19.269,18.2599 -7.708,11.9343 -13.964,22.4083 -13.902,23.2778 0.07,0.8677 7.312,11.322 16.11,23.2286 8.8,11.9086 21.511,31.3737 28.247,43.2566 26.103,46.0418 24.922,44.4537 27.869,37.4991 1.459,-3.4446 2.653,-24.2628 2.735,-47.6856 z m -187.067,-3.3274 c 15.684,-6.0357 47.539,-24.2097 64.369,-36.7253 13.644,-10.146 13.823,-12.2644 2.967,-35.1957 -4.322,-9.1261 -8.567,-14.4248 -12.968,-16.1875 -21.542,-8.6273 -61.415,-13.8125 -54.719,-7.1159 5.662,5.6616 3.474,19.0541 -4.298,26.315 -6.661,6.2215 -7.039,7.4553 -4.783,15.6264 1.348,4.8787 2.114,16.8602 1.704,26.6268 l -0.746,17.756 -4.049,-8.6038 c -2.226,-4.7323 -4.833,-16.5614 -5.791,-26.288 -0.959,-9.7279 -2.572,-17.6858 -3.586,-17.6858 -1.013,0 -2.606,8.16 -3.54,18.1314 -0.935,9.974 -3.332,20.1533 -5.327,22.6216 -3.252,4.0242 -3.517,2.1683 -2.571,-18.0068 l 1.058,-22.4948 -6.853,-1.5055 c -11.801,-2.5917 -13.375,-6.9204 -7.493,-20.5969 6.059,-14.0816 6.202,-14.9991 2.135,-13.6984 -1.681,0.5389 -9.438,2.7511 -17.238,4.9188 -13.156,3.6534 -20.751,9.3485 -29.457,22.8179 -15.337,23.7292 -0.124,31.3853 10.611,41.1452 10.225,9.2962 19.187,22.1628 21.486,26.9844 l 4.179,8.7652 20.799,-1.2417 c 12.483,-0.7448 26.122,-3.2885 34.111,-6.3626 z m -16.603,-78.7967 c 3.839,-2.0541 4.579,-4.099 3.31,-9.1556 -2.355,-9.3853 -5.379,-12.118 -12.002,-10.8507 -3.931,0.7501 -6.269,3.2374 -7.149,7.6042 -0.721,3.5694 -2.056,8.4166 -2.966,10.77 -1.364,3.5247 -0.287,4.2788 6.103,4.2788 4.267,0 9.984,-1.1904 12.704,-2.6467 z m 169.836,-38.2624 c -2.487,-2.4873 -4.538,1.2562 -2.498,4.5558 1.541,2.4925 2.116,2.4945 2.945,0 0.566,-1.6984 0.365,-3.7545 -0.447,-4.567 z m -350.498,-6.0836 c -15.788,-8.5341 -26.797,-18.3716 -35.378,-31.6157 -4.291,-6.6212 -8.967,-11.591 -10.392,-11.045 -1.426,0.5467 -8.711,2.3646 -16.19,4.0373 -12.477,2.7912 -14.44,2.6133 -23.793,-2.1571 -5.606,-2.8613 -11.867,-8.437 -13.912,-12.391 -8.192,-15.8423 -1.324,-40.346 14.745,-52.6025 7.957,-6.0692 8.436,-7.263 8.436,-21.0353 0,-11.4775 1.301,-16.5505 6.081,-23.7183 12.947,-19.4136 33.8,-25.9317 50.826,-15.8849 l 8.155,4.8111 13.182,-9.4837 c 24.72,-17.7856 42.732,-19.5109 72.122,-6.9131 6.448,2.7641 11.923,4.723 12.165,4.3523 0.243,-0.3689 3.291,-5.6249 6.772,-11.6777 11.174,-19.4242 26.261,-32.8461 44.946,-39.9863 19.535,-7.4644 28.471,-7.956 48.732,-2.6809 27.846,7.2517 46.55,22.5841 60.525,49.6132 11.613,22.4634 14.921,41.5523 11.515,66.4353 -1.478,10.7917 -4.23,23.9951 -6.116,29.3411 -9.406,26.657 -30.146,49.2103 -56.917,61.8926 -14.598,6.9145 -18.773,7.7729 -37.228,7.6462 -17.571,-0.1279 -22.744,-1.1537 -33.45,-6.6776 -6.967,-3.5949 -13.319,-7.5948 -14.119,-8.8877 -0.798,-1.2936 -8.305,2.835 -16.68,9.172 -22.675,17.1595 -38.161,23.1072 -62.912,24.1565 -18.018,0.7646 -22.162,0.1464 -31.115,-4.7008 z m 62.905,-17.6988 c 7.398,-3.7414 18.127,-10.5989 23.843,-15.2373 10.937,-8.8753 14.138,-15.1736 5.311,-10.4485 -2.795,1.4943 -6.647,2.1178 -8.559,1.3847 -5.108,-1.9609 -4.235,-10.6925 1.37,-13.6916 4.541,-2.4302 4.622,-3.164 1.272,-11.7013 -5.338,-13.6051 -10.939,-39.5959 -10.923,-50.6809 0,-5.3795 1.457,-16.6588 3.218,-25.0663 3.691,-17.6122 3.9,-17.4692 -17.12,-11.8719 -33.609,8.949 -66.99,48.3428 -81.531,96.2136 -5.304,17.4659 -5.31,17.706 -0.646,23.6355 6.062,7.7065 17.846,17.6037 26.685,22.4121 11.151,6.0652 40.302,3.538 57.08,-4.9481 z m -2.726,-74.2818 c -3.207,-2.461 -7.829,-5.2028 -10.268,-6.096 -6.42,-2.3475 -2.626,-6.5476 5.914,-6.5476 4.535,0 9.627,2.3251 13.437,6.1348 9.883,9.884 2.35,15.2812 -9.083,6.5088 z m 128.777,57.3152 c 27.577,-12.6239 47.764,-39.594 52.734,-70.4471 1.309,-8.1358 2.061,-15.0115 1.668,-15.2772 -0.393,-0.2664 -5.921,-2.4138 -12.285,-4.7705 -13.736,-5.09 -29.046,-21.2847 -35.095,-37.1218 l -4.121,-10.7897 -9.808,8.8623 c -5.396,4.8728 -17.078,12.2918 -25.961,16.4848 -14.831,6.9984 -18.221,7.6238 -41.478,7.633 h -25.326 l 1.144,23.2305 c 0.629,12.7796 3.096,28.9506 5.482,35.9439 4.093,11.9926 4.731,12.6311 11.305,11.3161 8.748,-1.7497 12.046,4.5524 5.924,11.3179 -5.415,5.9832 -2.21,12.2978 10.181,20.0687 20.703,12.983 42.446,14.1551 65.636,3.5399 z m -91.204,-59.534 c -9.349,-3.2118 1.914,-15.3147 14.253,-15.3147 5.474,0 9.008,6.4525 5.471,9.9884 -3.162,3.1619 -15.961,6.6191 -19.724,5.3263 z m 48.909,-7.1527 c -5.339,-2.1532 -3.306,-7.9087 4.159,-11.7676 9.279,-4.7979 15.809,-4.7323 19.904,0.2016 2.773,3.3417 2.564,4.4442 -1.391,7.3364 -2.561,1.8723 -6.555,3.4041 -8.878,3.4041 -2.323,0 -5.689,0.4619 -7.48,1.029 -1.792,0.565 -4.633,0.4731 -6.314,-0.2035 z m -200.529,42.8983 c 2.621,-3.5248 4.381,-8.1062 3.912,-10.1807 -0.595,-2.6408 -3.712,-0.4692 -10.381,7.2354 -8.646,9.9884 -9.01,10.9328 -3.913,10.1807 3.089,-0.4562 7.761,-3.7119 10.382,-7.2354 z m -25.018,3.349 c 0.03,-1.0087 5.417,-7.6108 11.988,-14.6722 6.569,-7.0615 10.905,-12.8386 9.634,-12.8386 -3.727,0 -26.556,22.3629 -26.556,26.0125 0,3.3876 4.855,4.8623 4.934,1.4983 z m 23.188,-36.927 c 7.961,-4.101 8.738,-5.0597 4.183,-5.1483 -9.331,-0.1832 -24.605,9.2146 -32.338,19.8889 -11.176,15.43 -8.718,16.6718 5.535,2.7969 7.061,-6.8738 17.24,-14.766 22.62,-17.5375 z m -2.445,-24.8187 c -0.831,-1.346 -2.547,-2.4466 -3.813,-2.4466 -1.266,0 -2.301,1.1006 -2.301,2.4466 0,1.3447 1.715,2.4452 3.813,2.4452 2.096,0 3.133,-1.1005 2.301,-2.4452 z m 5.166,-15.8187 c -3.924,-5.9878 -11.28,-8.5446 -11.28,-3.9232 0,2.8634 12.563,12.8846 14.155,11.2925 0.648,-0.6491 -0.644,-3.9652 -2.875,-7.3693 z m 0.947,-15.9729 c 0,-1.3441 -1.1,-2.4446 -2.445,-2.4446 -1.344,0 -2.445,1.1005 -2.445,2.4446 0,1.3466 1.101,2.4466 2.445,2.4466 1.345,0 2.445,-1.1 2.445,-2.4466 z m 20.448,-8.5577 c -0.774,-2.0174 -2.525,-3.6679 -3.89,-3.6679 -1.432,0 -1.195,1.5534 0.56,3.6679 1.674,2.0173 3.426,3.6685 3.891,3.6685 0.465,0 0.213,-1.6512 -0.561,-3.6685 z" fill="#030303" transform="translate(-109.2505,168.21784) matrix(0.26458333,0,0,0.26458333,-2905.5959,-1715.0952)"/>
</svg>
