<svg xmlns="http://www.w3.org/2000/svg" viewBox="0 0 146.33493 146.42101" height="146.42101mm" width="146.33493mm">
    <path d="m 15183.209,4119.9304 c -8.226,-0.6639 -21.525,4.7201 -39.804,18.6084 -83.245,-28.1682 -45.531,48.6965 2.201,64.0764 46.554,-39.785 58.628,-80.9883 37.603,-82.6848 z m 65.88,103.5226 a 82.292966,83.100911 0 0 0 -81.894,83.0992 82.292966,83.100911 0 0 0 82.292,83.0993 82.292966,83.100911 0 0 0 82.293,-83.0993 82.292966,83.100911 0 0 0 -82.293,-83.0992 82.292966,83.100911 0 0 0 -0.398,0 z m -248.877,9.7859 a 80.364406,91.104502 27.198113 0 0 -76.882,46.5492 80.364406,91.104502 27.198113 0 0 21.695,120.6241 80.364406,91.104502 27.198113 0 0 114.961,-35.7884 80.364406,91.104502 27.198113 0 0 -21.695,-120.6187 80.364406,91.104502 27.198113 0 0 -38.079,-10.7662 z m 316.55,186.0842 c -11.42,-0.2913 -24.459,0.9612 -39.367,3.5177 -95.417,16.3616 -81.986,98.9184 -85.312,167.1452 16.682,39.039 177.881,35.9284 208.776,6.5203 -7.875,-129.0473 -22.427,-175.6102 -84.097,-177.1832 z m -316.259,37.8386 c -84.336,-0.6701 -99.454,102.872 -86.594,155.8132 28.161,16.7893 145.681,11.6548 151.147,-2.0333 5.466,-13.6883 27.041,-149.6052 -60.48,-153.668 -1.374,-0.063 -2.733,-0.1023 -4.073,-0.1119 z" color="#000" overflow="visible" fill="#fff" paint-order="fill markers stroke" transform="translate(130.24367,26.089458) matrix(0.2881372,0,0,0.2881372,-4423.5766,-1211.8831)"/>
    <path d="m 15176.993,4115.38 c -6.868,0.081 -13.457,3.494 -21.499,10.7271 -7.394,6.6508 -9.88,7.015 -19.824,2.896 -6.418,-2.6588 -16.391,-3.6051 -22.91,-2.1734 -13.803,3.0315 -31.027,15.811 -31.027,23.0224 0,7.39 17.672,27.3733 39.379,44.5324 10.27,8.1176 21.798,14.7546 25.622,14.7546 9.191,0 41.333,-35.8998 50.458,-56.3573 8.324,-18.6625 5.1,-29.5617 -10.497,-35.4916 -3.401,-1.2931 -6.579,-1.9472 -9.702,-1.9102 z m 0.897,11.0968 c 1.997,-0.2036 3.678,1.1295 6.189,3.641 5.704,5.7035 5.714,7.2507 0.134,18.7204 -3.344,6.8768 -12.415,19.8143 -20.159,28.7528 -7.743,8.9386 -15.263,16.2559 -16.704,16.2559 -1.441,0 -11.505,-5.9817 -22.362,-13.2926 -23.821,-16.0426 -28.799,-27.2174 -16.547,-37.1384 14.9,-12.0643 29.943,-7.756 29.191,8.3631 -0.336,7.172 1.7,9.8664 8.156,10.783 6.629,0.9416 8.603,-0.6602 8.603,-6.9851 0,-4.5145 5.281,-13.4875 11.735,-19.9416 6.095,-6.0945 9.194,-8.8967 11.764,-9.1585 z m 84.919,94.0279 c -10.217,0.1813 -21.771,2.0724 -35.026,5.3608 -35.841,8.8914 -54.137,32.5189 -66.004,67.3756 -6.117,17.9698 -5.108,24.7028 -5.108,24.7028 -26.887,5.1112 -11.521,16.4732 -0.336,13.3038 2.084,6.1326 8.465,16.8719 10.311,19.2413 12.112,18.042 35.168,33.2966 60.402,39.9673 27.298,7.2155 36.614,7.2678 59.938,0.3417 16.788,-4.9855 21.133,-8.5431 33.844,-27.6885 18.936,-28.5192 19.869,-60.6493 7.68,-89.4627 -16.423,-38.826 -35.049,-53.6859 -65.701,-53.1421 z m -242.973,8.2846 c -28.033,-0.4356 -73.631,16.9858 -93.238,38.3204 -22.11,24.0587 -26.377,33.8878 -26.289,60.5754 0.166,50.3594 27.886,81.9671 80.092,91.3336 18.655,3.347 44.395,-0.9408 59.606,-9.926 14.197,-8.3866 29.326,-29.9143 32.629,-46.4314 1.681,-8.399 5.551,-13.779 11.55,-16.0598 11.035,-4.195 11.63,-9.9249 1.373,-13.1804 -7.362,-2.3366 -10.054,-13.427 -8.224,-33.8895 1.888,-21.1002 -19.297,-55.5673 -41.435,-67.415 -4.062,-2.174 -9.595,-3.2266 -16.064,-3.3273 z m 232.644,6.8844 c 20.524,-0.191 38.345,6.8289 44.991,11.6849 13.223,9.6595 22.971,49.7983 22.3,67.286 -0.301,19.9593 -14.608,46.8695 -31.189,58.6764 -8.092,5.7617 -16.619,7.8132 -31.531,7.5735 -33.673,-0.5415 -58.077,-10.9838 -73.785,-31.5761 -10.817,-14.183 -10.031,-16.5693 -12.109,-20.3841 17.07,-2.6608 11.71,-13.1673 0.04,-11.4273 -0.04,-20.3654 19.058,-57.4095 43.248,-71.6777 12.433,-7.3325 25.721,-10.041 38.035,-10.1556 z m -258.076,8.5536 c 0.949,-0.042 1.884,-0.039 2.801,0.011 3.39,0.1623 6.569,0.9081 9.506,2.2464 5.771,2.6292 10.41,2.8038 12.732,0.4816 5.843,-5.8425 14.953,-0.174 26.501,16.4911 8.584,12.3852 11.034,20.7131 12.207,41.4571 1.39,24.6105 1.016,26.0251 -7.25,27.2349 -11.504,1.6842 -14.203,10.7781 -3.988,13.4493 4.429,1.158 8.023,4.9167 7.989,8.3519 -0.1,9.5762 -16.004,35.2816 -26.703,43.149 -20.177,14.8357 -58.564,11.4146 -83.906,-7.4726 -21.531,-16.0466 -32.22,-47.1754 -26.081,-75.9628 3.076,-14.4236 8.324,-22.5916 25.678,-39.9448 18.733,-18.7337 36.29,-28.8725 50.514,-29.4867 z m 273.615,19.544 c -3.479,0.1665 -5.977,3.4484 -5.977,9.444 0,6.9139 2.055,9.5621 7.422,9.5621 9.762,0 13.519,-6.5872 7.736,-13.5559 -3.176,-3.8269 -6.476,-5.5799 -9.181,-5.4502 z m -60.072,11.92 c -7.266,-0.1494 -10.052,6.6669 -4.408,12.3123 4.455,4.4551 14.525,0.7931 14.525,-5.2822 0,-3.126 -3.871,-6.2348 -8.604,-6.9068 -0.523,-0.074 -1.028,-0.1134 -1.513,-0.1233 z m -227.491,9.9316 c -6.727,0 -14.631,10.2736 -11.635,15.1243 3.231,5.2248 10.868,5.0863 16.252,-0.2969 5.169,-5.1702 2.163,-14.8274 -4.617,-14.8274 z m 43.261,1.3332 c -1.368,-0.011 -2.638,0.4305 -3.646,1.4396 -2.398,2.3974 -3.327,7.0555 -2.062,10.3517 2.647,6.8967 12.333,7.9793 16.15,1.8037 3.283,-5.3127 -4.514,-13.5725 -10.442,-13.595 z m 280.528,29.257 c -7.075,0 -74.982,15.7074 -85.799,19.8463 -5.785,2.213 -10.521,5.3989 -10.521,7.0748 0,9.2978 6.716,16.8191 20.659,23.1513 26.306,11.9466 47.107,8.0352 66.031,-12.4243 9.097,-9.8351 16.211,-37.6481 9.63,-37.6481 z m -20.211,16.6926 c 1.854,-0.088 3.071,0.029 3.439,0.3977 2.952,2.9522 -11.125,17.3416 -22.945,23.4538 -13.482,6.9038 -26.016,3.7536 -37.48,-9.4834 0,-3.1742 44.01,-13.7486 56.986,-14.3681 z m -326.622,25.6049 c -3.352,-0.011 -5.692,1.1636 -5.692,3.6465 0,2.1342 5.589,7.2876 12.425,11.4553 15.168,9.2483 49.259,10.4841 56.267,2.0389 6.606,-7.9589 1.527,-14.5606 -7.488,-9.7355 -10.498,5.6177 -31.864,4.6751 -40.4,-1.7813 -4.827,-3.6511 -10.804,-5.6136 -15.112,-5.6239 z m 385.528,46.941 c -2.434,-0.061 -4.532,0.3386 -6.079,1.294 -2.039,1.2611 -18.081,3.7483 -35.647,5.5288 -55.286,5.6037 -97.031,26.6323 -103.423,52.0945 -2.757,10.9889 -13.853,13.8708 -52.961,13.7632 -34.326,-0.094 -86.887,-10.191 -101.239,-19.4487 -16.828,-10.8564 -96.485,-7.3453 -98.845,4.358 -0.893,4.4339 -3.806,5.4925 -10.513,3.8091 -6.943,-1.7424 -9.283,-0.7813 -9.283,3.8202 0,3.4148 -3.121,6.1505 -7.012,6.1505 -10.715,0 -12.311,3.8054 -6.403,15.2308 4.743,9.1716 4.496,14.7943 -2.017,46.3585 -8.335,40.3944 -9.373,61.6234 -3.551,72.5011 7.251,13.5472 11.333,7.6489 11.427,-16.5022 0.09,-21.1063 1.644,-32.0054 9.573,-66.9219 1.075,-4.7323 4.32,-8.6041 7.21,-8.6041 7.102,0 10.316,-9.5181 5.007,-14.8274 -3.171,-3.1707 -1.765,-4.2908 5.395,-4.2908 13.34,0 15.965,-3.8346 8.368,-12.2281 -6.164,-6.8109 -5.883,-7.0635 6.683,-6.0441 10.469,0.8492 12.909,-0.2292 12.066,-5.3384 -1.343,-8.1319 10.234,-11.8981 34.863,-11.3432 22.494,0.5068 30.965,6.7727 42.064,31.1281 6.341,13.9169 8.066,26.6828 9.018,66.7426 0.647,27.2431 2.473,50.8311 4.061,52.4194 1.589,1.5884 5.25,1.4293 8.132,-0.3529 3.926,-2.4258 5.061,-12.2363 4.527,-39.0372 -0.391,-19.6882 -1.044,-38.914 -1.45,-42.7288 -0.674,-6.3309 4.557,-1.3904 49.932,-2.4044 27.342,-0.611 51.769,-8.0504 55.45,-9.6334 6.056,-2.6048 6.689,0.038 6.689,27.8118 0,33.4825 2.07,42.7847 9.51,42.7847 3.58,0 5.312,-12.3705 6.56,-46.8458 3.053,-84.3508 23.481,-109.7637 93.569,-116.4006 28.294,-2.6793 38.767,0.043 31.911,8.3015 -3.631,4.3756 -3.549,8.0227 0.398,16.9391 6.084,13.7461 14.713,16.5875 28.546,9.4106 14.642,-7.5963 15.859,-3.7193 2.04,6.4978 -13.714,10.1387 -11.907,16.4669 3.719,13.035 9.643,-2.1184 11.633,-1.0214 15.286,8.3855 2.311,5.9486 7.149,34.0416 10.755,62.4294 5.188,40.8435 7.832,51.8574 12.671,52.7893 3.363,0.6476 6.979,-0.2206 8.038,-1.9326 1.808,-2.9248 -9.891,-91.9276 -14.648,-111.4433 -1.203,-4.9333 -0.08,-11.5173 2.51,-14.6313 3.454,-4.1627 3.554,-6.372 0.369,-8.3406 -2.822,-1.7443 -3.089,-4.6415 -0.767,-8.3128 5.798,-9.1695 4.45,-26.6635 -2.056,-26.6635 -3.154,0 -6.616,0.4265 -7.685,0.9523 -1.07,0.5259 -5.283,-4.5303 -9.36,-11.2367 -5.981,-9.8336 -22.865,-18.7556 -33.408,-19.023 z m 37.065,33.1277 c 2.104,0 3.826,2.5813 3.826,5.7361 0,3.1547 -1.722,5.736 -3.826,5.736 -2.103,0 -3.82,-2.5813 -3.82,-5.736 0,-3.1548 1.717,-5.7361 3.82,-5.7361 z m -321.273,41.054 14.369,2.4645 c 47.146,8.0738 74.3,10.4539 94.01,8.2456 21.614,-2.4213 22.248,-2.234 21.035,6.2233 -0.922,6.4257 -5.276,9.9301 -16.547,13.315 -19.79,5.9432 -72.832,5.9202 -89.294,-0.04 -8.712,-3.1533 -14.542,-8.7384 -18.194,-17.4265 z" fill="#030303" transform="translate(130.24367,26.089458) matrix(0.2881372,0,0,0.2881372,-4423.5766,-1211.8831)"/>
</svg>
