<svg xmlns="http://www.w3.org/2000/svg" viewBox="0 0 153.19185 240.67976" height="240.67976mm" width="153.19185mm">
    <path d="m 14899.538,5475.1501 c -20.356,-0.3762 -43.312,5.239 -67.869,20.087 -123.564,101.351 23.263,203.1917 113.898,150.8985 54.321,-31.3407 54.617,-77.7817 40.166,-116.023 -9.186,-24.3094 -41.412,-54.135 -86.195,-54.9625 z m -209.455,88.1499 c -11.05,-0.3335 -23.693,2.5239 -38.106,9.9669 -65.892,34.0249 -154.064,175.1065 -107.615,311.2064 46.448,136.0998 99.381,147.039 176.615,114.4723 11.612,-5.9544 86.953,-47.1538 36.725,-89.5635 -50.229,-42.4097 -45.77,-151.5281 -16.065,-189.1986 29.706,-37.6705 22.685,-70.9709 13.908,-95.0314 -6.857,-18.7973 -25.999,-60.6605 -65.462,-61.8521 z" color="#000" overflow="visible" fill="#fff" paint-order="fill markers stroke" transform="translate(127.69905,-160.39532) matrix(0.26458333,0,0,0.26458333,-3946.3281,-1266.2166)"/>
    <path d="m 12520.412,6709.8516 c -19.989,-0.5027 -35.499,28.4636 -71.59,32.1015 -72.809,7.3392 -7.699,31.3375 20.121,25.8438 16.691,-3.2962 27.936,0.9358 36.78,6.0058 -12.871,-0.019 -40.042,-4.131 -59.08,10.4043 -3.628,2.7694 -6.913,5.6864 -9.373,8.336 -4.455,1.659 -8.463,4.0392 -13.696,7.5019 -27.313,18.075 -42.371,43.7279 -45.154,76.9219 -1.896,22.6088 -0.762,31.6941 5.795,46.4531 11.35,25.5446 28.908,45.0606 48.574,53.9942 24.253,11.0165 62.616,10.1938 92.596,-1.9883 20.745,-8.4291 24.162,-11.8281 24.162,-11.8281 12.138,17.1545 29.69,11.0871 16.287,-9.8262 21.395,-20.23 33.263,-46.7188 35.289,-79.1153 -0.02,-0.5389 -0.06,-1.0837 -0.09,-1.6269 1.995,-18.0675 -1.444,-33.0523 -13.168,-51.5605 -12.561,-19.9733 -34.804,-31.7796 -56.584,-40.8965 15.297,-24.0648 30.802,-38.7222 0.86,-67.0606 -4.168,-2.4622 -8.023,-3.567 -11.725,-3.6601 z m -149.203,25.1836 c -5.304,-0.1395 -10.124,1.5863 -13.504,5.6582 -4.049,4.8786 -2.997,8.0346 5.51,16.541 5.782,5.7817 14.206,10.5117 18.724,10.5117 4.519,0 9.366,1.8603 10.772,4.1348 1.405,2.2744 5.439,4.1367 8.963,4.1367 4.881,0 5.771,-2.7108 3.736,-11.3731 -3.927,-16.7133 -20.646,-29.2529 -34.201,-29.6093 z m 6.783,12.0351 c 2.409,0 4.381,1.8603 4.381,4.1348 0,2.2744 -0.821,4.1347 -1.824,4.1347 -1.004,0 -2.973,-1.8603 -4.379,-4.1347 -1.406,-2.2745 -0.587,-4.1348 1.822,-4.1348 z m -11.494,39.6582 c -4.712,-0.1218 -9.375,0.4103 -12.969,1.7891 -5.158,1.9793 -5.334,3.5412 -0.994,8.7715 6.956,8.3814 34.938,6.5181 34.938,-2.3262 0,-4.5347 -10.608,-7.9663 -20.975,-8.2344 z m 117.26,16.957 c -2.416,5.9452 -4.655,11.828 4.687,10.3243 2.049,-0.3294 12.029,-6.1534 19.119,-9.7188 2.809,0.2857 5.516,0.6527 8.116,1.1192 -0.121,6.9219 -6.534,16.6241 7.131,17.6386 5.44,0.404 13.23,-7.9764 17.466,-8.9062 0.904,0.5172 1.802,1.0527 2.692,1.6133 0.02,0.051 0.04,0.091 0.05,0.1445 2.452,8.7905 -4.334,21.1437 4.63,30.0098 5.075,5.0197 15.324,-6.0167 15.901,-5.5157 0.09,0.078 0.173,0.1718 0.25,0.2813 2.402,3.4002 -0.832,21.6165 1.664,26.7637 1.616,14.6573 16.899,-1.9577 15.053,0.4765 -2.614,6.3635 -3.221,18.041 -0.856,26.9024 -0.505,1.5436 -1.068,3.0689 -1.701,4.5625 -7.379,17.3941 -8.636,18.0661 -17.397,9.3046 -7.385,-7.3839 -20.476,-8.1272 -24.634,-1.3984 -1.68,2.7168 1.047,8.0568 6.273,12.2891 9.534,7.7208 16.405,14.1893 13.672,21.5215 -11.743,-10.8595 -22.861,-3.7874 -12.898,9.6464 0,0 -11.645,5.7405 -15.243,7.1211 -9.69,3.7187 -14.134,3.0673 -14.134,-2.0722 0,-5.3948 -36.054,-61.7639 -52.086,-81.4356 -21.918,-26.8925 -40.959,-7.7331 -40.959,41.2129 0,31.0222 -4.291,31.5189 -19.235,2.2266 -15.796,-30.9645 -1.164,-78.7885 30.91,-101.0157 13.341,-9.2457 21.952,-11.6591 45.913,-12.8691 1.921,-0.097 3.781,-0.1674 5.615,-0.2266 z m -18.506,24.043 c -6.325,-0.093 -7.722,4.9426 0.949,11.2832 8.189,5.9884 22.611,7.5694 22.561,2.4746 -0.01,-1.7058 -5.557,-6.2484 -12.315,-10.0937 -4.428,-2.5199 -8.32,-3.6219 -11.195,-3.6641 z m 42.293,33.4004 c -14.433,0 -16.873,7.4231 -4.32,13.1426 7.015,3.1962 10.541,7.8868 10.115,13.457 -0.361,4.703 -0.45,10.0825 -0.197,11.9551 0.251,1.8723 3.713,2.784 7.693,2.0254 17.958,-3.4227 5.788,-40.5801 -13.291,-40.5801 z m -237.518,14.5859 c -31.055,-0.2184 -70.586,9.0812 -131.474,30.334 -78.832,27.5155 -108.785,43.6428 -108.785,58.5703 0,13.6563 43.938,53.4857 77.486,70.2403 18.465,9.2219 20.233,13.2344 13.56,30.7832 -13.161,34.6192 1.218,121.0896 29.508,177.4453 13.741,27.37 53.713,85.3536 61.84,89.7031 4.096,2.1922 18.78,5.1697 32.629,6.6172 28.451,2.9737 38.128,11.2556 45.605,39.0234 5.413,20.1037 -0.886,36.2677 -27.185,69.7422 -23.249,29.5928 -71.457,67.4416 -139.789,109.7539 -59.22,36.6688 -59.495,55.5138 -0.817,56.2403 18.309,0.2266 37.942,1.7949 43.629,3.4843 13.318,3.9574 16.539,1.9897 16.539,-10.0996 0,-13.6495 -4.529,-15.3925 -40.002,-15.3925 -17.069,0 -29.47,-1.3213 -27.562,-2.9356 32.304,-27.3304 53.373,-43.414 73.768,-56.3105 71.644,-45.3031 121.727,-103.0105 121.851,-140.3985 0.02,-6.8233 -4.588,-20.5038 -10.246,-30.4023 -12.928,-22.6138 -12.855,-24.2038 1.281,-27.3086 6.365,-1.398 22.276,-8.9887 35.358,-16.8692 13.082,-7.8806 24.492,-14.3281 25.353,-14.3281 4.597,0 56.078,36.2723 69.735,49.1328 35.32,33.2624 47.196,61.8285 35.13,84.502 -16.255,30.5491 -97.897,98.5906 -144.744,120.6348 -12.883,6.062 -26.713,14.6596 -30.736,19.1054 -11.935,13.1877 -0.991,19.4534 35.551,20.3535 41.523,1.0227 41.353,1.056 41.353,-8.3144 0,-7.7859 -4.175,-9.9092 -26.263,-13.3574 -5.295,-0.8266 6.808,-12.0199 39.287,-36.3321 101.615,-76.0667 120.727,-104.023 100.398,-146.8632 -8.851,-18.6533 -49.586,-58.6508 -82.379,-80.8887 -19.101,-12.9531 -26.236,-20.1243 -24.385,-24.5137 1.438,-3.4124 3.539,-14.8718 4.67,-25.4668 1.981,-18.5553 1.308,-20.0345 -18.355,-40.2207 -18.921,-19.4251 -42.554,-59.7935 -37.793,-64.5547 1.14,-1.1386 16.686,-5.808 34.551,-10.3769 43.491,-11.1234 50.444,-16.1848 53.902,-39.2422 3.302,-22.0238 -2.156,-46.5561 -17.719,-79.6465 -6.147,-13.0687 -11.425,-26.5787 -11.73,-30.0215 -0.305,-3.4428 -3.336,-11.8174 -6.735,-18.6094 -3.398,-6.7921 -10.377,-24.4795 -15.509,-39.3047 -14.916,-43.0798 -29.089,-55.6031 -70.471,-62.2675 -6.422,-1.0343 -13.138,-1.5903 -20.305,-1.6407 z m 176.895,1.9551 c 6.725,0 27.908,28.3274 42.119,56.3262 7.366,14.5094 15.437,26.5098 17.939,26.6699 2.503,0.1598 0.829,1.8909 -3.72,3.8457 -8.49,3.6487 -36.441,4.5106 -47.633,1.4688 -24.7,-10.3395 -33.405,-71.0445 -8.705,-88.3106 z m -157.813,13.1895 c 1.954,0.019 3.875,0.1514 5.76,0.4043 26.086,3.4987 34.469,11.8197 50.498,50.1113 11.125,26.5761 14.178,38.7926 12.412,49.6777 -2.902,17.879 -36.025,58.0318 -48.431,58.709 -4.794,0.2617 -16.16,2.576 -25.258,5.1445 -19.745,5.5748 -35.151,6.0773 -35.151,1.1465 0,-3.2666 33.353,-11.3546 57.571,-13.9609 12.732,-1.3703 15.799,-9.883 4.814,-13.3691 -7.423,-2.3561 -53.243,7.2207 -90.023,18.8164 -16.321,5.145 -67.084,-2.7627 -70.221,-10.9395 -1.167,-3.0391 3.824,-17.246 11.09,-31.5703 34.101,-67.2327 87.217,-114.5516 126.939,-114.1699 z m -58.601,0.4414 c 0.254,0.017 0.423,0.064 0.502,0.1426 0.868,0.8673 -12.95,16.2666 -30.705,34.2207 -29.335,29.6641 -56.625,70.5345 -63.2,94.6523 -3.838,14.0766 -19.812,10.3922 -40.531,-9.3476 -3.059,-2.9139 -10.502,-7.8796 -16.541,-11.0352 -6.039,-3.1556 -16.564,-11.652 -23.387,-18.8828 l -12.406,-13.1485 14.27,-11.9921 c 7.849,-6.5962 27.387,-17.4508 43.42,-24.1211 30.969,-12.8829 120.709,-41.0318 128.578,-40.4883 z m 363.176,77.9433 c -11.431,0.7667 -18.343,23.0516 -7.922,38.9551 3.629,5.5391 8.044,10.0703 9.812,10.0703 13.223,0 18.4,-35.9724 6.588,-45.7754 -2.961,-2.4578 -5.841,-3.4269 -8.478,-3.25 z m 0,13.2383 c 0.376,0.057 0.821,0.6926 1.316,1.9297 1.194,2.9851 1.048,6.5516 -0.326,7.9258 -1.373,1.3741 -2.352,-1.0685 -2.172,-5.4277 0.124,-3.011 0.555,-4.5227 1.182,-4.4278 z m -62.975,23.3828 c -6.512,0 -22.265,28.5793 -19.592,35.545 1.456,3.7954 6.235,5.851 11.774,5.0644 7.962,-1.1305 9.509,-4.1919 10.584,-20.9668 0.696,-10.8415 -0.544,-19.6426 -2.766,-19.6426 z m -158.771,11.7696 9.017,14.5918 c 4.96,8.0255 11.048,25.5062 13.528,38.8457 6.311,33.9314 0.202,45.6761 -29.805,57.3027 -12.479,4.8353 -28.056,10.0517 -34.617,11.5918 l -11.93,2.8008 1.971,-30.1992 c 2.303,-35.255 11.614,-56.0239 35.476,-79.1094 z m -224.68,35.373 c 4.307,-0.091 11.323,1.4698 23.59,4.8242 28.833,7.8844 37.976,12.9927 34.197,19.1075 -1.35,2.1849 1.928,8.6646 7.283,14.3984 17.231,18.4468 50.863,32.0873 68.315,27.707 14.117,-3.5428 11.787,-9.7512 -3.785,-10.0879 -28.495,-0.6161 -30.04,-6.8109 -1.86,-7.4511 l 28.121,-0.6387 -1.242,23.834 -1.24,23.832 -24.719,-0.541 c -22.977,-0.5032 -25.631,-1.5967 -37.656,-15.5078 -12.007,-13.8905 -26.535,-19.9943 -26.535,-11.1485 0,2.0999 4.818,9.5434 10.707,16.5411 7.873,9.3574 9.056,12.7226 4.472,12.7226 -11.771,0 -19.954,-5.2777 -23.779,-15.3379 -4.749,-12.4906 -17.725,-11.205 -19.601,1.9414 -0.726,5.0943 0.204,9.3025 2.068,9.3535 1.865,0.051 8.041,3.798 13.726,8.3262 5.687,4.5282 7.272,7.1504 3.522,5.8281 -3.751,-1.3222 -8.119,-0.2993 -9.709,2.2735 -4.768,7.7145 9.946,19.9067 27.631,22.8945 9.629,1.6267 15.033,4.3353 12.904,6.4649 -2.13,2.1296 -9.315,2.0449 -17.154,-0.2032 -10.813,-3.101 -13.977,-2.6015 -15.944,2.5235 -1.35,3.5165 0.145,8.1634 3.319,10.3261 7.069,4.8153 50.305,1.2087 62.822,-5.2402 16.311,-8.4035 27.895,-21.4104 25.576,-28.7168 -1.497,-4.7154 0.599,-7.7401 6.418,-9.2617 5.834,-1.5257 9.321,-0.012 10.735,4.6582 6.227,20.5541 19.639,43.5472 36.42,62.4414 20.631,23.2298 21.892,27.2349 12.703,40.3535 -4.291,6.1268 -8.899,8.0999 -15.121,6.4727 -8.104,-2.1191 -8.708,-1.1308 -6.387,10.4707 2.461,12.3081 1.568,13.3073 -22.758,25.4629 -13.926,6.9588 -29.21,12.6332 -33.965,12.6132 -4.754,-0.022 -16.814,-6.5362 -26.801,-14.4746 -9.986,-7.9384 -19.814,-14.4336 -21.839,-14.4336 -5.489,0 -9.732,13.749 -4.754,15.4082 2.361,0.787 7.81,4.003 12.109,7.1465 10.359,7.5738 6.616,10.0906 -8.711,5.8574 -21.054,-5.8152 -63.517,-71.6806 -83.476,-129.4785 -15.037,-43.547 -18.264,-118.6766 -5.932,-138.1191 1.27,-2.0018 2.98,-3.0716 6.33,-3.1426 z m 132.904,16.877 c 2.902,-0.012 6,1.729 6,4.457 0,1.003 -2.9,1.8223 -6.445,1.8223 -3.546,0 -5.281,-1.8897 -3.852,-4.2012 0.886,-1.4322 2.556,-2.0712 4.297,-2.0781 z m -66.23,93.5957 c 1.59,-0.035 4.73,0.4576 9.683,1.2968 7.677,1.3004 16.626,2.3653 19.887,2.3653 3.267,0 4.781,1.8603 3.375,4.1347 -3.874,6.2684 -20.156,4.9486 -29.189,-2.3652 -4.749,-3.8451 -6.406,-5.3725 -3.756,-5.4316 z" transform="translate(127.69905,-160.39532) matrix(0.26458333,0,0,0.26458333,-3946.3281,-1266.2166) translate(2402.8459,-1317.926)" fill="#030303"/>
</svg>
