<svg xmlns="http://www.w3.org/2000/svg" viewBox="0 0 153.19211 234.01701" height="234.01701mm" width="153.19211mm">
    <path d="m 14899.538,5475.1501 c -20.356,-0.3762 -43.312,5.239 -67.869,20.087 -123.564,101.351 23.263,203.1917 113.898,150.8985 54.321,-31.3407 54.617,-77.7817 40.166,-116.023 -9.186,-24.3094 -41.412,-54.135 -86.195,-54.9625 z m -209.455,88.1499 c -11.05,-0.3335 -23.693,2.5239 -38.106,9.9669 -65.892,34.0249 -154.064,175.1065 -107.615,311.2064 46.448,136.0998 99.381,147.039 176.615,114.4723 11.612,-5.9544 86.953,-47.1538 36.725,-89.5635 -50.229,-42.4097 -45.77,-151.5281 -16.065,-189.1986 29.706,-37.6705 22.685,-70.9709 13.908,-95.0314 -6.857,-18.7973 -25.999,-60.6605 -65.462,-61.8521 z" color="#000" overflow="visible" fill="#fff" paint-order="fill markers stroke" transform="translate(3.5915919,-16.390466) matrix(0.26458333,0,0,0.26458333,-3822.2204,-1416.884)"/>
    <path d="m 14569.08,6299.7254 c -5.687,-1.6894 -25.319,-3.2573 -43.628,-3.4839 -58.678,-0.7265 -58.405,-19.5701 0.815,-56.2389 68.332,-42.3123 116.54,-80.1623 139.789,-109.7551 26.299,-33.4745 32.6,-49.6387 27.187,-69.7424 -7.477,-27.7678 -17.155,-36.0492 -45.606,-39.0229 -13.849,-1.4475 -28.532,-4.4255 -32.628,-6.6177 -8.127,-4.3495 -48.099,-62.332 -61.84,-89.702 -28.29,-56.3557 -42.67,-142.827 -29.509,-177.4462 6.673,-17.5488 4.905,-21.5606 -13.56,-30.7825 -33.548,-16.7546 -77.487,-56.5848 -77.487,-70.2411 0,-14.9275 29.954,-31.0552 108.786,-58.5707 74.939,-26.1573 117.526,-34.2082 151.778,-28.6922 41.382,6.6644 55.555,19.1884 70.471,62.2682 5.132,14.8252 12.113,32.5121 15.511,39.3042 3.399,6.792 6.429,15.1661 6.734,18.6089 0.305,3.4428 5.584,16.9521 11.731,30.0208 15.563,33.0904 21.021,57.6231 17.719,79.6469 -3.458,23.0574 -10.412,28.1193 -53.903,39.2427 -17.865,4.5689 -33.412,9.2388 -34.552,10.3774 -4.761,4.7612 18.872,45.1284 37.793,64.5535 19.663,20.1862 20.338,21.6653 18.357,40.2206 -1.131,10.595 -3.233,22.0557 -4.671,25.4681 -1.851,4.3894 5.284,11.5608 24.385,24.5139 32.793,22.2379 73.528,62.2355 82.379,80.8887 20.329,42.8403 1.217,70.7963 -100.398,146.863 -32.479,24.3122 -44.582,35.5053 -39.287,36.3319 22.088,3.4482 26.263,5.5716 26.263,13.3575 0,9.3704 0.17,9.3363 -41.353,8.3136 -36.542,-0.9001 -47.487,-7.1657 -35.552,-20.3534 4.023,-4.4458 17.855,-13.0429 30.738,-19.1049 46.847,-22.0442 128.488,-90.0857 144.743,-120.6348 12.066,-22.6735 0.19,-51.2391 -35.13,-84.5015 -13.657,-12.8605 -65.138,-49.1342 -69.735,-49.1342 -0.861,0 -12.271,6.4477 -25.353,14.3283 -13.082,7.8805 -28.993,15.4718 -35.358,16.8698 -14.136,3.1048 -14.21,4.6942 -1.282,27.308 5.658,9.8985 10.27,23.5798 10.247,30.4031 -0.124,37.388 -50.207,95.0958 -121.851,140.3989 -20.395,12.8965 -41.465,28.9794 -73.769,56.3098 -1.908,1.6143 10.495,2.935 27.564,2.935 35.473,0 40.002,1.743 40.002,15.3925 0,12.0893 -3.222,14.0565 -16.54,10.0991 z m 72.807,-299.76 c -4.299,-3.1435 -9.748,-6.3595 -12.109,-7.1465 -4.978,-1.6592 -0.735,-15.4086 4.754,-15.4086 2.025,0 11.854,6.495 21.84,14.4334 9.987,7.9384 22.047,14.4515 26.801,14.4736 4.755,0.02 20.038,-5.6534 33.964,-12.6122 24.326,-12.1556 25.219,-13.1554 22.758,-25.4635 -2.321,-11.6015 -1.718,-12.59 6.386,-10.4709 6.222,1.6272 10.83,-0.3448 15.121,-6.4716 9.189,-13.1186 7.928,-17.1243 -12.703,-40.3541 -16.781,-18.8942 -30.192,-41.8882 -36.419,-62.4423 -1.414,-4.6702 -4.9,-6.1821 -10.734,-4.6564 -5.819,1.5216 -7.915,4.5449 -6.418,9.2603 2.319,7.3064 -9.266,20.3148 -25.577,28.7183 -12.517,6.4489 -55.754,10.0553 -62.823,5.24 -3.174,-2.1627 -4.668,-6.8094 -3.318,-10.3259 1.967,-5.125 5.13,-5.626 15.943,-2.525 7.839,2.2481 15.025,2.3335 17.155,0.2038 2.129,-2.1295 -3.276,-4.8375 -12.905,-6.4642 -17.685,-2.9878 -32.399,-15.1803 -27.631,-22.8948 1.59,-2.5728 5.959,-3.596 9.71,-2.2738 3.75,1.3223 2.166,-1.3008 -3.521,-5.829 -5.685,-4.5282 -11.862,-8.2745 -13.727,-8.325 -1.864,-0.051 -2.794,-4.2599 -2.068,-9.3542 1.876,-13.1464 14.853,-14.4315 19.602,-1.9409 3.825,10.0602 12.008,15.3384 23.779,15.3384 4.584,0 3.4,-3.3658 -4.473,-12.7232 -5.889,-6.9977 -10.707,-14.4413 -10.707,-16.5412 0,-8.8458 14.528,-2.7425 26.535,11.148 12.025,13.9111 14.679,15.0042 37.656,15.5074 l 24.719,0.5415 1.241,-23.8324 1.242,-23.8323 -28.122,0.6387 c -28.18,0.6402 -26.635,6.8336 1.86,7.4497 15.572,0.3367 17.902,6.5451 3.785,10.0879 -17.452,4.3803 -51.084,-9.2602 -68.315,-27.707 -5.355,-5.7338 -8.633,-12.213 -7.283,-14.3979 3.779,-6.1148 -5.365,-11.2238 -34.198,-19.1082 -21.807,-5.9635 -27.017,-6.256 -29.919,-1.6805 -12.332,19.4425 -9.105,94.5716 5.932,138.1186 19.959,57.7979 62.422,123.6625 83.476,129.4777 15.327,4.2332 19.07,1.7181 8.711,-5.8557 z m 7.831,-146.6145 c 1.406,-2.2744 -0.108,-4.1353 -3.375,-4.1353 -3.261,0 -12.21,-1.064 -19.887,-2.3644 -13.209,-2.238 -13.527,-2.0168 -5.929,4.1353 9.033,7.3138 25.317,8.6328 29.191,2.3644 z m 117.8,-42.9015 c 30.007,-11.6266 36.116,-23.3723 29.805,-57.3037 -2.48,-13.3395 -8.568,-30.82 -13.528,-38.8455 l -9.018,-14.5919 -16.358,15.8255 c -23.862,23.0855 -33.175,43.8527 -35.478,79.1077 l -1.971,30.1998 11.93,-2.8003 c 6.561,-1.5401 22.139,-6.7563 34.618,-11.5916 z m -78.515,-54.0343 c 0,-4.3648 -7.936,-6.1984 -10.297,-2.3791 -1.429,2.3115 0.304,4.2027 3.85,4.2027 3.545,0 6.447,-0.8206 6.447,-1.8236 z m -2.068,-19.4341 c 9.098,-2.5686 20.465,-4.8843 25.259,-5.146 12.406,-0.6772 45.529,-40.8295 48.431,-58.7085 1.766,-10.8851 -1.286,-23.101 -12.411,-49.6771 -16.029,-38.2916 -24.413,-46.6121 -50.499,-50.1108 -40.211,-5.3936 -96.922,43.2253 -132.7,113.7645 -7.266,14.3243 -12.256,28.5305 -11.089,31.5696 3.137,8.1768 53.899,16.0858 70.22,10.9408 36.78,-11.5957 82.602,-21.1738 90.025,-18.8177 10.985,3.4861 7.917,12.0002 -4.815,13.3705 -24.218,2.6063 -57.57,10.6944 -57.57,13.961 0,4.9308 15.404,4.4284 35.149,-1.1463 z m -146.984,-34.5907 c 6.575,-24.1178 33.864,-64.9878 63.199,-94.6519 17.755,-17.9541 31.573,-33.3535 30.705,-34.2208 -2.519,-2.5191 -97.111,27.0471 -129.079,40.3455 -16.033,6.6703 -35.572,17.5245 -43.421,24.1207 l -14.268,11.9932 12.406,13.1469 c 6.823,7.2308 17.347,15.7287 23.386,18.8843 6.039,3.1556 13.483,8.1215 16.542,11.0354 20.719,19.7399 36.692,23.4233 40.53,9.3467 z m 374.006,21.0933 c -2.673,-6.9657 13.081,-35.5452 19.593,-35.5452 2.222,0 3.46,8.8012 2.764,19.6427 -1.075,16.7749 -2.621,19.8361 -10.583,20.9666 -5.539,0.7866 -10.318,-1.2687 -11.774,-5.0641 z m 74.651,-33.2103 c -12.825,-19.5736 0.605,-48.8135 16.4,-35.7051 11.812,9.803 6.635,45.7761 -6.588,45.7761 -1.768,0 -6.183,-4.5319 -9.812,-10.071 z m 9.233,-23.7868 c -1.32,-3.2989 -2.3,-2.3191 -2.498,2.4985 -0.18,4.3592 0.798,6.8016 2.171,5.4275 1.374,-1.3742 1.521,-4.9409 0.327,-7.926 z m -162.206,-6.9976 c -19.666,-8.9336 -37.224,-28.4504 -48.574,-53.995 -6.557,-14.759 -7.691,-23.844 -5.795,-46.4528 2.783,-33.194 17.842,-58.847 45.155,-76.922 15.582,-10.3119 20.195,-11.1915 58.638,-11.1812 34.68,0.012 45.216,1.609 62.402,9.4737 30.228,13.834 55.614,48.1188 56.508,76.3193 -2.026,32.3965 -13.894,58.8841 -35.289,79.1141 13.403,20.9133 -4.149,26.982 -16.287,9.8275 0,0 -3.418,3.3973 -24.163,11.8264 -29.98,12.1821 -68.342,13.0065 -92.595,1.99 z m 70.471,-12.9036 c 4.549,-1.9548 6.224,-3.6848 3.721,-3.8446 -2.502,-0.1601 -10.575,-12.1621 -17.941,-26.6715 -14.211,-27.9988 -35.393,-56.3254 -42.118,-56.3254 -24.7,17.2661 -15.996,77.9706 8.704,88.3101 11.192,3.0418 39.144,2.1801 47.634,-1.4686 z m 24.474,-6.6454 c 3.598,-1.3806 15.243,-7.1223 15.243,-7.1223 -9.963,-13.4338 1.155,-20.5047 12.898,-9.6452 2.733,-7.3322 -4.137,-13.8005 -13.671,-21.5213 -5.226,-4.2323 -7.954,-9.5737 -6.274,-12.2905 4.158,-6.7288 17.25,-5.9859 24.635,1.398 8.761,8.7615 10.017,8.0896 17.396,-9.3045 7.87,-18.5526 5.795,-41.5342 -4.959,-54.9134 -27.542,-34.2633 -47.814,-42.9306 -94.86,-40.5549 -23.961,1.21 -32.57,3.6228 -45.911,12.8685 -32.074,22.2271 -46.707,70.0515 -30.911,101.016 14.944,29.2923 19.234,28.7956 19.234,-2.2266 0,-48.946 19.041,-68.1041 40.959,-41.2116 16.032,19.6717 52.086,76.0405 52.086,81.4353 0,5.1395 4.445,5.7912 14.135,2.0725 z m -14.592,-58.1825 c -0.253,-1.8726 -0.164,-7.2526 0.197,-11.9556 0.426,-5.5702 -3.099,-10.2611 -10.114,-13.4573 -12.553,-5.7195 -10.113,-13.142 4.32,-13.142 19.079,0 31.249,37.1576 13.291,40.5803 -3.98,0.7586 -7.443,-0.1531 -7.694,-2.0254 z m -46.94,-60.6718 c -12.613,-9.2227 -3.926,-15.6824 10.246,-7.6188 6.758,3.8453 12.299,8.3872 12.313,10.093 0.05,5.0948 -14.37,3.5142 -22.559,-2.4742 z m -113.666,-41.7224 c -4.34,-5.2303 -4.164,-6.7919 0.994,-8.7712 11.499,-4.4122 33.942,-0.1504 33.942,6.4455 0,8.8443 -27.98,10.7071 -34.936,2.3257 z m 40.175,-25.4076 c -1.406,-2.2745 -6.252,-4.1353 -10.771,-4.1353 -4.518,0 -12.944,-4.7306 -18.726,-10.5123 -8.507,-8.5064 -9.558,-11.6627 -5.509,-16.5413 12.016,-14.4776 42.241,0.6987 47.705,23.9521 2.035,8.6623 1.145,11.3721 -3.736,11.3721 -3.524,0 -7.558,-1.8609 -8.963,-4.1353 z m -10.338,-20.6766 c 0,-2.2745 -1.971,-4.1354 -4.38,-4.1354 -2.409,0 -3.23,1.8609 -1.824,4.1354 1.406,2.2744 3.376,4.1354 4.38,4.1354 1.003,0 1.824,-1.861 1.824,-4.1354 z" fill="#030303" transform="translate(3.5915919,-16.390466) matrix(0.26458333,0,0,0.26458333,-3822.2204,-1416.884)"/>
</svg>
