<svg xmlns="http://www.w3.org/2000/svg" width="187.41704mm" height="244.79663mm" viewBox="0 0 187.41704 244.79663">
    <path d="m 14975.727,9666.373 c -21.118,-0.1413 -44.072,5.8977 -67.592,15.7579 -37.347,18.4136 -64.063,78.7999 -34.489,160.6562 29.574,81.8563 106.412,86.5199 152.247,75.5039 45.835,-11.016 64.776,-116.0287 34.22,-188.7988 -19.098,-45.4813 -49.19,-62.8836 -84.386,-63.1192 z m 114.525,291.7383 c 0,0 -60.535,10.0983 -103.197,22.8965 -42.662,12.7982 -72.54,56.8282 -73.323,90.5252 -0.782,33.698 48.664,125.398 63.407,160.035 14.742,34.638 9.625,76.595 -5.509,138.238 -20.034,32.514 126.224,37.885 196.448,9.469 56.294,-22.78 69.507,-8.97 89.17,-5.517 32.011,5.622 44.359,5.637 44.359,5.637 l 79.975,-60.352 c 0,0 30.139,-10.215 45.795,-17.729 15.656,-7.515 18.525,-40.39 18.525,-40.39 l 61.903,-64.194 c 0,0 -24.461,-52.282 -50.559,-98.326 -26.098,-46.045 -43.961,-67.848 -84.144,-102.9548 -40.184,-35.1069 -97.327,-49.315 -160.864,-55.0683 -40.453,-3.073 -83.238,2.8065 -121.986,17.7304 z" transform="translate(-87.330741,67.820306) matrix(0.26458333,0,0,0.26458333,-2953.709,-1929.0822) translate(-3313.5291,-2437.8203)" color="#000" overflow="visible" fill="#fff" paint-order="fill markers stroke"/>
    <path d="m 11650.101,7931.9861 c 6.394,-15.3052 13.973,-64.7751 3.405,-120.9975 -25.911,8.9645 -125.497,58.6026 -152.049,36.4046 -29.008,-24.251 30.893,-152.4248 54.786,-192.5383 47.262,-78.4233 60.016,-90.6572 88.527,-107.3655 29.59,-17.3388 76.709,-30.5406 116.5,-32.6362 12.055,-0.6353 31.527,-3.8069 43.273,-7.046 26.566,-7.3299 80.934,-15.535 100.373,-12.3351 145.018,19.874 177.113,72.1108 227.294,133.3761 26.069,33.0746 52.315,84.5955 59.019,115.8529 l 3.047,14.2096 -23.623,25.8459 c -16.955,18.5514 -23.623,28.0067 -23.623,33.4997 0,4.3355 -3.8,11.9807 -8.767,17.6377 -4.822,5.4923 -8.767,12.5242 -8.767,15.6252 0,6.9417 -10.282,18.429 -16.497,18.429 -2.517,0 -8.485,3.2877 -13.26,7.3071 -8.376,7.0468 -12.954,8.5197 -23.325,7.5009 -2.674,-0.2612 -14.509,8.2608 -26.302,18.9372 -24.432,22.1237 -42.119,34.9883 -55.811,40.5943 -7.885,3.2289 -13.28,3.2116 -32.3,-0.109 -25.858,-4.5065 -28.308,-5.5433 -28.308,-11.9587 0,-3.8995 3.347,-4.3818 22.059,-3.1803 l 22.059,1.4156 4.242,-10.1548 c 2.334,-5.5864 4.243,-15.4064 4.243,-21.8241 0,-14.0143 -12.196,-37.9419 -22.019,-43.1981 -8.498,-4.5481 -22.664,-2.0031 -32.676,5.8719 -4.105,3.2304 -8.971,5.8719 -10.812,5.8719 -1.843,0 -4.828,3.9166 -6.635,8.7039 -3.577,9.4796 -6.293,10.9172 -38.909,20.614 -15.905,4.7276 -32.39,6.9016 -60.081,7.9165 -34.859,1.2799 -39.483,0.8329 -53.417,-5.1613 -18.414,-7.9213 -23.936,-15.1986 -35.656,-46.9823 -4.948,-13.4222 -13.298,-27.8179 -16.42,-32.8678 -6.716,-10.867 -3.346,-14.7406 1.899,-14.7406 6.595,0 12.231,11.8029 27.645,42.9466 17.935,36.2353 23.399,40.0163 57.854,40.0226 19.651,0 22.64,-0.6729 22.577,-5.1088 -0.07,-5.0304 -4.502,-26.5078 -7.54,-36.5309 -1.01,-3.334 0.02,-5.1135 2.972,-5.1135 4.767,0 13.107,14.4001 19.14,33.0456 3.38,10.4481 4.165,11.0183 12.816,9.2952 25.114,-5.0037 46.228,-13.9021 49.375,-20.8084 5.577,-12.2419 -6.264,-99.4475 -18.136,-133.5652 -15.993,-45.9627 -49.395,-103.066 -69.57,-118.9375 -6.487,-5.1025 -10.148,-5.7354 -23.894,-4.1402 -13.865,1.6093 -46.618,9.278 -49.218,11.5226 -0.46,0.3969 1.86,7.5636 5.155,15.9279 10.314,26.1636 -0.07,27.2506 -13.572,1.4204 -8.075,-15.4542 -8.531,-15.7985 -18.508,-14.0276 -5.625,0.9991 -16.804,3.9519 -24.84,6.5644 -12.946,4.2061 -14.713,5.7754 -15.491,13.7492 -0.483,4.9511 3.025,21.3904 7.798,36.5309 9.637,30.5783 21.959,71.464 20.844,75.7826 -6.427,24.8942 -26.16,-37.5835 -41.27,-86.2441 -7.886,-25.3989 -7.224,-36.6972 2.707,-46.2121 4.508,-4.3198 9.686,-7.853 11.506,-7.853 2.155,0 2.726,-3.5974 1.636,-10.3085 -1.599,-9.8608 -1.156,-10.5117 10.185,-14.9656 8.044,-3.1607 12.426,-6.926 13.627,-11.7109 0.973,-3.8775 5.285,-8.649 9.582,-10.6042 8.348,-3.7983 37.34,-31.3163 32.993,-31.3163 -8.723,0 -43.584,13.2307 -59.102,19.5081 -51.497,20.8312 -71.751,58.9442 -66.172,87.0425 3.44,17.3264 7.145,29.2693 33.263,90.7129 3.093,4.785 17.963,50.7015 23.041,51.1201 1.74,0 11.711,-4.312 22.158,-9.5549 21.344,-10.7109 20.563,-8.3682 16.305,-48.8708 -1.424,-13.5406 -0.879,-21.0963 1.895,-26.3016 5.744,-10.7862 12.335,-9.3305 13.245,2.9215 0.418,5.6264 1.476,14.5695 2.352,19.8736 l 1.592,9.6435 8.762,-17.5318 c 8.006,-16.0228 17.558,-24.3118 22.416,-19.4548 1.008,1.0086 -0.541,8.0326 -3.442,15.6103 -7.868,20.5528 -13.369,41.8742 -13.408,51.9703 -0.108,27.5117 20.992,61.1534 40.879,65.1822 7.474,1.5144 10.228,3.6038 10.228,7.7565 0,6.6523 -6.709,8.5377 -20.91,5.8719 -13.873,-2.6014 -30.671,-20.712 -40.82,-44.009 -4.548,-10.438 -8.957,-18.611 -9.799,-18.1663 -16.072,8.2424 -28.341,14.4873 -45.409,23.1943 3.169,44.1046 10.472,99.5925 -8.09,138.1253 -8.023,16.6538 -24.441,11.7912 -16.826,-6.5234 z m 390.261,-38.9142 c 20.606,-16.7899 55.45,-51.8495 106.668,-107.3318 18.177,-19.6885 28.079,-32.7954 28.679,-37.9552 0.879,-7.5683 0.529,-7.4169 -8.766,3.8046 -42.407,51.1993 -112.98,126.0101 -130.926,138.7884 l -9.783,6.966 5.603,-9.7847 c 5.346,-9.3369 68.912,-80.4004 116.397,-130.1237 19.582,-20.505 22.163,-24.4585 20.996,-32.1476 -1.365,-8.9824 -27.522,-59.9833 -30.678,-59.8147 -0.963,0.047 -7.529,10.2427 -14.592,22.6477 -36.726,64.5101 -101.407,151.3518 -120.232,161.4258 -10.389,5.5606 -2.439,-7.711 31.995,-53.4172 18.93,-25.1268 46.757,-63.6482 61.838,-85.6057 15.08,-21.9575 30.285,-42.1746 33.788,-44.9298 l 6.368,-5.0107 -10.144,-15.1366 c -5.581,-8.3244 -10.688,-15.1366 -11.35,-15.1366 -0.662,0 -14.914,27.9454 -31.671,62.1008 -21.309,43.4326 -35.35,68.1437 -46.708,82.2019 -32.465,40.1778 -38.521,35.3914 -8.996,-7.1127 10.545,-15.1805 30.496,-49.7939 44.336,-76.9197 13.841,-27.1259 28.329,-53.0816 32.197,-57.6775 l 7.034,-8.3596 -5.859,-8.075 c -7.873,-10.8536 -52.563,-54.8634 -54.04,-53.2172 -0.644,0.7168 -3.937,15.2048 -7.318,32.1938 -10.24,51.459 -32.445,122.2268 -54.266,172.9493 -2.593,6.028 -4.108,10.9595 -3.367,10.9595 2.963,0 28.214,-49.9625 39.139,-77.4436 10.384,-26.1181 43.55,-100.7031 45.938,-103.3092 0.516,-0.5616 2.269,-0.1977 3.894,0.8047 3.867,2.3889 -0.838,17.7443 -17.976,58.668 -7.405,17.6792 -18.047,43.6961 -23.649,57.8116 -5.602,14.1154 -20.128,41.7322 -32.278,61.3706 -21.768,35.1835 -35.689,54.5129 -33.083,45.9344 0.733,-2.4116 2.334,-7.6718 3.557,-11.6888 l 2.224,-7.308 -5.771,7.308 c -12.415,15.7146 -15.618,26.3015 -7.959,26.3015 9.556,0 21.862,9.3392 29.516,22.3983 l 7.97,13.6002 4.402,-7.0405 c 2.422,-3.8728 25.559,-28.7391 51.417,-55.2595 25.858,-26.5212 59.061,-60.6813 73.785,-75.9073 25.033,-25.8899 35.831,-32.4519 27.363,-16.6299 -6.847,12.794 -65.925,77.0539 -110.019,119.6716 -41.979,40.5708 -43.954,42.9927 -42.84,52.5311 0.642,5.4993 -0.175,14.8629 -1.816,20.8046 l -2.984,10.8034 10.755,-6.5181 c 5.915,-3.5858 19.96,-14.019 31.212,-23.1849 z m 74.521,-45.2129 c 0,-2.5074 -1.315,-3.7434 -2.922,-2.7505 -1.607,0.9929 -2.923,3.0438 -2.923,4.5567 0,1.5121 1.316,2.7481 2.923,2.7481 1.607,0 2.922,-2.0493 2.922,-4.5543 z m -171.576,-15.9021 c 0.994,-3.7982 0.09,-5.8452 -2.582,-5.8452 -2.26,0 -4.11,2.6305 -4.11,5.8452 0,3.2156 1.162,5.846 2.582,5.846 1.42,0 3.269,-2.6304 4.11,-5.846 z m -366.324,-10.3859 c 47.259,-14.3829 71.533,-26.4009 71.533,-29.5223 -16.095,-47.345 -41.198,-83.3122 -53.833,-134.9214 l -5.012,-21.8289 c -27.275,49.5759 -91.361,177.6487 -69.813,192.4085 5.834,4.2657 7.808,8.8713 57.125,-6.1359 z m 391.45,-80.2085 c 15.989,-64.6913 21.065,-94.239 27.862,-162.1945 3.431,-34.302 3.616,-44.5839 0.846,-47.2756 -4.056,-3.9386 -40.117,-16.4824 -41.994,-14.6056 -0.683,0.6839 0.09,9.5251 1.722,19.6493 6.077,37.7364 6.841,90.8753 2.161,150.3613 -6.667,84.7461 -8.601,117.0913 -6.903,115.4365 0.823,-0.8047 8.161,-28.4215 16.306,-61.3714 z m -29.152,27.7619 c 0.18,-9.6443 2.278,-38.5764 4.664,-64.2929 4.444,-47.9194 5.65,-157.3437 1.964,-178.2667 -2.015,-11.4418 -2.339,-11.7069 -15.174,-12.452 -19.949,-1.1576 -21.329,0.7757 -16.341,22.9002 2.329,10.3258 5.672,30.6112 7.428,45.0765 3.757,30.9492 11.743,158.5279 12.162,194.3004 0.331,28.2921 4.749,22.232 5.297,-7.2655 z m -24.592,9.4992 c -3.267,-20.465 -24.787,-119.3399 -29.736,-136.6246 -5.542,-19.356 -24.914,-68.6958 -33.961,-86.4982 l -6.528,-12.8465 -10.588,7.5362 -10.589,7.533 15.83,20.9512 c 18.59,24.6036 25.922,39.2642 42.105,84.1838 8.899,24.7016 32.014,116.4247 32.014,127.0375 0,0.6314 0.773,1.1466 1.718,1.1466 0.945,0 0.826,-5.5895 -0.265,-12.419 z m 87.737,-79.6373 c 7.055,-20.8948 18.679,-59.0327 25.829,-84.7492 7.151,-25.7189 13.871,-48.9148 14.935,-51.5515 1.458,-3.614 -1.967,-7.0224 -13.954,-13.881 -8.739,-4.999 -17.222,-9.089 -18.853,-9.089 -1.795,0 -3.133,12.3963 -3.39,31.4151 -0.708,52.3146 -10.292,122.3562 -22.266,162.7254 -2.351,7.9275 -4.224,16.4754 -4.161,18.9961 0.169,6.7659 7.417,-11.0929 21.86,-53.8659 z m -86.244,-31.012 c -7.085,-97.1306 -13.462,-148.7174 -18.383,-148.7174 -1.62,0 -12.693,4.6884 -24.607,10.4199 l -21.661,10.4176 6.246,9.3086 c 19.088,28.4459 41.108,84.7359 52.552,134.3432 3.629,15.7287 7.12,28.0756 7.759,27.4372 0.639,-0.64 -0.219,-20.0838 -1.906,-43.2091 z m -67.934,-49.8966 c -7.888,-17.1561 -26.854,-47.7579 -31.305,-50.5084 -2.812,-1.7387 -18.312,13.4292 -18.121,17.7318 0.05,1.225 4.417,3.6335 9.696,5.3542 6.296,2.0494 15.619,10.3721 27.091,24.1802 9.621,11.5814 18.007,20.5442 18.635,19.9152 0.629,-0.629 -2.07,-8.1322 -5.996,-16.673 z m -137.26,-15.7138 c 10.778,-2.5097 26.915,-6.4547 35.862,-8.7667 8.945,-2.3105 19.795,-4.2022 24.109,-4.2022 4.315,0 7.845,-1.3262 7.845,-2.9481 0,-3.3685 -23.251,-1.4219 -52.603,4.4037 -29.457,5.8476 -43.836,10.2004 -43.836,13.2716 0,3.8947 5.922,3.5332 28.623,-1.7583 z m 4.985,-24.6578 c 5.635,-2.4218 5.614,-2.5183 -0.559,-2.7175 -3.522,-0.1098 -7.216,1.1113 -8.209,2.7175 -2.136,3.4563 0.723,3.4563 8.768,0 z m 79.849,-12.8418 c 2.504,-2.505 3.974,-5.1245 3.265,-5.8217 -0.708,-0.6964 -13.78,1.8235 -29.05,5.6045 l -27.763,6.8718 24.498,-1.0525 c 17.169,-0.7364 25.859,-2.4108 29.05,-5.6021 z m -31.562,-10.547 c 13.108,-1.7952 27.332,-2.4987 31.609,-1.567 6.155,1.3435 11.433,-1.0548 25.311,-11.4959 9.643,-7.2577 26.419,-16.702 37.279,-20.9873 10.859,-4.2846 19.216,-8.3197 18.571,-8.9643 -1.816,-1.8172 -47.943,4.8656 -67.54,9.7846 -19.658,4.9331 -60.451,23.9825 -71.6,33.4338 -4.497,3.814 -5.414,5.5912 -2.384,4.6265 2.706,-0.8611 15.645,-3.0351 28.754,-4.8304 z m 79.422,317.9696 c -1.928,-1.9293 -3.506,-6.6193 -3.506,-10.4223 0,-5.8217 1.273,-6.7707 8.036,-5.9903 5.911,0.6792 8.297,2.7685 9.023,7.8993 1.392,9.8435 -6.97,15.095 -13.553,8.5133 z m 24.911,-14.4205 c -6.126,-3.4273 -6.563,-12.2387 -0.841,-16.9859 5.64,-4.6822 16.259,0.9419 16.259,8.6113 0,7.3511 -8.751,12.1054 -15.418,8.3746 z m -33.395,-17.7318 c -8.36,-10.5533 -5.04,-22.7904 6.183,-22.7904 10.002,0 15.037,7.3338 11.659,16.9805 -3.028,8.6443 -13.02,11.899 -17.842,5.8099 z m 35.452,-17.9027 c -2.206,-5.7488 3.822,-19.498 8.548,-19.498 7.682,0 11.856,8.1973 8.228,16.1601 -3.544,7.7769 -14.255,9.9093 -16.776,3.3379 z m -85.544,-13.4747 c -19.205,-19.2055 -26.487,-39.8014 -21.585,-61.0405 1.806,-7.8201 2.662,-16.7232 1.904,-19.7858 -1.524,-6.1495 8.573,-24.5613 13.469,-24.5613 1.983,0 2.376,3.8493 1.091,10.6921 l -2.005,10.6913 10.816,-8.2498 c 9.856,-7.5181 10.659,-9.1816 9.041,-18.7576 -1.4,-8.2875 -0.455,-11.9281 4.468,-17.2103 7.09,-7.6098 11.672,-7.1628 16.066,1.567 1.67,3.3183 4.785,8.1385 6.922,10.7141 3.257,3.9253 3.12,5.8475 -0.849,11.9038 -5.47,8.3486 -16.057,19.2634 -32.556,33.5655 -15.048,13.0457 -7.142,9.8937 21.872,-8.7172 14.019,-8.9926 22.606,-16.3421 21.738,-18.6016 -1.984,-5.1707 5.819,-11.0183 11.694,-8.7635 12.033,4.6163 12.814,24.5464 0.962,24.5464 -3.432,0 -10.247,3.8508 -15.146,8.5572 -4.898,4.7034 -17.378,13.681 -27.733,19.9474 -18.589,11.2481 -25.082,18.2533 -16.921,18.2533 5.09,0 28.143,-12.0481 45.715,-23.893 7.296,-4.9183 15.226,-8.0789 18.269,-7.2813 2.959,0.7741 4.735,0.3623 3.947,-0.9137 -2.257,-3.6516 6.715,-9.6639 11.617,-7.7832 2.431,0.9341 4.42,5.0673 4.42,9.1863 0,7.1362 -3.089,9.9133 -12.578,11.3054 -2.347,0.3435 -8.696,4.0045 -14.11,8.1337 -5.413,4.1293 -19.048,12.3509 -30.299,18.2706 l -20.458,10.7619 25.877,-1.4658 c 23.649,-1.3396 26.002,-0.9866 27.33,4.0916 0.876,3.3512 4.53,5.9158 9.193,6.4554 6.068,0.7035 7.739,2.4744 7.739,8.2012 0,6.1699 -1.364,7.3079 -8.767,7.3079 -7.264,0 -8.725,-1.149 -8.522,-6.7025 0.184,-5.0154 -0.919,-6.2209 -4.384,-4.7911 -2.546,1.0493 -10.148,2.5857 -16.894,3.41 -9.693,1.1882 -12.45,2.803 -13.15,7.715 -1.666,11.6716 -12.316,9.118 -28.193,-6.7589 z m 71.475,-25.1033 c -2.457,-2.4595 -3.682,-6.733 -2.723,-9.4991 1.825,-5.2586 9.266,-12.336 12.969,-12.336 3.627,0 11.34,8.9447 11.34,13.1508 0,5.1182 -8.034,13.1516 -13.151,13.1516 -2.182,0 -5.977,-2.0101 -8.435,-4.4673 z m -89.116,-97.1635 c -3.614,-6.7527 1.065,-15.266 8.39,-15.266 7.225,0 9.769,4.4845 7.552,13.3178 -2.131,8.4891 -11.808,9.6725 -15.942,1.9482 z m 56.08,-11.2788 c -2.432,-6.3385 2.631,-13.9993 9.982,-15.102 6.733,-1.0078 9.917,4.7762 7.569,13.7562 -1.954,7.4695 -14.822,8.4585 -17.551,1.3458 z m -38.968,-8.4584 c -5.682,-6.8476 0.979,-19.6015 9.598,-18.378 7.558,1.0736 10.46,11.9908 4.953,18.6258 -4.528,5.4578 -9.893,5.3653 -14.551,-0.2478 z m 21.651,-17.2761 c -3.123,-8.1401 0.273,-14.7703 8.028,-15.6715 8.935,-1.0407 12.847,5.7009 8.271,14.2512 -3.53,6.5973 -13.963,7.5047 -16.299,1.4203 z m -47.747,-5.8562 c -1.927,-2.3215 -3.075,-7.253 -2.549,-10.9595 0.736,-5.1967 3.099,-6.9409 10.352,-7.6429 8.004,-0.7733 9.677,0.1977 11.285,6.6131 3.308,13.1775 -10.766,22.0186 -19.088,11.9893 z m 33.683,-14.9813 c -7.943,-7.9432 -3.541,-18.7859 7.626,-18.7859 6.606,0 10.235,13.07 5.285,19.0337 -4.582,5.5213 -7.193,5.4703 -12.911,-0.2478 z m -142.023,-134.133 c -47.011,-16.5425 -75.326,-37.0942 -93.301,-75.2261 -22.849,-48.877 -25.258,-82.5511 -10.691,-126.3852 9.688,-29.1533 22.265,-48.9838 51.429,-63.6584 46.782,-23.5402 93.862,-17.4591 129.476,21.0091 19.997,21.5982 32.06,37.6238 38.844,63.7418 4.376,16.844 4.591,22.8065 10.119,24.1108 9.041,2.1348 10.375,7.5989 2.982,12.2151 -5.136,3.2085 -6.039,6.7244 -6.039,23.5268 0,11.2199 1.262,19.7529 2.922,19.7529 4.344,0 3.538,11.0332 -1.004,13.7359 -2.16,1.287 -6.088,8.7674 -8.73,16.6275 -6.838,20.3512 -17.353,37.1646 -30.887,49.39 -24.64,22.2602 -56.362,29.1924 -85.12,21.1598 z m 58.982,-21.6704 c 18.248,-11.5728 28.127,-22.49 36.532,-40.3731 7.128,-15.1672 7.131,-15.2072 1.33,-21.0085 -5.802,-5.8021 -5.814,-5.7998 -6.723,0.5827 -0.501,3.5183 -2.883,6.3958 -5.294,6.3958 -2.411,0 -5.379,2.4399 -6.594,5.4202 -1.253,3.0712 -3.998,4.7346 -6.334,3.8382 -2.268,-0.8705 -4.882,0.3992 -5.812,2.8187 -1.058,2.7575 -3.74,3.7504 -7.185,2.6564 -3.97,-1.2604 -5.947,-0.024 -7.115,4.4429 -1.198,4.5786 -3.114,5.7143 -7.361,4.3661 -4.314,-1.3678 -5.636,-0.5263 -5.319,3.3928 0.276,3.4038 -1.604,5.2123 -5.422,5.2123 -5.169,0 -5.838,-1.927 -5.779,-16.6471 0.09,-23.6343 11.039,-38.821 35.02,-48.59 9.635,-3.9261 23.106,-7.2899 29.937,-7.4789 11.517,-0.32 12.419,-0.9294 12.42,-8.3816 0,-5.9135 -1.448,-8.0373 -5.486,-8.0373 -8.883,0 -13.148,-7.2483 -7.556,-12.8394 2.581,-2.5819 6.086,-4.6947 7.789,-4.6947 2.887,0 1.499,-19.3412 -1.612,-22.4508 -0.698,-0.6996 -6.175,0.7803 -12.171,3.2853 -13.942,5.8233 -16.032,5.7268 -16.032,-0.7521 0,-3.1536 2.681,-11.0756 10.223,-13.7706 l 12.514,-6.4316 -7.193,-12.9375 c -9.224,-16.5891 -37.632,-47.4926 -52.578,-51.0872 -89.029,-21.4116 -140.269,55.7541 -126.333,128.112 13.834,59.0964 61.17,111.4959 122.611,113.3166 12.945,0.047 18.924,-1.6368 29.523,-8.3596 z m -65.153,-116.576 c 0.401,-8.0359 21.205,-18.1278 27.665,-17.4387 12.259,1.3076 3.865,11.8671 -6.527,18.8699 -11.809,7.9581 -21.661,9.0356 -21.138,-1.4312 z m 483.7,84.1374 c -7.481,-3.0226 -12.724,-16.5875 -10.635,-27.5164 2.028,-10.6129 12.736,-17.4118 23.645,-15.0135 l 8.501,1.865 8.211,-34.4863 c 4.515,-18.9654 9.38,-35.8008 10.809,-37.4078 14.5,-4.5997 11.158,12.7671 20.717,13.1971 9.112,0.063 14.772,4.4735 12.694,9.8874 -2.115,5.5127 -19.491,6.4546 -24.612,1.3349 -3.713,-3.7152 -3.331,-4.9426 -11.045,35.4902 -6.161,32.2919 -13.522,48.8841 -23.34,52.6165 -6.26,3.4073 -9.652,2.1686 -14.945,0.033 z m -150.365,-87.4934 c -12.972,-12.9712 -9.876,-31.9743 5.395,-33.1248 8.5,-0.64 8.721,-12.3877 0.674,-35.7773 -3.215,-9.3431 -5.845,-19.2501 -5.845,-22.0163 0,-2.7661 -1.958,-6.6546 -4.351,-8.6427 -6.889,-5.7158 -2.149,-8.9667 10.199,-6.9919 14.925,2.3874 30.435,-6.7636 35.022,-20.6618 3.557,-10.7799 9.714,-14.9029 14.128,-9.46 5.719,7.053 18.746,53.7475 20.201,72.4086 1.707,21.8814 -1.553,30.7053 -12.938,35.0338 -10.57,4.0202 -20.519,-3.0634 -23.018,-16.3836 -2.184,-11.6427 4.26,-21.8242 13.814,-21.8242 6.594,0 6.631,-1.4791 0.566,-23.2876 l -4.824,-17.3553 -12.236,7.1699 c -6.73,3.9449 -15.736,7.1714 -20.016,7.1714 -9.576,0 -9.597,1.1686 -0.374,21.3136 8.343,18.2227 14.358,59.6194 10.238,70.4557 -9.228,15.1238 -17.111,11.4005 -26.635,1.9725 z m -105.207,-99.3611 c -14.03,-14.03 -10.9,-35.2949 5.192,-35.2949 4.886,0 6.721,-1.6815 6.721,-6.1527 0,-15.4197 -18.465,-71.3106 -31.121,-94.2045 -6.728,-12.1689 -0.965,-16.833 10.408,-8.4255 5.305,3.9237 15.574,7.1895 27.052,8.6051 15.788,1.9489 18.502,3.141 18.502,8.1251 0,5.1159 -2.24,5.9488 -18.049,6.7048 l -18.048,0.8659 8.483,18.1309 c 9.688,20.7034 19.073,55.0761 21.929,80.3165 1.854,16.3883 1.552,17.5592 -6.074,23.5582 -10.61,8.3463 -14.793,7.9738 -24.995,-2.2289 z m 71.69,-74.614 c -11.932,-11.9344 -7.602,-27.8976 7.568,-27.8976 h 8.69 l -1.781,-16.8024 c -0.978,-9.2435 -4.278,-29.5046 -7.331,-45.0271 -6.114,-31.0817 -6.873,-45.5282 -2.738,-52.0683 2.316,-3.6625 3.731,-3.3669 9.453,1.9764 10.472,9.7761 20.288,10.9964 29.591,3.6783 10.803,-8.4977 16.709,-5.8829 14.755,6.5362 -0.835,5.308 1.21,24.675 4.543,43.0404 6.059,33.3813 7.87,68.9351 3.824,75.0768 -3.434,5.2138 -14.596,7.5502 -20.632,4.3221 -7.422,-3.9739 -13.301,-18.8697 -11.026,-27.9368 1.15,-4.581 4.601,-8.0114 9.228,-9.1729 7.01,-1.76 7.348,-2.7615 6.532,-19.3474 l -0.861,-17.491 -13.253,-0.5169 -13.253,-0.5176 3.983,19.0886 c 5.582,26.7557 3.691,60.7464 -3.678,66.1359 -8.188,5.9864 -15.502,5.0327 -23.614,-3.0767 z m 44.978,-97.304 c 1.471,-2.814 2.028,-9.3768 1.237,-14.5868 -1.231,-8.1032 -2.387,-9.2317 -8.003,-7.8224 -3.61,0.9051 -11.352,-0.3553 -17.206,-2.8014 -10.388,-8.0266 -0.345,23.5962 3.142,26.6702 6.992,5.2515 17.713,4.4978 20.83,-1.4596 z" fill="#030303" transform="translate(-87.330741,67.820306) matrix(0.26458333,0,0,0.26458333,-2953.709,-1929.0822)"/>
</svg>
