<svg xmlns="http://www.w3.org/2000/svg" width="301.25098mm" height="265.3331mm" viewBox="0 0 301.25098 265.3331"><path fill="#fff" d="m 16947.912,5713.2441 c -51.82,-0.1528 -83.652,28.3762 -93.435,111.3887 -4.642,52.1126 30.503,99.6566 85.033,102.0879 54.53,2.4313 82.314,-51.4519 92,-100.2324 9.687,-48.7804 -23.701,-111.1004 -78.522,-113.1406 -1.713,-0.064 -3.404,-0.099 -5.076,-0.1036 z m 279.244,79.877 c -5.064,0 -10.245,0.2996 -15.519,0.9082 -56.264,6.4917 -77.329,47.6169 -83.469,107.5762 0,0 -1.784,83.3399 77.562,99.291 79.346,15.951 114.929,-51.9939 111.426,-118.5801 -3.175,-60.3437 -41.049,-89.1553 -90,-89.1953 z m -580.279,89.1055 c -3.979,0.052 -7.839,0.4742 -11.533,1.3007 -47.281,10.5793 -68.462,41.8403 -67.41,140.0118 30.111,78.3255 103.236,86.2273 147.345,59.5214 44.109,-26.7059 41.864,-51.1469 41.924,-102.8222 0.06,-47.6382 -63.372,-98.6244 -110.326,-98.0117 z m 347.518,99.3476 c -13.862,-0.1595 -28.635,1.3225 -43.467,3.3106 -67.805,9.0883 -86.024,6.8625 -88.414,97.3769 -2.391,90.5143 1.03,226.0949 -16.362,273.2246 0,0 122.295,45.0519 168.317,-40.3808 46.022,-85.4327 38.681,-96.7038 54.756,-217.2637 12.559,-94.1874 -25.324,-115.698 -74.83,-116.2676 z m 241.714,54.457 c -4.308,-0.05 -8.694,0.033 -13.138,0.2305 -71.102,3.1531 -87.058,22.0239 -94.877,65.7676 -7.819,43.7437 -43.618,179.0621 -39.496,260.6719 40.601,115.5521 151.322,52.4804 151.322,52.4804 0,0 22.463,-74.0368 66.519,-215.1425 41.303,-132.2867 -5.706,-163.2521 -70.33,-164.0079 z m -497.527,84.627 c -11.94,-0.01 -25.794,2.439 -41.869,7.5859 -64.301,20.5879 -70.874,51.4695 -59.176,122.0879 11.698,70.6184 36.607,156.8846 40.356,271.7676 164.708,-0.2982 152.058,-52.9336 152.058,-52.9336 0,0 -14.222,-239.0793 -27.205,-288.9726 -9.738,-37.4201 -28.343,-59.5135 -64.164,-59.5352 z" color="#000" overflow="visible" paint-order="fill markers stroke" transform="translate(205.80996,111.49993) matrix(0.26458333,0,0,0.26458333,-4532.6294,-1263.9341) translate(-33.44289,-1165.0869)"/><path fill="#030303" d="m 18347.506,5568.6777 c -0.914,0.031 -1.814,0.6173 -3.242,2.002 -1.932,1.8714 -2.896,2.2949 -4.389,1.9199 -2.138,-0.5365 -8.992,1.2679 -11.799,3.1074 -1.72,1.1271 -1.797,1.4921 -1.336,6.2774 0.27,2.7937 1.168,7.264 1.998,9.9336 1.649,5.3041 1.454,7.7744 -0.486,6.164 -0.623,-0.5165 -1.131,-1.6287 -1.131,-2.4726 0,-2.1238 -3.107,-8.1457 -4.619,-8.9551 -0.684,-0.3662 -3.53,-0.9013 -6.324,-1.1875 -4.647,-0.476 -5.241,-0.3685 -6.955,1.2422 -1.496,1.4049 -1.875,2.5113 -1.875,5.4687 0.06,7.3521 5.93,13.9947 0,19.4864 l -2.655,2.2168 1.368,5.1289 c 5.274,18.8963 27.749,42.9621 46.236,28.5371 2.866,-0.7948 5.52,-1.6364 5.896,-1.8692 0.376,-0.2328 1.066,0.034 1.528,0.5918 3.592,77.9562 3.565,133.9496 -4.885,186.4219 -8.279,51.4153 -34.987,108.9889 -59.662,159.6406 0,0.1051 -1.864,3.7528 -4.143,8.1055 l -4.144,7.9141 -0.528,-3.295 c -0.51,-3.1925 -0.597,-3.2785 -2.89,-2.8593 -8.299,1.3472 -14.417,-7.9628 -20.168,5.7793 -0.564,1.8821 -1.46,4.4485 -1.992,5.7031 -0.531,1.2549 -1.095,2.9662 -1.254,3.8027 -0.262,1.393 -0.733,1.4889 -5.588,1.1406 -36.309,-2.3556 -64.463,2.1224 -98.026,9.125 -14,3.3097 -19.887,16.0417 -33.642,11.9278 -1.182,-0.9692 -3.887,-2.8693 -6.008,-4.2227 -4.095,-2.6126 -19.697,-18.6413 -21.617,-22.207 -0.628,-1.1654 -3.085,-4.3143 -5.459,-6.9981 -19.475,-22.1906 -34.866,-44.4966 -47.035,-71.6542 -13.64,-30.5377 -14.521,-63.8994 -13.621,-96.5782 2.301,-25.3699 10.049,-49.1652 17.808,-74.5254 11.21,-25.8445 23.666,-51.1425 37.824,-73.457 3.044,-3.23 7.682,-14.341 12.723,-10.3457 2.543,2.291 9.338,4.8655 14.086,5.334 5.526,0.5454 16.297,-0.6414 19.799,-2.1817 11.359,-5.0418 27.79,-15.1048 28.357,-30.3515 0.449,-8.0447 -8.016,-9.1031 -12.633,-6.7676 -0.391,0.7015 -1.093,1.0085 -1.589,0.7012 -1.747,-1.2902 -0.293,-12.1798 2.537,-14.8379 9.12,-9.8295 8.731,-23.3363 -5.037,-22.5918 l -3.815,0.4512 0.506,-2.6914 c 0.648,-3.7839 -1.061,-10.1002 -11.262,-7.0899 -2.596,0.7299 -3.099,0.6443 -4.402,-0.7539 -0.809,-0.8682 -2.394,-1.5781 -3.52,-1.5781 -10.606,-0.3025 -10.38,-5.5356 -19.564,4.5137 -1.254,0.6008 -3.768,2.6466 -5.588,4.5449 -3.13,3.2664 -3.365,3.3744 -4.355,2.0195 -0.911,-1.245 -0.833,-1.8115 0.582,-4.332 3.633,-6.5219 -3.43,-14.028 -11.842,-8.0782 -13.424,11.1502 -14.697,15.5503 -19.51,25.6993 -1.339,3.3679 -1.565,5.0789 -1.203,9.0761 0.671,5.4894 13.423,14.6296 21.971,23.0489 7.751,3.1997 -7.871,10.2122 -20.549,29.2636 -25.776,47.2252 -35.814,59.5709 -51.955,144.0645 -4.931,25.8183 -4.6,62.2526 5.566,92.2324 12.915,50.4758 38.071,74.4719 47.766,88.1172 20.414,24.1299 31.845,34.5286 52.748,50.9648 2.016,0.5061 2.122,0.7306 1.728,3.6602 -2.194,13.3647 -10.856,29.5481 -11.158,47.4316 -0.02,1.8275 -2.307,4.0847 -6.101,6.0274 -15.748,8.0616 -27.73,14.5353 -45.248,24.2187 -9.041,4.3758 -18.606,9.5231 -23.194,12.4825 -5.577,3.5973 -7.499,3.8538 -15.209,2.0273 -8.567,-2.0292 -12.576,-1.7923 -30.42,1.793 -3.973,0.7984 -11.636,3.2143 -17.031,5.3691 -36.421,14.5059 -57.354,14.9233 -85.25,36.4629 l -13.641,-0.6465 c 12.729,-19.2614 22.747,-35.8546 23.866,-47.8789 7.55,2.2259 15.438,3.8225 23.593,4.6621 v 0 c 74.14,8.8269 111.979,-62.0172 111.311,-125.1836 -1.762,-11.8012 -3.853,-22.4816 -9.098,-33.6562 -1.751,-5.2157 -1.806,-5.7842 -0.713,-7.4512 1.483,-2.2719 1.494,-4.3655 0.03,-7.1973 -1.473,-2.848 -3.688,-4.0146 -6.467,-3.4043 -1.954,0.4291 -2.338,0.1964 -3.364,-2.041 -13.393,-27.0421 -40.919,-47.9641 -71.576,-54.7519 -12.414,-5.1174 -28.124,-6.6877 -46.662,1.332 -1.538,-1.3917 -2.078,-1.419 -10.73,-0.5273 -9.378,0.9665 -11.949,1.8037 -21.27,6.9199 -4.048,2.2217 -6.81,4.5805 -17.681,15.0996 -3.65,4.7114 -7.038,10.5565 -10.116,17.1367 -43.246,64.0878 -24.217,96.4572 -112.404,183.4336 -15.938,-15.6717 -32.465,-34.55 -36.256,-68.0312 -0.479,-3.1883 -1.314,-7.3366 -1.855,-9.2188 -0.567,-1.9734 -1.058,-8.4113 -1.164,-15.209 -0.101,-6.4829 -0.284,-14.1834 -0.407,-17.1113 -0.862,-27.1192 14.691,-72.7975 28.047,-95.0977 l 1.979,-2.4804 2.875,1.4922 c 3.827,1.9873 9.685,1.3237 15.052,-1.7051 2.153,-1.2152 4.433,-2.209 5.065,-2.209 0.632,0 2.505,-1.2831 4.164,-2.8516 4.295,-4.0587 7.934,-7.0351 8.602,-7.0351 1.038,0 7.634,-13.5409 7.634,-15.67 0,-1.1442 -0.582,-2.7239 -1.293,-3.5097 -1.364,-1.5067 -1.433,-1.0971 1.407,-8.0527 1.949,-4.7735 -4.247,-8.6754 -9.163,-5.7715 -2.635,1.5562 -3.881,0.9421 -2.517,-1.2403 0.507,-0.8118 0.92,-2.123 0.92,-2.914 0,-0.7912 0.513,-2.6665 1.14,-4.168 2.413,-5.7766 0.907,-10.7132 -3.761,-12.3184 -2.822,-0.97 -6.513,-0.4066 -8.367,1.2774 -0.396,0.3612 -1.338,0.6562 -2.09,0.6562 -1,0 -1.369,-0.5866 -1.369,-2.1777 0,-1.1985 -0.71,-3.0816 -1.577,-4.1836 -1.444,-1.8359 -2.039,-2.0039 -7.097,-2.0039 -3.037,0 -5.773,0.2567 -6.084,0.5703 -0.308,0.3137 -1.583,0.9209 -2.832,1.3496 -1.938,0.6649 -2.642,1.7261 -4.787,7.2246 -1.383,3.5447 -3.11,8.4983 -3.836,11.0078 -0.727,2.5096 -1.778,5.5891 -2.338,6.8438 -0.561,1.2549 -1.375,5.0192 -1.809,8.3652 -0.434,3.346 -1.474,8.6502 -2.312,11.7871 -0.837,3.1369 -1.537,6.5027 -1.537,7.4786 -0.02,2.9281 -1.691,1.4409 -2.026,-1.8047 -0.473,-4.5796 2.397,-18.7925 4.729,-23.4161 0.597,-1.1842 1.086,-3.2941 1.086,-4.6894 0,-1.3952 0.685,-4.1344 1.521,-6.0859 0.838,-1.9514 1.522,-4.1329 1.522,-4.8497 0,-0.7164 1.547,-3.8153 3.439,-6.8847 2.069,-3.3554 3.276,-6.1061 3.024,-6.8985 -0.667,-2.0982 -3.077,-3.8824 -6.196,-4.5859 -2.314,-0.5217 -3.359,-0.3577 -5.277,0.8281 -1.317,0.8134 -2.952,1.4784 -3.635,1.4786 -0.682,-10e-5 -1.242,0.3925 -1.242,0.871 0,0.4785 -1.188,1.9313 -2.641,3.2305 -7.716,6.9003 -18.705,38.8582 -18.595,54.0742 0.04,5.3932 2.144,10.5301 4.527,11.041 2.927,0.6278 7.584,3.2098 7.584,4.2051 0,0.4935 -0.629,1.7136 -1.395,2.711 -13.575,30.4129 -16.429,48.9213 -22.9,75.3027 -0.967,11.4534 -1.223,37.3215 -0.463,46.6641 0.493,6.0461 0.998,9.5644 3.441,23.955 1.231,7.2519 6.751,23.9019 9.075,27.375 1.236,1.85 2.134,3.705 3.681,7.6055 6.193,14.6058 19.186,27.3479 31.18,39.2422 -9.997,9.29 -21.125,19.1564 -33.609,29.7129 -36.378,30.7608 -27.983,55.5515 -0.573,42.0215 l 50.682,-25.0157 c 37.07,-18.2982 7.756,32.0847 -33.414,63.1739 -29.291,22.1187 -19.174,43.6939 11.664,45.6601 15.044,0.9592 45.313,-9.2446 59.795,-25.9511 20.919,-24.1322 27.377,-22.4898 20.217,-3.2852 -3.854,10.3369 -10.67,23.8808 -7.02,59.2578 3.651,35.3769 34.535,55.0866 39.168,-22.8691 2.184,-36.7475 27.368,-75.5718 49.522,-108.6914 1.366,0.073 2.754,0.1465 3.968,0.2011 7.712,0.3468 12.711,0.895 13.405,1.4707 1.854,1.5385 2.117,6.4423 0.853,15.8614 -1.364,10.1592 -0.962,25.6225 0.908,34.8164 0.598,2.9398 1.42,7.4768 1.827,10.082 8.888,54.4801 27.547,109.8691 35.699,170.5488 5.321,28.3702 7.688,56.3436 12.222,87.4532 1.315,15.9727 3.287,32.0561 4.231,34.5156 0.297,0.7716 1.941,2.0399 3.656,2.8183 v 0 c 6.992,3.1754 11.606,1.2874 15.049,-6.1562 2.589,-35.0756 -5.789,-82.3205 -12.338,-124.334 -6.592,-50.5333 -24.152,-113.5971 -37.646,-171.4824 -1.986,-6.61 -2.648,-12.9899 -2.993,-28.8985 -6.682,-33.9102 22.719,-42.3539 85.151,-60.8632 5.852,-2.5409 17.808,-5.3013 22.861,-5.2793 6.12,0.027 8.971,1.7121 18.774,11.0996 30.496,48.9763 36.766,117.2128 39.339,171.3926 3.72,41.0032 5.048,94.5846 10.635,144.455 2.783,26.4351 19.223,31.4202 18.899,-1.1836 2.24,-11.3059 -1.598,-21.3481 0.232,-32.625 0.725,-6.0787 0.622,-8.5665 -1.91,-46.0078 -0.609,-8.9923 -1.32,-21.8797 -1.582,-28.6386 -0.416,-10.4333 -2.081,-23.1591 -2.283,-34.7403 -2.099,-53.6904 -6.38,-121.8805 -36.928,-173.8828 -0.281,-0.2091 -0.938,-1.1909 -1.459,-2.1816 -1.549,-2.9379 -7.696,-10.7461 -8.459,-10.7461 -0.388,0 -0.705,-0.3186 -0.705,-0.7071 25.644,-19.3373 42.185,-23.0074 58.195,-32.0097 0.486,-0.4042 1.964,-0.951 3.283,-1.2149 2.772,-0.5553 2.589,-1.4355 2.862,13.3985 1.193,48.2356 7.026,106.7919 4.951,161.2168 -1.457,28.7213 -1.03,61.6921 -5.668,92.7773 -2.646,35.2585 18.173,7.0427 23.353,-19.0117 2.215,-15.4417 5.963,-32.329 6.213,-48.6699 0.451,-3.963 1.261,-15.8127 1.201,-17.4903 -0.169,-4.477 0.02,-20.1061 0.25,-20.4765 0.425,-0.6878 0.496,-40.2342 0.112,-63.1738 -0.382,-22.8806 -0.854,-31.6394 -2.385,-44.1075 -2.383,-19.4196 -3.168,-61.2842 -1.539,-82.1289 0.652,-8.2576 5.479,-51.4778 18.967,-56.2734 0.575,0 1.475,-0.5183 2,-1.1504 1.679,-2.0232 7.591,-4.1417 14.728,-5.2774 11.657,-1.8553 18.166,-3.0168 27.469,-4.9003 11.07,-2.2406 43.298,-3.889 56.275,-2.8789 7.173,0.5575 7.347,0.7236 7.094,6.3671 -0.256,5.7076 0.227,6.3314 7.901,10.2051 5.884,2.9705 9.698,2.9661 11.457,-0.012 0.717,-1.2148 1.316,-2.8394 1.316,-3.6113 0,-0.772 0.349,-1.9175 0.76,-2.545 0.667,-1.0138 0.834,-1.0139 1.498,0 0.412,0.6274 0.76,2.3488 0.76,3.8243 0,1.4753 0.524,3.4134 1.152,4.3086 1.617,2.3089 5.908,4.7949 8.277,4.7949 1.105,0 2.603,0.2862 3.33,0.6367 0.726,0.3504 2.347,1.1306 3.602,1.7324 1.813,0.8698 2.779,2.3355 4.709,7.1563 2.429,6.0643 2.933,8.004 6.531,25.0761 3.248,15.411 3.968,25.2171 3.918,52.8516 -0.558,57.1421 -8.237,108.7197 -22.07,159.6895 -1.355,12.3215 -14.542,41.5564 -18.565,54.6836 0.03,12.8902 10.621,9.2767 15.077,-1.293 7.4,-11.7344 14.703,-25.775 19.769,-40.836 20.768,-63.9602 35.885,-129.7938 32.65,-202.5019 -0.413,-5.5585 -0.585,-10.2897 -0.361,-10.5117 11.076,4.2767 27.698,6.5554 42.942,8.1347 4.382,-0.2254 4.762,0.2748 2.447,3.2188 -2.193,2.7873 -4.146,7.6487 -5.553,13.8262 -15.48,66.6016 -32.901,144.1791 -35.551,216.7304 -1.35,15.0524 -2.606,28.6362 -3.01,44.8418 0.314,14.6535 21.883,18.2141 24.358,4.0625 0.424,-5.9848 0.937,-11.9074 1.141,-13.1621 3.852,-58.1455 9.247,-156.7729 36.498,-250.1914 1.099,-2.9277 2.361,-6.5204 2.806,-7.9844 1.314,-4.336 6.714,-14.6608 8.883,-16.9843 3.189,-3.414 15.835,-8.9853 23.582,-10.3887 1.939,-0.3513 5.416,-1.1703 7.727,-1.8203 53.439,-7.3435 80.97,1.7537 95.099,4.8594 2.614,0 11.37,12.1873 13.164,18.3242 2.025,6.9326 2.715,10.4527 3.557,18.1777 1.095,10.0185 1.075,27.377 -0.04,35.7402 -0.425,3.1369 -0.574,6.6003 -0.346,7.6954 -6.428,70.7109 -24.479,146.5189 -36.924,206.0996 -8.789,29.6911 -14.715,49.2439 -22.463,74.039 -1.871,11.1027 15.47,17.4141 23.301,5.4375 0.529,-1.318 1.509,-3.1184 2.18,-4.0019 9.318,-26.5379 19.076,-56.7998 27.428,-88.127 25.65,-122.2752 28.068,-125.6704 34.586,-205.7051 0.209,-6.0646 0.56,-11.8125 0.779,-12.7734 0.372,-1.6424 -0.05,-6.018 -2.059,-21.4297 -0.463,-3.5454 -1.638,-8.645 -2.613,-11.332 -0.975,-2.6869 -1.592,-5.1742 -1.373,-5.5293 0.22,-0.3551 2.598,-0.6465 5.285,-0.6465 6.926,-0.025 24.527,-10.4313 32.287,-14.7949 13.4,-11.4598 32.639,-21.1954 45.17,-37.4863 52.856,-54.2908 93.587,-148.6283 103.365,-239.3536 1.06,-3.3606 1.608,-8.2685 3.311,-29.7011 0.674,-9.6029 -3.373,-18.1192 -5.445,-22.6758 5.55,-5.3674 12.12,-9.136 16.822,-16.1719 2.229,-3.3612 2.667,-4.6203 2.328,-6.7109 -1.17,-6.6547 -6.876,-8.6157 -13.131,-9.2813 2.298,-3.3807 3.66,-8.8124 -7.937,-14.3222 -3.93,-2.0224 -2.649,-13.3107 -15.145,-9.2539 -1.254,1.0545 -6.62,2.7929 -8.621,2.7929 -0.638,0 -2.413,-0.058 -1.674,-2.0508 1.915,-7.2454 -6.562,-10.0671 -12.201,-10.1171 -13.815,0.1353 -30.53,18.0213 -37.836,30.1777 -3.98,6.6239 1.708,18.9619 8.356,18.7656 5.097,-1.1005 8.983,7.8647 13.892,9.7578 4.358,2.3094 5.192,3.1786 3.844,4.0117 -7.976,6.0166 16.609,22.6807 22.531,12.6622 1.942,-2.14 3.934,-3.8907 4.426,-3.8907 5.269,0.6241 7.053,21.1117 6.877,23.5137 -0.233,5.6145 -0.735,11.4314 -1.113,12.9277 -0.378,1.4965 -0.916,5.1173 -1.192,8.045 -6.465,60.5986 -24.482,116.3089 -53.898,167.2148 -19.361,33.5044 -43.107,62.0908 -76.532,86.8789 -11.919,8.6278 -26.714,17.5354 -41.699,23.9863 -7.985,-11.6684 -15.54,-17.2353 -29.556,-23.4961 -31.949,-13.5815 -96.666,-1.1037 -116.953,4.6914 -11.326,3.8169 -22.38,9.2611 -33.284,11.918 -14.96,0.079 -34.099,-0.4165 -50.595,-5.0254 -5.432,-0.6194 -6.509,-1.6381 -7.711,-7.2851 -2.288,-10.7471 -8.285,-26.215 -10.756,-27.7422 -1.322,-0.8165 -0.698,-4.3831 1.201,-6.8731 1.045,-1.3709 1.9,-2.8794 1.9,-3.3515 0,-0.472 0.839,-2.633 1.864,-4.8028 1.906,-4.0349 3.615,-9.8339 4.564,-15.4863 0.632,-3.7654 0.187,-4.1246 -8.709,-7.0898 l -5.703,-1.9024 -0.234,-3.2344 c -0.189,-2.6325 -0.72,-3.6224 -2.85,-5.3222 -3.066,-2.445 -3.242,-3.755 -0.908,-6.7207 26.166,-33.9776 31.375,-77.3013 50.496,-120.2481 2.872,-11.3878 5.579,-23.8243 8.017,-37.0488 0.688,-0.018 1.407,-0.059 2.176,-0.1309 3.847,-1.1653 6.14,-1.2448 3.953,-0.1347 -3.389,3.5316 -2.913,8.9406 1.768,11.9746 2.97,1.882 4.211,2.1476 8.264,1.7637 0.817,-0.077 1.224,0.2515 1.099,0.8886 -0.197,1.0016 -3.191,1.3381 -6.367,0.7129 -9.202,3.3333 -11.601,14.9948 2.211,17.9356 2.338,4.7997 4.786,7.8329 7.389,9.5136 -0.396,0.7145 -0.792,1.4073 -1.186,2.1446 -2.147,2.7103 -2.478,2.8591 -5.285,2.3847 -18.46,-5.0558 -21.617,12.0965 -6.229,15.0977 4.622,3.7676 -1.622,17.2111 -2.152,24.4922 -14.625,92.3186 79.433,167.3386 154.445,115.2656 4.399,5.4693 14.248,7.2232 17.608,4.9316 4.737,-3.2313 2.145,-1.6624 4.09,4.1719 1.945,5.8342 13.564,2.2892 17.703,-3.6797 4.139,-5.9688 -2.993,-10.8161 -4.19,-14.6308 -1.197,-3.8147 6.241,-2.0748 9.135,4.8789 4.036,9.6984 25.409,0.8209 21.223,-4.4571 -4.085,-5.1512 -9.665,-8.7893 -4.28,-11.2128 5.386,-2.4234 1.843,-11.9175 8.129,-3.5469 6.176,3.5564 18.755,4.1348 18.452,-5.4395 13.493,8.5295 8.437,-8.1644 11.314,-9.5547 15.592,-4.8294 8.753,-6.3433 8.775,-14.916 1.378,-5.0606 -0.392,-12.2719 -7.662,-11.8203 -0.963,0 -9.719,-4.2463 -10.258,-4.8301 27.242,10.4145 38.727,-6.9927 22.342,-10.8418 -0.89,-2.8389 -3.035,-5.3876 -5.213,-7.3515 1.918,1.0249 2.711,0.9565 6.61,0.2226 3.347,-0.6308 4.797,-1.7506 6.263,1.709 5.945,9.8832 20.639,0.01 28.43,-6.0527 -0.526,-10.0628 11.783,-20.7065 0.293,-25.0215 -3.947,-2.6591 -16.764,3.3846 -17.299,-1.582 -0.798,-7.4283 1.389,-22.2379 8.305,-19.6758 9.105,-0.6686 13.401,-4.3453 13.984,-11.9688 0.1,-8.262 -4.304,-8.9418 -12.574,-12.6738 -1.365,-0.1943 -3.001,-0.9565 -3.637,-1.6836 -1.134,-1.3072 -1.125,-1.334 0.504,-2.3476 12.619,-3.5047 32.814,-0.4161 23.457,-24.543 -2.73,-4.3084 -9.997,-5.0783 -15.425,-5.0469 -3.288,0.4398 -9.054,-0.814 -8.836,-1.9199 0.04,-0.2279 0.871,-1.6758 1.834,-3.2168 3.944,-6.6169 -2.135,-14.4676 -10.659,-10.5527 -2.518,0.8314 -5.347,0.75 -7.836,-2.1192 -1.329,-1.9793 -6.628,-3.1268 -11.466,-2.4804 -8.927,0.6092 2.746,-5.2695 7.418,-4.2129 5.264,0.6655 12.148,-2.5008 14.033,-10.1875 1.105,-6.7585 -7.515,-12.8101 -13.531,-7.9004 -1.003,0.9247 0.622,5.4619 -5.135,-0.6016 -3.093,-3.2587 -10.097,-2.0621 -15.26,-0.6152 -4.181,1.6931 -7.371,-1.857 -1.473,-4.8809 3.53,-2.1547 4.021,-2.2522 6.616,-1.3262 8.106,2.8909 16.197,2.7721 20.373,-0.2968 12.462,-7.4574 9.617,-20.0391 -2.868,-14.7657 -2.388,1.7327 -4.952,2.01 -7.507,0.7989 -1.011,-0.4782 -3.463,-1.4746 -5.45,-2.2149 -3.466,-1.2928 -3.782,-1.2746 -7.748,0.4512 -2.274,0.9898 -5.56,2.8729 -7.304,4.1836 -0.553,0.442 -0.81,0.6687 -1.022,0.8574 1.381,-1.2654 7.044,-7.2072 3.705,-12.8594 -2.203,-3.282 -5.365,-4.9207 -8.759,-5.0429 -2.999,-0.1074 -6.093,1.84 -6.541,4.1172 -1.724,3.7044 -2.626,2.8145 -1.963,-1.2793 -0.203,-2.7004 -0.974,-3.5011 -6.034,-6.252 -4.626,-2.9403 -6.106,-16.43 -15.431,-18.2656 -7.147,-1.0884 -15.155,-4.4382 -26.467,3.2637 -3.77,2.5668 -10.118,1.2764 -10.838,0.6093 -0.874,-0.8134 -0.165,-2.3148 1.19,-2.5234 5.761,-1.5946 12.245,-2.7423 16.166,-7.7246 3.596,-4.5726 0.409,-9.333 -5.739,-10.7363 -0.412,-0.091 -0.833,-0.1651 -1.267,-0.2403 -1.051,-0.1512 -1.969,-0.2389 -2.969,-0.2226 v 0 c -2.999,0.049 -6.73,1.0379 -16.943,4.08 -3.97,1.1825 -5.218,3.3554 -3.856,6.711 0.793,1.9524 0.731,2.0437 -3.307,5.041 -2.707,2.0118 -4.105,4.3908 -7.728,1.7539 -4.574,-2.6692 -10.685,-5.089 -14.842,-0.5059 -4.765,7.4923 -14.141,10.3911 -22.719,15.6211 -3.529,1.0783 -4.656,6.1209 -2.189,9.7969 0.348,0.5195 2.097,1.4693 3.887,2.1094 4.635,2.302 1.195,2.4601 -3.157,1.4102 -3.204,-0.7593 -8.632,-2.1381 -5.627,-7.6446 2.253,-3.989 1.635,-10.1929 -2.003,-12.2519 -3.084,-2.1698 -7.196,-4.0722 -6.444,-7.2852 2.944,-2.5174 2.635,-9.1705 -0.488,-10.5273 -1.014,-0.4406 -2.244,-1.0183 -2.736,-1.2871 -1.322,-0.7198 -6.795,-0.1175 -8.682,0.957 -6.054,1.3691 -11.509,0.2085 -17.008,4 -0.33,0.6824 -0.844,1.1897 -1.144,1.1308 -2.181,-0.4294 -1.247,6.2325 1.234,8.8165 1.295,1.3473 1.285,1.3648 -2.094,3.3261 -2.638,1.5319 -3.661,2.6483 -4.584,5.0176 -2.156,5.7118 -6.647,15.1578 6.395,18.0742 2.398,1.264 2.72,1.727 2.385,3.4297 -0.213,1.0814 -0.88,2.2727 -1.479,2.6465 -1.53,0.9524 -1.647,6.0382 -0.211,9.2148 0.628,1.3913 1.431,2.5852 1.783,2.6543 -1.609,4.5594 -4.66,7.1387 -0.967,12.7598 6.652,9.93 1.243,2.2848 -8.396,3.6094 -1.179,0.7913 -2.726,0.4083 -2.523,-0.625 2.755,-2.9377 5.053,-3.3118 5.591,-7.7285 0.169,-3.7079 -0.802,-5.3128 -4.451,-7.3594 -2.645,-1.4813 -3.045,-2.8034 -0.859,-2.8242 5.989,-2.4625 8.301,-7.0519 4.584,-12.9942 -2.781,-1.9933 -14.686,-7.1257 -21.203,-6.0644 -7.334,1.235 -19.251,4.5601 -27.084,14.414 -4.378,2.8719 -4.013,9.1272 0.687,11.8243 1.443,0.8275 3.487,1.6855 4.549,1.8945 2.362,1.8067 0.934,2.2843 -0.289,5.0586 -0.236,1.408 0.334,3.2361 1.701,5.4629 1.873,3.0462 1.932,3.3816 0.654,3.7734 -2.797,0.069 -3.922,-0.9654 -5.837,-3.5762 -2.127,-1.028 -7.321,-1.1149 -8.85,-0.1484 -2.215,1.3938 -4.642,2.9627 -7.066,4.7441 7.605,-51.6475 10.723,-111.8891 4.082,-168.2988 -1.908,-7.6326 -1.896,-9.7461 0.06,-10.2578 11.998,-3.5044 10.336,-31.8503 13.092,-41.1934 0.121,-7.4024 -0.144,-9.7581 -1.635,-14.5371 -1.844,-5.9052 -3.997,-9.1269 -6.105,-9.1269 -0.671,0 -2.004,-0.5481 -2.961,-1.2188 -2.031,-1.4233 -7.61,-0.9096 -10.471,0.9649 -1.242,0.8137 -2.115,0.921 -3.084,0.3789 -6.253,-3.342 -13.597,-7.5738 -21.514,-8.0996 -0.328,-0.1042 -0.633,-0.155 -0.937,-0.1446 z m -154.684,149.9805 c -18.17,0.1101 -19.524,21.2713 -25.711,19.9102 -7.664,-1.6862 -68.571,26.5953 -28.763,41.7695 -10.796,11.5861 -20.28,27.19 -27.963,47.6543 -0.504,1.5977 -1.313,3.0562 -1.797,3.2422 -1.296,0.388 -9.96,-3.5024 -12.582,-3.8282 -15.91,-7.4209 -19.031,11.1681 -4.154,17.0723 2.635,1.0459 8.748,5.0188 13.396,5.625 -4.183,23.8156 2.854,84.6943 36.1,111.2559 70.247,55.0777 153.804,9.259 162.345,-96.5664 -0.323,-28.5771 -4.303,-52.2704 -14.089,-70.3809 -1.961,-13.9982 -6.496,-31.3519 -16.725,-46.3398 -21.294,-31.2009 -22.878,-4.2773 -60.363,-23.5996 -8.2,-4.2268 -14.606,-5.8453 -19.694,-5.8145 z m 330.776,42.9258 c 0.35,-0.029 0.706,-1e-4 1.07,0.086 2.185,0.4932 4.651,2.6804 7.811,3.0117 4.05,0.6453 4.344,0.803 4.429,2.461 0.05,1.0057 -0.601,2.6971 -1.513,3.9179 -1.897,2.5429 -7.085,8.2058 -7.856,8.5743 -2.98,3.4583 -5.891,6.3365 -8.334,-0.2403 1.702,-4.2884 -0.67,-9.5131 -4.687,-10.3359 -2.517,-1.042 -5.061,-1.6872 -1.467,-3.6211 3.052,-1.2285 6.401,-2.1764 9.511,-3.5586 0.342,-0.1724 0.685,-0.2657 1.036,-0.2949 z m -311.727,9.7715 c 24.8,0.2281 44.739,9.5224 56.459,34.7207 3.75,7.4235 11.946,34.047 10.488,41.4433 -4.369,-4.6418 -8.744,-7.7819 -17.002,-3.0195 -29.567,19.5494 -82.468,18.7847 -109.228,17.4688 -7.479,-1.1149 -18.784,-0.7302 -23.041,5.1718 -0.428,-4.8775 0.318,-11.916 0.937,-15.9394 5.635,0.2025 7.015,1.3113 11.694,-1.4297 2.049,-1.9083 2.226,-5.7841 0.343,-8.9942 -2.433,-4.1411 -6.416,-2.4974 -9.847,-5.1367 3.893,-23.2973 23.413,-61.3306 61.293,-63.0781 6.199,-0.8289 12.181,-1.2597 17.904,-1.207 z m 407.404,19.5468 c 0.103,0.042 0.146,0.1339 0.116,0.2872 -0.12,0.5561 -1.532,1.888 -3.135,2.957 -1.601,1.0693 -2.963,2.2017 -3.026,2.5195 -0.06,0.3179 -0.959,0.7217 -1.992,0.8985 -1.032,0.1758 -2.989,1.3713 -4.347,2.6562 -2.921,2.7626 -5.146,3.4776 -7.108,2.2793 -1.37,-0.8375 -1.364,-0.9544 0.166,-3.2383 0.872,-1.302 1.862,-3.3782 2.201,-4.6152 0.335,-1.2376 0.76,-2.1195 0.934,-1.959 0.173,0.1594 2.677,0.4957 5.572,0.7383 4.588,0.3913 5.624,0.2134 8.108,-1.3985 1.302,-0.8446 2.196,-1.2413 2.511,-1.125 z m -455.084,16.8887 c -1.818,-0.064 -3.69,0.5225 -5.353,1.8926 -6.763,5.572 -19.349,20.4966 -8.52,27.0918 8.304,5.0582 18.504,-4.935 21.639,-14.5859 2.654,-8.1777 -2.311,-14.2074 -7.766,-14.3985 z m 53.471,4.461 c -1.127,0.031 -2.34,0.1686 -3.642,0.4179 -4.265,1.2592 -5.394,3.2668 -6.024,10.6992 -2.852,29.7161 26.439,26.6397 22.684,2.2383 -1.387,-8.566 -5.126,-13.5734 -13.018,-13.3554 z m 275.045,40.8125 c 21.396,-0.1069 42.029,7.8604 51.137,28.8691 0.881,2.0331 1.778,4.0328 2.676,6.0234 -0.301,2.9648 -0.756,6.0841 -1.403,9.3946 -0.793,4.8315 4.423,9.6588 10.211,11.7441 0.118,0.024 0.223,0.056 0.332,0.086 0.668,1.7757 1.3,3.572 1.897,5.3926 -0.95,3.4173 -3.468,7.6162 -4.487,10.2481 -3.172,5.9131 -1.849,9.5471 4.475,12.3047 2.577,1.1235 4.077,1.7379 4.83,2.2285 0.03,0.5779 0.05,1.1657 0.08,1.7519 -0.242,0.2965 -0.53,0.6291 -0.898,1.0664 0,0 -4.627,4.9886 -3.998,9.5235 4.706,8.5118 -7.464,8.5866 -4.332,16.5371 2.493,3.1404 5.358,3.9282 4.271,8.3769 -0.158,0.4952 -0.269,0.9707 -0.338,1.4297 -15.268,45.5754 -62.975,77.837 -110.011,54.1113 -33.202,-16.7512 -49.395,-44.5422 -44.702,-87.6738 1.144,-12.5096 3.038,-21.8041 5.125,-27.043 5.312,-5.3906 21.183,0.6313 27.799,-5.3242 10.429,-8.931 -2.354,-16.1705 -12.625,-13.7011 -5.736,0.1321 -5.894,0.087 -5.894,-1.67 0.284,-9.077 12.383,-16.8913 20.152,-24.1035 12.154,-11.2838 34.311,-19.4653 55.707,-19.5722 z m -231.701,8.7851 c 1.871,0.073 2.683,1.8388 2.857,5.0625 2.388,55.7113 -68.962,72.9493 -97.431,29.5469 -6.338,-9.6632 -12.942,-16.9421 -12.147,-17.7363 0.476,-0.4756 11.283,0.022 16.311,0.5683 34.467,-1.4961 67.149,-4.245 87.162,-16.4687 1.327,-0.6889 2.397,-1.0057 3.248,-0.9727 z m -131.662,6.6231 c 0.234,0.1037 0.57,0.9459 0.968,2.4101 20.579,62.1746 84.817,90.7842 127.241,50.4356 2.088,14.6319 -38.484,46.7054 -61.676,42.4726 -0.805,-0.3154 -2.662,-0.595 -4.125,-0.623 -48.196,-7.2794 -59.868,-55.7025 -62.576,-88.9766 -0.292,-3.7697 -0.225,-5.5561 0.07,-5.7168 0.03,-0.016 0.06,-0.017 0.09,0 z m 333.201,6.6699 c -1.041,-3e-4 -2.172,0.1491 -3.393,0.4726 -5.68,2.4919 -9.396,9.3452 -12.091,15.1582 -4.374,9.4326 12.529,23.2391 19.14,8.5743 2.039,-4.5255 2.725,-6.5429 4.34,-10.9922 2.142,-5.8993 -0.71,-13.2111 -7.996,-13.2129 z m 46.797,1.1953 c -4.308,0.039 -8.584,3.1026 -10.264,11.6875 -3.861,17.2796 12.594,33.4532 22.328,10.9668 1.93,-7.4092 -0.17,-14.2798 -3.158,-18.4317 -2.186,-2.4534 -5.556,-4.2532 -8.906,-4.2226 z m 14.554,37.7676 c -5.082,0.146 -8.533,2.534 -2.869,9.2617 1.673,1.5735 3.043,3.237 3.043,3.6973 -9.291,27.187 -57.509,34.3025 -92.775,12.4804 -9.329,-6.3752 -15.522,5.3106 -6.375,12.7207 26.404,23.1468 71.024,23.9041 94.365,4.502 1.272,-1.0015 2.249,-1.2808 2.871,-0.8203 6.997,5.1835 9.294,1.1144 16.842,-7.502 9.48,-16.7329 14.012,-25.5789 -4.525,-32.0312 -2.337,-1.2639 -6.171,-2.2167 -9.541,-2.3086 -0.351,-0.01 -0.697,-0.01 -1.036,0 z m -562.503,35.0976 c 6.866,4.7209 13.02,10.6121 17.898,17.5469 0.788,1.226 3.143,4.7306 5.234,7.7891 7.471,10.9248 9.473,14.0574 9.493,14.8242 0,0.4276 -1.407,1.9675 -3.143,3.4219 -7.015,5.8729 -8.693,7.5692 -10.094,10.2031 -3.784,7.1431 8.316,9.3653 13.676,4.6133 1.966,-1.5006 3.958,-2.601 4.426,-2.4473 0.802,0.2628 2.378,5.9874 3.289,11.9492 0.223,1.4638 0.736,3.0717 1.139,3.5742 11.618,28.3272 -12.806,91.459 -42.758,106.6914 -16.888,9.4758 -33.974,11.8724 -54.405,4.4649 -18.028,-8.237 -36.52,-9.9954 -49.742,-29.5274 -11.402,-14.244 -15.226,-24.2787 -17.523,-39.4238 -5.201,-29.1589 -1.415,-63.4347 12.888,-95.3476 1.032,-3.0756 3.456,-6.9185 6.163,-10.709 28.952,6.3222 83.506,-3.5737 103.459,-7.6231 z m -1.276,18.3028 c -12.94,-0.3943 -24.64,14.2374 -20.928,28.4941 0.447,1.15 1.934,2.7742 3.303,3.6094 3.436,2.0945 5.646,1.9068 8.252,-0.6992 1.681,-1.6797 2.229,-2.9337 2.229,-5.1329 0,-4.5456 1.455,-8.6696 3.906,-11.1211 1.934,-1.9337 2.66,-2.1898 5.223,-1.8457 1.64,0.2197 3.894,1.1179 5.009,1.9961 3.447,2.7106 5.708,1.9088 6.791,-2.4062 1.097,-4.371 -3.528,-10.1974 -9.744,-12.2734 -1.349,-0.3795 -2.702,-0.5804 -4.041,-0.6211 z m -56.103,30.75 c -8.649,0.2333 -18.129,4.6433 -20.493,11.5156 -6.112,7.3265 -7.495,18.0296 -3.019,23.3496 1.283,1.5251 2.368,2.1549 3.178,1.8418 0.675,-0.2615 2.174,-0.6666 3.332,-0.9004 2.751,-0.5552 5.552,-3.9531 6.228,-7.5547 1.179,-6.2871 6.067,-13.4586 10.074,-14.7812 2.908,-0.9596 7.442,-0.076 10.461,2.039 2.398,1.6793 4.211,1.3349 4.211,-0.8008 0,-1.021 0.343,-2.0676 0.76,-2.3261 0.419,-0.2585 0.762,-1.1871 0.762,-2.0625 -0.88,-7.4806 -7.864,-10.5262 -15.494,-10.3203 z m 73.533,33.5293 c -0.606,0.039 -1.306,0.2082 -2.094,0.5078 -4.715,1.7422 -9.164,1.7384 -13.709,5.7734 -21.845,11.2138 -38.078,19.8757 -59.226,30.0274 -2.783,2.1884 -16.987,9.0859 -18.713,9.0859 -2.667,0 -8.059,7.8734 -7.123,10.4062 1.666,4.5213 6.816,11.1176 11.129,14.2539 15.286,11.1246 32.831,15.8731 52.99,12.4454 31.525,-8.0288 45.774,-37.3384 45.41,-63.6602 -0.278,-5.7577 -0.614,-7.3573 -1.715,-8.1621 -2.295,-1.678 -4.146,-5.0771 -4.146,-7.6289 0,-2.1284 -0.984,-3.1675 -2.803,-3.0488 z m -4.697,12.6933 c 1.211,0 0.09,15.6524 -1.313,18.3711 -2.805,5.697 -4.58,13.0221 -9.676,18.0879 -8.826,11.9684 -26.701,21.9878 -43.115,19.7637 -6.193,-0.8605 -21.121,-6.6557 -24.334,-12.5547 21.774,-16.8947 49.764,-23.6551 71.483,-39.1055 1.046,-0.8179 2.417,-1.4929 3.048,-1.5039 0.632,-0.01 1.577,-0.7005 2.1,-1.5371 0.522,-0.8365 1.335,-1.5215 1.807,-1.5215 z" transform="translate(205.80996,111.49993) matrix(0.26458333,0,0,0.26458333,-4532.6294,-1263.9341) translate(-1291.3373,-1213.0154)"/></svg>