<svg xmlns="http://www.w3.org/2000/svg" viewBox="0 0 109.64368 124.78667" height="124.78667mm" width="109.64368mm">
    <path d="m 14351.599,6327.6547 c -29.579,0.1806 -61.331,17.8888 -80.881,58.4783 -21.233,123.4593 126.039,143.9085 150.52,42.1471 14.725,-61.2158 -24.98,-100.8981 -69.639,-100.6254 z m 198.992,131.0914 -30.899,30.6902 -84.186,12.554 -15.234,168.9269 c 3.976,38.2676 50.964,7.6542 82.473,1.5975 31.508,-6.0568 37.809,-16.1335 38.972,-19.5472 1.163,-3.4138 31.386,-170.4138 31.386,-170.4138 z m -235.649,64.595 c -63.597,0.1975 -70.311,38.0067 -86.343,66.1044 -16.55,29.004 -30.66,68.1985 -21.984,145.9275 11.638,49.5089 163.682,-3.8525 163.682,-3.8525 0,0 -7.037,-65.4104 5.506,-113.3848 12.543,-47.9743 14.982,-92.3428 -54.526,-94.6945 -2.172,-0.074 -4.283,-0.1065 -6.335,-0.1001 z" color="#000" overflow="visible" fill="#fff" paint-order="fill markers stroke" transform="translate(-24.819385,-140.69168) matrix(0.2881372,0,0,0.2881372,-4067.0196,-1681.2978)"/>
    <path d="m 14355.817,6323.3402 c -27.413,-0.056 -54.5,12.1874 -74.171,30.8867 -6.504,6.9601 -13.242,19.8856 -16.618,28.6578 -0.19,1.0709 -0.809,3.0312 -1.378,4.3559 -1.692,3.9503 -3.573,17.4922 -3.298,23.7474 0.214,4.8323 1.82,15.5057 2.869,19.0612 1.932,6.6161 3.134,12.9608 7.395,19.4644 5.625,8.629 8.475,17.1494 16.506,24.5916 22.025,28.9761 55.152,30.259 87.517,19.0875 9.291,-3.1649 19.87,-8.959 26.735,-14.9685 2.528,-2.2299 4.964,-4.0543 5.414,-4.0543 0.452,0 2.097,1.0403 3.658,2.3116 2.367,1.9288 3.198,2.3115 5.013,2.3115 3.344,0 5.764,-3.0962 5.126,-6.5569 -0.346,-1.8752 -3.167,-6.8609 -4.268,-7.5411 -1.454,-0.8986 -1.547,-2.1936 -0.282,-3.909 0.695,-0.942 1.264,-2.1874 1.264,-2.7682 3.194,-9.8225 5.111,-11.0686 9.812,-22.855 2.884,-11.4783 8.007,-22.3376 5.633,-36.3501 -1.744,-15.597 -4.389,-28.6701 -13.905,-42.7265 -7.793,-11.206 -20.92,-22.7248 -34.215,-27.0575 -1.443,-0.3806 -3.408,-1.1444 -4.366,-1.6975 -0.958,-0.5531 -4.284,-1.5945 -7.393,-2.3146 -5.654,-1.1232 -11.357,-1.6649 -17.048,-1.6764 z m -1.047,11.5659 c 30.335,0.1046 56.262,18.3297 60.588,49.4828 0.788,5.5445 1.48,11.1888 1.524,15.329 1.913,12.4578 -3.565,31.7138 -12.231,44.1462 -0.84,1.1927 -1.245,2.3727 -1.759,3.7247 l -3.712,-0.4086 c -5.103,-4.3338 -12.402,0.3959 -7.122,6.5532 0.807,0.9279 1.87,2.4697 2.36,3.4259 0.855,1.6701 0.851,1.791 -0.108,3.082 -1.688,2.2714 -10.097,9.1955 -13.705,11.2853 -11.692,6.7713 -22.891,11.4089 -29.962,12.4079 -13.129,1.8748 -24.169,1.5908 -37.106,-3.4192 -6.292,-2.1404 -12.095,-9.6473 -16.693,-14.1122 -8.365,-9.7779 -12.846,-23.2136 -17.65,-33.8407 -1.484,-5.7955 -3.194,-14.6948 -2.981,-15.5111 0.13,-0.4956 0.03,-3.3914 -0.22,-6.4357 -0.46,-5.5681 -0.32,-7.0279 1.392,-14.5246 3.486,-13.9783 9.741,-27.1692 18.686,-36.3826 14.598,-14.7258 37.126,-24.5756 58.699,-24.8023 z m 47.456,72.6997 c -2.817,-0.043 -5.668,1.3024 -6.767,4.2702 -0.796,3.3292 -3.242,6.3424 -3.33,9.8187 -2.88,11.1598 11.694,14.3284 13.49,3.6201 0.146,-0.9581 1.106,-4.1059 2.135,-6.9949 3.767,-6.7118 -0.834,-10.6422 -5.528,-10.7141 z m -30.734,0.3476 c -3.439,-0.074 -6.856,1.4274 -6.717,3.3228 -4.239,3.3626 -4.378,15.9123 1.161,19.8896 2.978,1.5032 7.177,-0.3534 8.296,-3.997 2.116,-2.9631 1.931,-8.8023 3.897,-11.1747 1.188,-5.8497 -2.739,-7.9569 -6.637,-8.0407 z m 179.099,50.7928 c -1.769,0.01 -3.29,0.4819 -4.52,1.4258 -14.682,3.4577 -22.946,20.4742 -35.515,26.749 -20.501,4.8634 -41.884,8.9493 -59.745,9.4568 -5.955,0.032 -7.028,0.1667 -8.116,1.0225 -1.583,1.2452 -1.573,1.937 0.06,4.3455 1.554,2.292 2.132,2.7123 3.743,2.7231 0.664,0 1.935,0.3436 2.825,0.754 0.89,0.4105 2.428,0.8145 3.417,0.8984 2.958,0.2512 2.036,1.1614 -1.459,1.4394 -3.702,0.2944 -5.462,1.673 -4.916,3.8488 0.162,0.6476 -0.218,3.5711 -0.845,6.4967 -0.627,2.9255 -1.234,6.0125 -1.349,6.8601 -1.095,8.0959 -1.624,5.8402 -1.937,-8.2665 -0.221,-9.9547 -0.436,-12.6905 -1.104,-14.0301 -0.458,-0.9154 -1.095,-1.7313 -1.417,-1.8134 -6.959,-1.773 -9.428,0.058 -9.313,6.851 -1.048,32.6948 -2.712,65.733 -7.911,91.9985 -0.259,1.2713 -0.747,3.7473 -1.085,5.502 0.31,3.287 -5.903,-1.9428 -9.116,-5.2815 -20.322,-16.5757 -15.138,-32.0474 -20.949,-47.5926 -8.696,-23.8842 -34.378,-34.6402 -57.001,-37.9762 -1.977,-0.2757 -10.877,-0.5209 -19.777,-0.5455 -30.016,0.033 -50.638,6.325 -67.171,28.5766 -17.956,24.1672 -34.77,52.0047 -41.189,81.4604 -11.706,36.6594 -0.02,77.1951 0.412,111.7241 2.074,11.5584 16.592,4.6299 16.584,-2.9557 0.705,-1.3167 -0.296,-16.5144 -1.36,-20.6428 -0.681,-2.6474 -1.779,-9.3646 -2.062,-12.6156 -10.149,-57.0918 3.859,-107.3366 50.054,-159.3901 12.36,-13.9288 62.812,-16.5093 87.881,-1.9062 12.643,9.0197 19.807,21.673 16.624,40.6859 -3.951,36.5556 -21.444,64.1329 -22.573,99.5493 -0.102,3.5315 -0.31,6.9369 -0.464,7.5674 -0.4,1.6473 -2.518,2.5176 -7.101,2.9181 -2.206,0.1927 -4.607,0.5769 -5.336,0.8539 -19.259,3.3271 -32.075,-2.8354 -45.782,-16.4214 -23.58,-22.9654 -28.436,-54.644 -30.822,-84.8781 0.103,-11.3868 -14.579,-12.6027 -16.572,-4.4162 l 0.277,5.1957 c 1.815,25.492 6.474,53.9595 18.673,73.7704 5.455,8.4647 6.527,10.0416 8.554,12.5855 3.988,5.1605 9.323,9.9171 13.657,14.0461 19.115,15.3313 34.077,16.2964 57.381,15.1987 5.045,-0.2474 6.303,-0.1723 6.341,0.3769 1.296,7.0373 -0.601,26.209 4.147,29.1463 6.046,3.3918 13.232,3.7095 15.581,-2.5207 1.361,-6.1333 -0.293,-12.1863 -0.565,-19.5201 -0.356,-9.9658 -0.04,-11.8142 2.015,-11.8142 0.67,0 1.974,-0.3773 2.898,-0.8383 26.134,-3.9604 42.224,-20.3234 45.993,-12.0227 9.378,16.2232 25.568,9.7159 33.88,0.2733 1.851,-1.7372 3.045,-2.9821 3.971,-4.0468 -0.09,3.7179 1.889,7.8508 6.646,6.5049 19.182,-4.6174 44.636,-10.4744 63.257,-17.3154 1.654,-0.6081 2.695,-1.374 3.205,-2.3582 1.098,-2.1246 2.526,-2.3834 4.409,-0.7983 5.746,4.4644 10.072,3.1948 12.267,-3.6562 0.63,-2.0227 0.557,-2.4945 -1.2,-7.7833 -2.593,-7.8085 -2.503,-8.368 0.964,-6.0152 9.182,6.5214 13.832,-10.6911 15.647,-14.6841 0.599,-1.3199 1.021,-3.369 1.028,-4.991 0,-2.9657 -1.427,-11.8166 -2.058,-12.6584 -2.351,-6.6212 -3.685,-14.3896 -2.852,-19.6729 12.021,-42.1086 21.254,-77.6634 21.735,-112.1741 0,-5.4739 -1.986,-11.0631 -6.288,-14.6772 -8.763,-8.1021 -20.344,-14.4178 -24.658,-14.5261 z m 2.886,13.8541 c 2.899,0.023 5.852,2.3159 8.806,4.3372 0.494,0.1551 1.11,0.8484 1.11,1.109 -11.437,4.9345 -32.067,10.5976 -29.491,7.5132 3.792,-4.1499 12.812,-10.4549 17.578,-12.5809 0.663,-0.2679 1.329,-0.3838 1.997,-0.3785 z m 10.45,21.1274 c 0.757,0.024 1.114,0.2502 0.964,0.7396 -2.615,25.9938 -8.461,55.5869 -17.355,78.0706 -0.354,0.8476 -1.063,3.3908 -1.576,5.6509 -1.276,5.628 -1.454,5.9068 -3.754,5.9068 -3.704,-0.6646 -4.755,-0.089 -5.353,3.9564 -0.227,4.4813 3.697,10.7623 3.728,14.639 0,2.1648 -0.742,2.4955 -2.715,1.2114 -2.058,-1.3388 -8.638,-1.0217 -11.797,0.5689 -8.045,2.6589 12.176,18.8149 14.024,34.5879 0.834,4.3068 1.061,7.1912 0.563,7.1912 -0.491,0 -4.079,-3.8948 -6.463,-7.0159 -2.639,-3.4538 -8.245,-7.7458 -10.65,-8.152 -5.047,-1.4786 -9.772,0.4833 -8.917,5.2596 0.08,8.8773 14.088,12.5856 14.034,21.6375 -0.136,0.7065 -0.881,0.8681 -4.267,0.9248 -19.61,4.3292 -41.607,10.9979 -59.698,16.8986 -1.348,0.4086 -3.925,0.8886 -4.066,0.8713 0.528,-5.332 -5.264,-8.7313 -10.461,-4.8202 -2.816,1.7805 -20.033,11.9625 -21.312,8.298 -0.197,-0.6215 -0.162,-1.2992 0.08,-1.5064 0.375,-0.3243 7.89,-1.7673 13.346,-4.3199 10.979,-5.1371 28.127,-13.7732 29.468,-23.0543 1.733,-4.5718 -4.449,-11.067 -11.357,-6.28 -11.13,8.2014 -14.461,14.439 -30.764,17.7029 -1.554,0.3538 -3.255,0.8649 -3.78,1.1363 -1.693,0.8756 -1.897,-0.2767 -0.708,-3.9857 1.043,-3.2489 1.286,-3.5934 2.641,-3.748 14.916,-3.3028 29.024,-13.6703 35.098,-23.2019 7.418,-7.4548 -0.666,-16.5251 -8.406,-7.8338 -6.148,5.8119 -9.148,8.347 -9.877,8.347 -0.788,0 -0.703,-1.861 0.2,-4.3657 0.817,-5.1168 2.667,-10.2274 3.336,-15.1537 3.79,-32.0051 7.703,-95.4425 13.294,-94.0204 0.733,-0.01 2.836,-0.371 4.673,-0.8028 13.993,-1.6301 29.575,-9.2362 43.75,-10.4802 -2.855,43.7626 -20.995,92.3208 -25.725,130.9869 -0.603,4.9441 -1.484,11.1234 -1.955,13.7315 -1.593,11.4757 11.234,8.3981 13.868,-0.3469 8.523,-40.3689 29.832,-125.5913 32.493,-147.4821 1.962,-2.8317 2.881,-3.5129 5.412,-4.015 10.183,-2.0872 25.9,-7.8608 29.985,-7.7322 z m -121.271,38.6647 c 0.04,0.01 0.103,0.086 0.163,0.2401 0.149,0.3707 0.13,0.8134 -0.04,0.9842 -0.17,0.1706 -0.292,-0.1328 -0.27,-0.6743 0.02,-0.374 0.07,-0.5618 0.147,-0.55 z m -52.488,65.3188 1.012,1.2521 c 0.558,0.6883 3.254,3.6479 5.99,6.5772 5.37,5.7487 8.599,8.3676 11.491,9.3221 5.112,3.0846 12.633,2.0775 10.499,7.3898 -0.389,0.9092 -1.429,2.332 -2.312,3.1618 -0.882,0.8298 -1.604,1.6923 -1.604,1.9165 -7.857,8.8878 -13.523,22.5784 -7.468,32.822 1.851,2.9995 2.211,5.0617 1.504,8.5982 -1.498,3.0131 -4.357,3.1357 -7.649,4.4764 -6.667,3.7773 -21.332,9.2584 -30.413,10.0076 -1.171,0 -1.247,-0.1455 -0.988,-1.9263 -0.212,-23.8559 12.436,-51.5842 19.436,-82.3144 z m 40.686,41.0304 c 0.183,0.01 0.314,0.2137 0.314,0.5441 0,0.4404 -0.231,0.8006 -0.514,0.8006 -0.283,0 -0.514,-0.2172 -0.514,-0.4831 0,-0.2658 0.231,-0.6268 0.514,-0.8013 0.07,-0.044 0.138,-0.063 0.2,-0.061 z" fill="#030303" transform="translate(-24.819385,-140.69168) matrix(0.2881372,0,0,0.2881372,-4067.0196,-1681.2978)"/>
</svg>
