<svg xmlns="http://www.w3.org/2000/svg" width="242.61667mm" height="208.18307mm" viewBox="0 0 242.61667 208.18307">
    <path d="m 13921.404,27162.293 c 0,0 -15.831,182.573 -13.332,300.001 2.499,117.427 18.546,233.318 21.309,353.823 -1.053,23.556 37.748,14.322 40.642,-0.475 2.894,-14.797 0.528,-141.812 0.528,-141.812 l 232.418,-5.327 c 0,0 29.068,21.899 58.4,25.924 29.332,4.025 60.109,-14.797 141.133,5.682 81.024,20.479 126.534,24.149 182.041,4.262 55.507,-19.887 167.308,-15.508 167.308,-15.508 0,0 2.237,80.495 7.762,113.64 5.524,33.145 3.001,34.892 14.309,35.25 25.333,0.801 29.096,-20.097 30.543,-42.351 1.446,-22.255 5.787,-243.615 2.63,-287.414 -3.157,-43.798 -13.283,-75.997 -38.011,-94.227 -24.728,-18.23 -200.325,-88.78 -287.399,-93.16 -87.075,-4.379 -172.834,32.316 -214.529,51.611 -41.696,19.295 -53.271,28.411 -59.848,48.653 -6.576,20.242 0.395,51.373 0.395,51.373 l -38.014,3.197 c 0,0 -2.235,-42.615 -8.943,-64.396 -6.708,-21.78 -35.118,-45.337 -90.756,-27.344 -55.639,17.993 -66.162,103.34 -66.162,103.34 l -36.303,18.941 1.76,-341.478 z m 482.514,611.314 c -23.085,0.169 -50.45,13.24 -59.946,21.109 -12.155,10.074 -15.547,23.793 3.698,35.416 19.246,11.623 74.451,13.631 74.451,13.631 34.642,-1.003 68.27,-8.616 66.396,-18.689 -1.874,-10.073 -48.771,-13.629 -48.771,-13.629 0,0 6.33,-23.701 -17.93,-34.549 -5.307,-2.373 -11.434,-3.336 -17.898,-3.289 z m 169.293,1.307 c -16.397,-0.149 -34.249,2.3 -42.809,7.086 -14.788,3.465 -18.689,23.154 -4.508,39.335 14.181,16.181 72.021,9.939 92.483,10.075 20.461,0.137 43.606,-2.871 44.67,-11.623 1.064,-8.751 -44.975,-11.213 -44.975,-11.213 0,0 -5.317,-13.947 -10.787,-25.16 -2.735,-5.606 -17.677,-8.352 -34.074,-8.5 z" fill="#fff" transform="translate(-178.04886,-137.81324) matrix(0.26458333,0,0,0.26458333,-3499.6612,-7022.5931)"/>
    <path d="m 14368.75,27847.212 c -13.071,-2.551 -36.628,-21.292 -40.413,-32.148 -4.336,-12.433 0.242,-19.406 21.58,-32.883 33.896,-21.408 66.247,-22.681 87.765,-3.458 6.901,6.169 9.311,10.918 9.491,18.718 l 0.241,10.45 16.692,1.522 c 24.006,2.189 33.346,7.376 34.486,19.157 1.205,12.502 -2.496,13.825 -50.495,18.07 -41.139,3.639 -62.845,3.796 -79.345,0.572 z m 73.671,-15.485 c 27.488,-2.43 37.859,-4.314 34.401,-6.25 -4.958,-2.773 -70.667,-0.969 -95.433,2.621 -7.051,1.022 -14.078,0.599 -15.617,-0.938 -8.461,-8.465 12.823,-22.271 42.871,-27.806 20.041,-3.694 20.19,-3.789 13.784,-8.974 -14.948,-12.105 -37.103,-9.7 -65.168,7.078 -20.823,12.448 -22.044,20.972 -4.433,30.945 14.008,7.935 30.521,8.547 89.595,3.324 z m 324.225,14.68 c -14.156,-8.12 -15.686,-15.676 -18.709,-92.495 l -1.98,-50.251 -32.376,-0.844 c -53.432,-1.395 -86.774,3.041 -130.198,17.324 -34.643,11.395 -41.918,12.761 -73.898,13.88 -38.7,1.355 -45.357,0.224 -107.888,-18.325 -41.398,-12.279 -44.635,-12.545 -111.111,-9.158 -47.356,2.413 -47.635,2.39 -64.35,-5.263 -10.978,-5.025 -18.561,-10.805 -21.903,-16.696 -3.545,-6.243 -6.473,-8.363 -9.549,-6.911 -2.438,1.153 -51.902,2.586 -109.92,3.188 l -105.487,1.093 -0.925,73.363 c -0.863,68.496 -1.317,73.799 -6.835,79.912 -5.129,5.679 -7.992,6.331 -21.635,4.929 -8.648,-0.889 -17.46,-3.056 -19.584,-4.819 -6.637,-5.507 -9.16,-31.148 -19.353,-196.702 -3.304,-53.65 -7.442,-110.846 -9.198,-127.102 -3.665,-33.945 -1.098,-244.328 3.584,-293.711 1.597,-16.851 5.173,-37.402 7.941,-45.666 4.829,-14.404 5.653,-15.187 19.818,-18.818 21.638,-5.544 27.607,-4.83 36.849,4.414 7.846,7.844 8.437,10.27 10.483,43.017 1.193,19.087 0.643,91.357 -1.221,160.595 -1.864,69.238 -2.818,126.462 -2.117,127.162 0.701,0.7 5.308,-0.814 10.235,-3.363 l 8.965,-4.634 -0.56,-41.4 c -0.309,-22.77 0.361,-41.401 1.489,-41.399 3.425,0 11.252,12.796 11.252,18.394 0,2.889 1.116,5.254 2.483,5.254 5.736,0 10.512,-17.866 11.061,-41.383 0.477,-20.402 1.481,-25.304 5.337,-26.078 5.925,-1.19 10.679,10.5 10.679,26.27 0,6.398 0.682,11.633 1.519,11.633 0.835,0 6.166,-2.993 11.848,-6.65 9.535,-6.141 17.208,-18.011 24.832,-38.428 1.669,-4.47 5.039,-8.128 7.486,-8.128 4.955,0 9.096,12.32 6.454,19.205 -1.333,3.472 0.751,4.441 9.533,4.441 6.181,0 18.708,1.5 27.837,3.334 15.348,3.082 18.387,2.698 40.326,-5.097 19.393,-6.889 24.414,-7.73 27.492,-4.602 5.806,5.904 -5.758,13.623 -27.226,18.181 -16.44,3.486 -17.722,4.288 -13.552,8.457 3.973,3.973 6.334,4.086 17.185,0.821 23.189,-6.977 28.838,-7.425 28.838,-2.283 0,6.661 -12.475,13.997 -24.89,14.637 -5.805,0.299 -10.518,1.875 -10.475,3.501 0.156,5.83 8.051,13.302 14.049,13.302 7.259,0 16.23,8.096 13.63,12.301 -1.004,1.625 -5.168,2.117 -9.252,1.093 -6.663,-1.671 -7.242,-1.141 -5.654,5.185 8.319,33.146 3.385,74.805 -11.54,97.413 -9.093,13.775 -26.937,25.801 -45.096,30.397 -12.599,3.187 -14.019,4.435 -15.361,13.51 -2.607,17.646 -20.691,13.033 -20.691,-5.282 0,-6.109 -1.38,-6.823 -13.197,-6.823 -23.264,0 -62.263,-27.461 -70.209,-49.435 -1.926,-5.327 -4.232,-9.679 -5.123,-9.672 -0.894,0 -5.948,2.647 -11.231,5.867 l -9.606,5.858 -0.251,31.819 c -0.132,17.5 -1.21,39.513 -2.383,48.917 l -2.135,17.096 69.632,-2.317 c 38.294,-1.275 89.385,-2.319 113.534,-2.319 h 43.905 l -2.152,-81.73 c -1.93,-73.422 -1.625,-83.407 3.026,-98.19 5.963,-18.958 20.174,-36.971 36.169,-45.847 72.736,-40.359 129.95,-61.16 186.992,-67.981 70.284,-8.405 117.569,-6.332 164.514,7.215 71.56,20.649 172.622,69.295 192.299,87.96 36.55,34.668 37.709,131.237 37.863,214.832 0.266,154.666 -2.184,199.303 -11.494,209.374 -2.506,2.709 -7.277,7.919 -10.604,11.577 -6.6,7.255 -18.647,8.57 -28.22,3.081 z m 22.999,-15.389 c 4.199,-3.186 4.872,-6.445 3.328,-16.102 -1.064,-6.659 -0.306,-36.169 1.684,-65.574 1.992,-29.405 2.98,-54.103 2.198,-54.886 -0.784,-0.782 -9.673,0.969 -19.754,3.891 l -18.328,5.314 1.746,10.346 c 3.171,18.781 7.748,101.306 5.937,107.012 -3.773,11.892 11.828,18.618 23.189,9.999 z m -830.019,-14.295 c 0.838,-3.657 2.125,-39.239 2.864,-79.069 0.738,-39.83 1.408,-74.84 1.49,-77.798 0.222,-8.069 13.182,-5.364 14.372,2.998 0.574,4.04 2.434,5.908 4.924,4.952 6.752,-2.591 179.263,-8.601 197.573,-6.883 9.459,0.886 17.589,0.889 18.067,0 0.478,-0.882 0.249,-9.586 -0.505,-19.34 l -1.374,-17.735 h -109.804 c -60.393,0 -113.295,-0.983 -117.56,-2.179 -13.814,-3.882 -15.264,-13.196 -15.232,-97.739 0,-42.59 1.815,-98.718 4.001,-124.731 4.975,-59.251 5.638,-224.393 0.92,-229.115 -3.653,-3.654 -28.56,-6.119 -32.979,-3.263 -4.915,3.177 -6.537,45.473 -6.992,182.13 -0.326,98.444 0.827,150.3 4.434,199.521 2.68,36.58 7.529,112.201 10.774,168.047 3.248,55.845 6.642,102.734 7.544,104.195 0.902,1.46 4.864,2.655 8.802,2.655 5.001,0 7.616,-2.004 8.681,-6.651 z m 616.958,-117.091 c 42.362,-17.621 85.945,-16.878 123.556,-18.196 39.83,-1.365 77.407,-3.416 83.504,-4.555 l 11.085,-2.074 v -76.583 c 0,-93.775 -3.295,-127.977 -14.264,-148.067 -4.348,-7.965 -10.342,-19.03 -13.321,-24.587 -3.384,-6.312 -7.629,-10.108 -11.309,-10.108 -3.239,0 -21.419,-7.404 -40.399,-16.455 -38.142,-18.19 -95.55,-40.971 -132.234,-52.475 -25.872,-8.114 -68.258,-13.834 -102.507,-13.834 -32.421,0 -89.82,7.89 -119.394,16.41 -29.219,8.418 -87.608,31.33 -118.39,46.455 -19.063,9.367 -20.453,10.751 -25.875,25.766 -5.446,15.077 -5.554,18.968 -2.182,78.159 4.232,74.317 4.573,158.05 0.683,168.281 -3.647,9.593 -0.07,12.41 20.442,16.133 11.865,2.152 26.031,1.761 53.205,-1.464 54.887,-6.513 76.51,-4.407 124.236,12.109 48.081,16.638 64.08,19.513 99.614,17.911 21.144,-0.956 35.285,-3.81 63.55,-12.826 z m -486.423,-170.367 c 2.224,-5.798 6.928,-5.636 11.336,0.391 3.037,4.156 5.043,4.325 14.441,1.223 26.811,-8.847 38.966,-30.735 38.652,-69.6 -0.155,-17.908 -1.938,-27.95 -7.389,-41.382 -6.959,-17.144 -7.594,-17.767 -19.023,-18.701 -15.264,-1.245 -78.635,7.89 -83.665,12.061 -2.122,1.759 -5.056,5.44 -6.522,8.18 -2.347,4.385 -1.266,4.288 9.045,-0.813 7.463,-3.692 14.427,-5.113 19.206,-3.914 9.447,2.373 7.205,6.051 -8.467,13.883 -6.799,3.398 -18.014,11.639 -24.925,18.309 -11.696,11.296 -12.56,13.217 -12.56,27.918 0,18.278 4.926,29.39 17.854,40.268 10.943,9.208 14.659,9.732 14.659,2.073 0,-3.12 0.785,-7.711 1.742,-10.207 3.023,-7.884 12.965,1.186 14.968,13.661 1.583,9.853 2.734,11.085 10.365,11.085 4.901,0 9.311,-1.903 10.283,-4.435 z m -29.413,-35.903 c -5.496,-5.494 -0.647,-33.562 5.795,-33.562 6.2,0 8.043,7.696 5.119,21.368 -2.514,11.74 -6.695,16.413 -10.914,12.194 z m 42.306,-104.708 c 6.637,-2.013 6.335,-2.253 -2.956,-2.361 -5.691,-0.07 -14.337,1.768 -19.214,4.079 l -8.868,4.2 11.823,-1.839 c 6.504,-1.011 15.151,-2.847 19.215,-4.079 z m 455.203,447.574 c -5.689,-0.54 -17.352,-2.421 -25.917,-4.184 -13.842,-2.851 -16.058,-4.369 -19.953,-13.69 -5.961,-14.268 -5.504,-22.31 1.794,-31.588 9.674,-12.3 22.364,-17.201 48.324,-18.666 31.527,-1.781 47.098,5.429 57.145,26.454 l 6.706,14.042 h 20.831 c 23.386,0 32.262,3.32 32.262,12.071 0,4.137 -3.831,7.691 -12.563,11.654 -10.726,4.868 -18.826,5.645 -55.423,5.294 -23.572,-0.224 -47.515,-0.849 -53.206,-1.387 z m 77.593,-12.076 c -8.535,-0.599 -22.502,-0.599 -31.037,0 -8.535,0.597 -1.553,1.083 15.518,1.083 17.07,0 24.054,-0.486 15.519,-1.083 z m -70.733,-6.347 c -1.169,-4.465 1.376,-6.574 12.837,-10.631 31.98,-11.317 33.581,-13.07 18.878,-20.672 -10.201,-5.274 -32.138,-5.832 -48.919,-1.244 -24.461,6.689 -29.35,20.546 -11.055,31.334 6.081,3.587 15.254,6.58 20.384,6.651 7.713,0.117 9.078,-0.834 7.875,-5.438 z m -476.844,-543.529 c -6.671,-2.381 -8.772,-6.943 -8.821,-19.169 -0.05,-9.098 -1.104,-11.085 -5.957,-11.085 -7.471,0 -7.711,-7.697 -0.362,-11.629 3.051,-1.634 6.192,-6.336 6.979,-10.451 1.75,-9.147 0.177,-9.34 -8.632,-1.062 -10.522,9.885 -11.885,3.802 -2.212,-9.868 15.784,-22.307 27.873,-23.413 27.873,-2.553 0,8.71 1.214,11.915 4.511,11.915 4.042,0 4.042,0.905 0,8.722 -8.405,16.25 -6.067,19.045 8.686,10.397 15.449,-9.053 26.283,-8.794 27.629,0.663 0.687,4.829 -1.572,7.741 -8.867,11.431 -5.383,2.722 -12.45,7.28 -15.701,10.126 -10.408,9.109 -20.566,14.189 -25.126,12.563 z m 87.937,-89.605 c -6.807,-3.97 -6.543,-13.549 0.746,-27.152 l 5.916,-11.041 h -8.871 c -15.519,0 -9.678,-12.773 7.932,-17.351 5.332,-1.386 10.179,-5.825 13.503,-12.358 4.793,-9.421 4.813,-10.275 0.277,-11.239 -6.525,-1.39 -39.203,5.636 -41.193,8.856 -3.014,4.877 -10.084,2.479 -10.084,-3.422 0,-10.631 29.236,-23.961 62.131,-28.324 12.903,-1.711 14.567,-1.217 19.084,5.673 4.677,7.138 4.61,8.303 -1.222,21.491 -3.392,7.666 -5.819,14.068 -5.395,14.223 5.056,1.84 12.472,7.284 13.296,9.757 1.754,5.263 -8.019,12.694 -16.691,12.694 -5.9,0 -9.138,2.1 -11.613,7.529 -1.886,4.142 -3.429,7.808 -3.429,8.152 0,0.341 10.37,0.154 23.047,-0.426 18.13,-0.822 23.861,-0.07 26.849,3.531 5.139,6.192 1.463,16.368 -6.494,17.971 -16.039,3.23 -63.008,4.225 -67.789,1.436 z m 105.368,-45.311 c -1.782,-4.647 -0.952,-10.716 3.367,-24.657 1.577,-5.087 0.888,-6.65 -2.934,-6.65 -8.64,0 -3.701,-9.947 6.373,-12.836 8.872,-2.545 14.854,-9.657 11.198,-13.31 -0.909,-0.911 -7.83,0.636 -15.384,3.433 -16.351,6.061 -22.836,2.764 -13.928,-7.081 13.479,-14.891 39.938,-20.373 47.639,-9.867 2.286,3.117 3.791,9.158 3.347,13.426 -0.443,4.267 0.936,9.857 3.064,12.421 6.097,7.346 2.834,15.014 -7.711,18.119 -13.015,3.836 -12.104,7.517 1.861,7.517 22.783,0 23.547,16.178 0.889,18.784 -7.606,0.876 -18.804,2.472 -24.883,3.548 -8.69,1.537 -11.448,0.929 -12.898,-2.847 z" fill="#030303" transform="translate(-178.04886,-137.81324) matrix(0.26458333,0,0,0.26458333,-3499.6612,-7022.5931)"/>
</svg>
