<svg xmlns="http://www.w3.org/2000/svg" width="120.01163mm" height="169.23044mm" viewBox="0 0 120.01163 169.23044">
    <path d="m 9913.6235,26379.461 c -14.391,0.02 -27.242,0.307 -34.07,0.83 -18.21,1.397 -61.667,1.583 -70.979,48.979 -9.312,47.395 27.211,80.359 27.211,80.359 l -14.38,43.018 c 1.0807,43.224 8.8331,75.212 48.007,93.674 34.131,3.986 52.779,8.565 73.356,-2.608 31.788,-24.84 46.5425,-54.11 50.595,-99.633 l -8.691,-60.711 c 0,0 10.76,-23.837 16.6585,-48.14 5.897,-24.303 -4.8625,-50.842 -23.6935,-53.447 -11.769,-1.631 -40.029,-2.351 -64.014,-2.321 z m 49.516,278.901 c -32.296,0.279 -77.613,4.695 -99.418,13.564 -29.073,11.826 -46.974,54.101 -48.422,92.557 -1.449,38.457 3.727,109.689 3.727,109.689 l 87.861,-7.219 c -34.083,14.936 -68.889,35.718 -89.285,57.412 -30.201,41.615 30.002,62.296 66.732,70.397 36.73,8.101 114.02,-15.738 122.4015,-41.158 8.381,-25.42 6,-70.209 -0.829,-85.946 -1.293,-2.98 -2.687,-5.859 -4.392,-8.48 l 38.512,-3.164 c 0,0 -0.931,-131.291 -3.414,-150.193 -2.483,-18.902 -20.797,-43.113 -46.8705,-46.372 -6.518,-0.814 -15.838,-1.181 -26.603,-1.087 z" fill="#fff" transform="translate(-45.827556,-63.551407) matrix(0.26458333,0,0,0.26458333,-2525.6394,-6912.6194)"/>
    <path d="m 13186.871,28804.457 c -20.55,0.258 -42.9,8.092 -57.131,21.481 -11.879,11.176 -20.275,31.764 -17.625,43.222 1.177,5.097 1.905,15.728 1.619,23.621 -0.65,17.837 3.455,30.613 12.473,38.926 -6.276,-0.405 -12.32,3.968 -13.088,3.979 1.879,-7.475 -6.689,-12.265 -10.81,-5.206 0.177,0 0.291,-3.059 -0.7,-5.613 -1.285,-3.311 -6.727,-4.891 -12.207,-4.814 -4.262,0.06 -8.547,1.119 -10.918,3.148 -4.798,4.105 -2.912,13.158 0.477,15.664 3.529,2.614 14.248,0.273 13.578,4.367 -2.478,15.136 8.078,11.07 10.459,10.469 2.395,2.632 0.114,7.621 2.145,11.094 -1.426,1.791 -3.078,4.447 -3.723,4.562 -0.09,0.02 -7.533,-9.296 -10.779,-9.296 -34.639,0.118 -21.1,26.504 -7.01,27.439 4.893,-0.766 4.829,-6.598 8.244,-9.33 3.187,12.495 8.357,13.337 13.963,9.664 -0.156,2.265 -0.165,4.59 -0.846,6.922 -18.757,-13.959 -12.728,1.231 -25.008,1.273 -3.34,-0.139 -6.941,2.922 -7.168,6.498 -0.1,4.965 5.441,9.198 9.164,9.696 5.07,-0.497 12.195,-2.049 15.418,-5.623 1.53,4.591 0.85,2.178 1.53,4.591 -6.649,-2.066 -15.044,4.33 -16.875,10.243 -13.571,9.041 6.63,32.65 19.793,19.025 1.384,-2.157 3.302,-12.102 3.373,-12.145 0.143,-0.09 0.29,-0.146 0.439,-0.193 0.533,6.769 6.851,13.593 15.592,2.893 1.306,0.32 2.605,0.629 3.904,0.884 -2.595,4.1 -0.203,8.813 -2.338,10.608 -6.01,-4.966 -12.605,-1.687 -13.058,8.56 -1.343,0.26 -2.671,-0.798 -4.033,-0.75 -3.096,0.111 -6.199,0.687 -7.963,3.799 -2.839,5.009 -0.416,15.45 4.619,16.801 9.586,2.572 14.882,-1.413 12.654,-9.172 2.743,3.845 4.605,4.404 8.901,1.141 3.108,-2.36 1.691,-7.144 3.343,-8.682 2.508,5.255 3.933,8.684 10.139,1.766 1.097,-1.255 2.62,-1.749 4.156,-2.188 11.931,23.288 28.879,34.1 61.305,40.797 11.103,2.293 18.808,5.484 19.758,8.176 0.857,2.43 2.817,6.049 4.357,8.039 v 0 c 5.629,7.274 16.571,1.61 16.571,-8.58 0,-3.491 5.111,-7.67 15.254,-12.471 19.517,-9.241 32.79,-21.424 41.293,-38.41 2.62,-0.193 7.55,-4.968 8.486,-3.863 1.443,1.705 -1.131,10.971 4.422,15.584 4.255,3.535 9.537,-0.942 10.345,-0.541 2.453,1.219 2.586,5.271 5.547,5.937 5.461,1.229 20.212,-4.814 21.176,-9.349 0.611,-2.872 1.166,-14.422 -8.978,-11.534 -16.237,5.22 3.664,-3.511 -18.801,-9.048 0.856,-1.923 1.141,-4.358 -0.196,-7.217 1.907,-0.758 3.682,-1.542 5.352,-1.092 1.629,0.444 2.571,5.178 3.777,6.445 4.861,5.102 15.667,0.09 17.793,-3.527 1.821,-3.097 -4.01,-20.377 -9.175,-18.557 -1.844,0.65 -4.907,2.981 -4.913,2.969 -0.36,-0.784 -0.133,-1.736 -0.382,-2.562 -2.657,-8.799 -9.613,-4.82 -10.373,-5.5 0.845,-3.771 4.182,-8.096 6.082,-3.6 4.382,6.16 7.852,3.294 14.22,3.935 -4.135,3.563 4.32,11.187 9.2,9.698 0.12,-0.168 0,0.458 0.06,0.676 0.973,4.528 -0.241,-2.079 1.221,6.543 0.791,3.882 6.474,4.587 10.178,3.333 1.037,-0.35 2.195,-0.907 2.957,-1.957 1.119,-1.541 2.53,-9.569 -0.116,-9.712 -1.75,-0.1 -1.464,0.567 -2.609,1.011 -0.384,0.149 0.565,-0.757 0.754,-1.215 0.923,-2.232 1.127,-3.015 1.217,-5.531 0.228,-6.025 -1.852,-10.056 -6.205,-12.144 -3.088,-1.481 -5.915,-0.539 -9.049,-0.539 -0.198,0 -1.288,-4.519 -1.393,-4.723 -1.736,-3.405 -3.802,-4.494 -6.959,-4.992 -2.644,-0.417 -5.684,0.419 -8.119,1.754 -0.716,0.393 -1.356,1.69 -2.088,1.349 -0.504,-0.234 -0.09,-1.414 -0.347,-2.023 -3.631,-7.009 -4.796,-2.623 1.431,-6.16 0.175,-0.1 2.292,-2.834 2.399,-2.834 1.16,-0.105 1.824,1.465 2.847,2.023 3.156,1.721 5.915,2.619 9.522,2.699 6.082,0.141 7.969,-2.066 10.644,-6.88 0,-0.01 0.842,0.906 2.848,1.484 1.282,0.369 2.989,0.293 4.273,0.203 2.63,-0.194 5.858,-0.591 7.42,-3.035 2.11,-4.151 2.669,-7.445 -0.972,-10.795 -4.755,-4.195 -11.497,-5.632 -15.684,-1.35 -2.217,3.023 -2.869,1.52 -5.01,-1.175 -5.907,-6.638 -18.721,-2.179 -23.759,1.714 0,0 -1.016,0.997 -2.698,-1.992 -6.267,-12.132 13.405,5.805 11.946,-12.049 1.881,0.594 3.246,2.722 5.498,3.166 5.551,1.093 13.909,-2.082 15.662,-7.826 1.155,-3.785 -3.382,-12.892 -7.08,-13.496 -2.336,-0.382 -6.83,2.365 -6.944,5.342 -0.315,-0.789 -0.599,-1.401 -1.287,-2.096 -12.371,-8.234 -21.443,-4.468 -23.387,4.795 -3.451,-4.884 -8.817,-4.813 -13.38,-2.785 0.452,-4.766 0.307,-10.223 -0.516,-14.09 -1.475,-6.909 -0.961,-11.515 1.617,-14.476 10.494,-12.058 14.36,-24.953 14.36,-47.776 -0.02,-49.542 -20.998,-63.308 -81.502,-53.49 -14.576,2.365 -20.084,2.084 -28.586,-1.469 -7.668,-3.203 -16.636,-4.652 -25.977,-4.535 z m -6.949,17.723 c 9.066,0.226 18.899,2.602 28.459,7.052 19.092,8.887 29.374,9.351 31.447,1.418 1.352,-5.169 3.951,-5.789 24.18,-5.789 19.614,0 23.729,0.915 30.572,6.803 6.607,5.683 8.118,9.681 9.176,24.305 1.915,26.472 -6.46,47.244 -21.34,52.937 -3.317,1.269 -12.984,3.191 -21.488,4.27 -8.504,1.079 -18.307,3.829 -21.789,6.107 -3.479,2.28 -16.399,6.074 -28.711,8.428 -12.314,2.356 -22.6,4.119 -22.858,3.924 -0.258,-0.2 -7.213,-1.35 -15.455,-2.555 -34.502,-5.047 -47.263,-19.012 -47.263,-51.758 0,-26.346 9.633,-40.277 35.796,-51.726 5.634,-2.466 12.223,-3.592 19.274,-3.416 z m 110.219,104.369 c 1.897,0 1.91,1.261 0.8,4.373 -1.061,2.979 -3.888,7.697 -6.281,10.484 -2.395,2.787 -5.455,5.067 -6.801,5.067 -3.02,0 -3.294,-17.344 -0.275,-17.414 1.195,-0.02 5.123,-0.831 8.73,-1.797 1.713,-0.459 2.964,-0.715 3.827,-0.713 z m -30.291,2.447 c 0.76,0.04 1.707,1.247 2.748,3.959 0.898,2.322 1.207,9.181 0.703,15.244 l -0.918,11.024 -3.121,-13.752 c -2.073,-9.137 -1.355,-16.587 0.588,-16.475 z m -18.268,11.686 c 2.32,0 3.133,4.259 2.434,13.029 -1.357,17.08 -7.366,17.997 -9.481,1.449 -1.058,-8.263 1.966,-14.478 7.047,-14.478 z m -83.4,9.22 7.75,1.481 c 4.262,0.815 8.519,3.487 9.459,5.939 2.817,7.338 -0.165,7.237 -8.93,-0.301 z m 56.423,2.36 c 4.48,0 5.793,1.931 5.793,8.517 0,11.35 -5.085,13.983 -8.689,4.5 -4.127,-10.85 -3.646,-13.017 2.896,-13.017 z m -23.316,3.041 c 2.713,-0.09 5.945,4.096 5.945,8.713 0,3.091 -1.213,5.619 -2.699,5.619 -3.112,0 -7.268,-11.262 -4.994,-13.537 0.525,-0.525 1.122,-0.774 1.748,-0.795 z m -5.398,33.49 c 18.849,6.466 43.611,6.287 65.332,0.277 0.387,0.452 0.796,0.903 1.244,1.352 2.767,2.587 14.59,-0.06 18.9,2.599 -2.257,15.423 15.891,9.099 19.037,14.458 0.592,2.076 0.989,3.506 1.45,5.15 -5.813,30.542 -16.438,45.837 -38.159,55.432 l -11.582,5.115 -6.051,-7.375 c -6.916,-8.433 -15.664,-7.208 -15.664,2.193 0,7.548 -10.134,7.691 -31.132,0.438 -18.804,-6.495 -25.347,-12.27 -34.842,-30.75 -4.225,-8.223 -6.385,-15.096 -7.637,-25.805 0.558,0.628 1.141,1.234 2.205,1.664 7.298,2.949 5.969,-10.815 9.895,-12.818 1.812,-0.924 6.393,6.129 11.693,4.722 7.751,-2.058 8.905,-10.758 14.094,-15.584 0.395,-0.367 0.793,-0.735 1.217,-1.068 z m 77.418,50.932 c -3.097,0.07 -6.904,0.712 -11.276,2.021 -10.498,3.145 -14.15,8.109 -9.435,12.824 3.681,3.681 20.843,1.91 25.371,-2.617 7.515,-7.508 4.629,-12.441 -4.66,-12.228 z m -82.248,0.644 c -7.956,-0.03 -9.336,7.231 -1.18,13.834 7.351,5.953 23.356,6.151 25.271,0.311 1.336,-4.071 -9.02,-11.047 -20.289,-13.664 -1.396,-0.325 -2.666,-0.477 -3.802,-0.481 z m 120.392,48.147 c -4.589,-0.04 -8.546,0.766 -11.207,2.453 -5.81,3.676 -2.255,7.41 11.318,11.888 15.794,5.215 26.251,18.471 34.829,44.161 7.314,21.9 7.788,30.38 5.904,104.984 -0.787,31.133 -0.987,31.988 -8.299,35.439 -4.119,1.946 -7.657,3.226 -7.853,2.844 -13.825,-26.382 -31.689,-26.923 -100.145,-3.029 l -21.908,7.646 -15.737,-11.73 c -23.721,-17.686 -33.277,-28.68 -29.201,-33.592 2.074,-2.497 2.718,-9.395 1.701,-18.199 -2.786,-24.114 -3.965,-26.962 -13.179,-31.727 -8.568,-4.429 -8.86,-5.187 -7.049,-18.148 2.914,-20.826 9.686,-42.554 15.502,-49.738 2.895,-3.574 12.255,-9.312 20.803,-12.747 17.56,-7.057 20.608,-11.378 11.474,-16.267 -8.072,-4.319 -26.476,2.276 -49.299,17.668 -16.228,10.948 -34.527,29.349 -34.527,34.719 0,5.334 8.852,6.346 14.088,1.607 2.852,-2.582 5.937,-4.695 6.853,-4.695 2.087,0 -0.73,23.266 -3.441,28.402 -1.927,3.659 -19.002,-20.062 -29.971,-41.643 -5.894,-11.597 -11.726,-16.246 -17.566,-14.007 -6.695,2.568 -5.847,13.28 2.746,34.763 l 7.457,18.641 -7.283,8.652 c -4.005,4.76 -11.279,16.795 -16.16,26.739 -7.218,14.701 -8.934,21.93 -9.172,38.681 -0.354,24.681 3.239,32.967 14.293,32.967 5.725,0 11.96,-4.051 22.127,-14.375 13.375,-13.579 27.959,-21.953 31.707,-18.207 0.931,0.932 1.695,11.721 1.695,23.973 v 22.279 l -15.201,1.826 c -8.362,1.003 -26.931,1.853 -41.264,1.893 -27.256,0.08 -35.222,2.37 -32.537,9.375 1.137,2.961 8.685,4.737 25.758,6.066 28.853,2.245 70.108,1.943 81.754,-0.599 11.819,-2.581 15.957,-10.063 9.508,-17.188 -4.777,-5.277 -10.545,-35.314 -6.782,-35.314 3.74,0 12.073,19.523 15.114,35.404 l 3.174,16.582 -18.653,16.476 c -10.26,9.063 -21.103,20.495 -24.095,25.405 -7.969,13.071 -7.16,31.077 1.88,41.822 11.215,13.327 49.526,35.158 69.387,39.541 21.282,4.695 42.106,5.113 59.358,1.188 28.302,-6.437 68.64,-20.235 73.324,-25.079 19.069,-19.719 42.336,-52.169 51.666,-72.06 16.108,-34.351 20.868,-55.25 21.043,-92.309 0.125,-28.057 -1.007,-35.639 -9.522,-63.699 -16.963,-55.904 -35.524,-83.185 -64.978,-95.492 -6.587,-2.752 -13.533,-4.192 -19.434,-4.24 z m -90.842,22.847 c -1.04,-0.03 -1.793,1.151 -1.793,3.86 0,2.042 -5.507,5.626 -12.234,7.965 -7.465,2.595 -13.661,7.077 -15.885,11.492 -5.049,10.021 -5.281,133.385 -0.26,138.406 11.347,11.345 14.584,-4.209 14.338,-68.914 -0.116,-31.054 0.444,-58.652 1.252,-61.328 0.806,-2.677 5.303,-5.71 9.991,-6.739 10.652,-2.338 12.403,-5.127 10.021,-15.972 -1.166,-5.306 -3.696,-8.72 -5.43,-8.77 z m 65.104,32.873 c -0.912,0 -1.829,0.145 -2.727,0.43 -8.411,2.669 -11.213,13.201 -4.767,17.914 5.787,4.231 15.04,0.816 17.886,-6.598 2.137,-5.569 -4.012,-11.801 -10.392,-11.746 z m -65.451,7.817 c -5.653,0 -7.239,1.482 -7.239,6.756 0,3.718 0.869,7.627 1.93,8.687 1.063,1.062 4.319,1.93 7.238,1.93 3.967,0 5.311,-2.193 5.311,-8.686 0,-7.334 -1.127,-8.687 -7.24,-8.687 z m -120.086,34.746 c 1.335,0 3.286,2.702 4.334,6.004 1.774,5.588 -4.639,13.908 -10.926,14.172 -1.194,0.05 -2.223,4.33 -2.293,9.504 h 0.01 c -0.07,5.175 -2.617,13.969 -5.67,19.544 l -5.551,10.135 -0.129,-8.164 c -0.136,-9.178 16.459,-51.195 20.223,-51.195 z m 121.793,0.937 c -1.321,-0.114 -2.617,0.264 -3.662,1.309 -1.738,1.737 -2.374,5.198 -1.416,7.693 2.175,5.672 9.459,5.926 11.576,0.407 1.656,-4.315 -2.536,-9.067 -6.498,-9.409 z m 63.814,1.959 c -6.931,0 -10.219,4.378 -7.875,10.487 2.475,6.454 11.691,3.566 12.77,-4.002 0.697,-4.873 -0.521,-6.485 -4.895,-6.485 z m 95.1,20.836 c 0.546,0.05 1.113,1.422 1.818,3.776 1.434,4.777 2.401,23.024 2.152,40.547 -0.483,33.861 -4.559,50.653 -21.035,86.644 -4.427,9.672 -10.525,20.584 -13.549,24.25 -5.5,6.642 -5.5,6.571 -5.5,-21.717 0,-15.61 -0.97,-31.84 -2.158,-36.066 -2.115,-7.538 -1.936,-7.657 9.237,-6.156 15.875,2.129 26.218,-0.932 26.218,-7.76 0,-3.06 -1.302,-6.371 -2.894,-7.356 -3.811,-2.355 -3.428,-19.796 1.176,-53.564 2.235,-16.396 3.333,-22.704 4.535,-22.598 z m -158.061,11.448 c -5.122,-0.122 -8.245,6.375 -5.775,12.81 2.763,7.197 11.902,3.695 11.902,-4.559 0,-4.522 -1.871,-7.516 -5.076,-8.136 -0.358,-0.07 -0.709,-0.107 -1.051,-0.115 z m 62.504,6.578 c -4.377,0.05 -8.487,4.398 -6.672,9.125 0.871,2.273 3.914,4.132 6.756,4.132 6.828,0 9.442,-7.35 4.172,-11.724 -1.309,-1.087 -2.797,-1.549 -4.256,-1.533 z m -63.791,28.343 c -3.46,0.109 -6.454,4.614 -4.644,9.33 0.957,2.498 3.127,4.54 4.818,4.54 4.692,0 6.987,-8.65 3.281,-12.356 -1.096,-1.096 -2.301,-1.55 -3.455,-1.514 z m 233.145,31.243 c -37.854,0 -44.76,1.158 -44.76,7.494 0,4.66 7.054,6.577 28.953,7.867 41.35,2.438 51.409,2.011 55.014,-2.332 2.877,-3.466 2.877,-5.221 0,-8.688 -2.845,-3.428 -11.093,-4.341 -39.207,-4.341 z m -156.159,1.955 c 8.507,-0.04 14.773,1.293 16.6,4.111 6.671,10.289 -6.298,31.652 -27.242,44.873 -6.072,3.833 -12.044,6.925 -13.268,6.856 -1.228,-0.06 -11.353,-8.517 -22.5,-18.788 -22.984,-21.174 -23.126,-20.566 7.157,-30.279 13.675,-4.387 28.316,-6.719 39.253,-6.773 z m -86.607,27.355 c 1.84,0.238 11.114,8.253 21.533,18.67 l 20.207,20.207 -8.431,4.981 -8.434,4.982 -13.367,-23.594 c -7.353,-12.978 -12.653,-24.313 -11.776,-25.189 0.06,-0.05 0.145,-0.07 0.268,-0.06 z m 116.93,7.012 v 10.431 c 0,5.738 -0.799,14.426 -1.776,19.305 -1.738,8.684 -2.063,8.841 -15.297,7.274 -16.192,-1.917 -23.146,3.307 -17.771,13.349 1.759,3.285 4.454,5.975 5.992,5.975 1.535,0 2.791,1.302 2.791,2.894 0,1.591 -2.173,2.897 -4.828,2.897 -13.617,0 -41.498,6.753 -41.498,10.049 0,2.117 -5.155,4.355 -12.205,5.302 -13.724,1.839 -21.545,9.277 -16.346,15.538 2.601,3.136 0.288,3.805 -12.357,3.609 -16.991,-0.271 -23.516,-1.914 -42.863,-10.785 l -12.829,-5.881 11.381,-1.76 c 29.806,-4.606 45.525,-9.099 73.188,-20.91 36.398,-15.546 64.113,-32.653 75.738,-46.756 z m -129.381,14.056 c 0.954,0.436 5.417,7.533 10.359,16.524 8.943,16.267 10.96,24.966 3.78,16.316 -3.844,-4.632 -15.56,-31.563 -14.284,-32.838 0.03,-0.03 0.08,-0.03 0.145,0 z m -25.356,2.911 c 0.314,-0.03 0.553,0.04 0.711,0.195 2.061,2.061 15.234,39.973 14.217,40.916 -0.342,0.32 -9.091,1.453 -19.443,2.518 -14.401,1.484 -20.161,0.943 -24.533,-2.317 -5.186,-3.866 -5.334,-4.968 -1.598,-11.951 4.872,-9.101 25.949,-28.992 30.646,-29.361 z" transform="translate(-45.827556,-63.551407) matrix(0.26458333,0,0,0.26458333,-2525.6394,-6912.6194) translate(-3313.5291,-2437.8203)" fill="#030303"/>
</svg>
