<svg xmlns="http://www.w3.org/2000/svg" viewBox="0 0 212.96268 280.21231" height="280.21231mm" width="212.96268mm">
    <path d="m 12596.021,2186.1262 a 52.555314,147.48291 7.1163755 0 0 -46.028,52.1686 36.654793,104.58922 10.500494 0 0 -5.625,-2.5263 36.654793,104.58922 10.500494 0 0 -54.734,93.6351 h -13.008 c -3.287,0 -5.931,2.6452 -5.931,5.9309 0,3.2856 2.644,5.9307 5.931,5.9307 h 10.953 a 36.654793,104.58922 10.500494 0 0 18.456,100.1391 36.654793,104.58922 10.500494 0 0 23.553,-13.8724 52.555314,147.48291 7.1163755 0 0 32.598,51.4613 52.555314,147.48291 7.1163755 0 0 70.24,-140.3415 c 166.359,-26.8066 334.47,-19.034 503.333,3.5721 -11.546,77.5745 1.236,143.0665 29.848,148.5572 13.878,2.6634 29.779,-9.4219 44.414,-33.7546 15.469,0.9441 35.225,-42.8007 44.771,-99.1369 8.714,-51.4123 11.637,-106.5723 -12.605,-109.756 2.85,-25.9327 -9.714,-51.3672 -24.8,-54.2625 -1.284,-0.2466 -2.59,-0.3676 -3.914,-0.3628 -28.646,0.1078 -61.055,58.0004 -75.158,133.4831 -183.242,-35.4042 -348.897,-33.0462 -503.942,-7.9023 a 52.555314,147.48291 7.1163755 0 0 -36.127,-132.8472 52.555314,147.48291 7.1163755 0 0 -2.225,-0.1156 z m 318.433,293.0363 a 62.06933,71.664814 34.353004 0 0 -62.479,37.8738 62.06933,71.664814 34.353004 0 0 17.071,92.3104 62.06933,71.664814 34.353004 0 0 90.726,-30.5486 62.06933,71.664814 34.353004 0 0 -17.072,-92.3105 62.06933,71.664814 34.353004 0 0 -28.246,-7.3251 z m 38.586,160.3424 c -10.441,-0.023 -23.09,1.0588 -38.195,2.5347 -60.419,5.904 -75.093,15.4856 -73.901,61.0872 23.842,127.9012 -0.17,151.0381 -8.993,175.3967 -8.824,24.3584 -6.958,56.7342 60.834,60.2468 69.966,3.625 80.097,-30.467 86.713,-49.633 6.618,-19.1661 12.473,-148.2896 14.679,-200.4425 1.655,-39.115 -9.812,-49.1217 -41.137,-49.1899 z" color="#000" overflow="visible" fill="#fff" paint-order="fill markers stroke" transform="translate(135.10147,110.82039) matrix(0.26458333,0,0,0.26458333,-3432.6892,-688.21897)"/>
    <path d="m 13525.553,14674.684 c -17.391,0.498 -32.952,11.999 -41.084,40.621 -2.387,4.932 -3.967,6.537 -6.436,6.537 -34.306,0.337 -43.901,50.616 -52.508,78.679 -5.32,17.345 -5.053,16.719 -11.982,17.668 -10.912,1.496 -14.343,5.499 -10.639,12.418 0.799,1.496 4.061,3.42 7.244,4.278 l 5.79,1.558 -0.633,14.385 c -0.849,19.281 0.406,53.369 3.365,68.906 3.193,16.753 13.504,18.459 22.625,18.116 13.206,0 23.68,-7.192 15.631,-10.729 -4.875,-2.142 -6.792,-7.649 -8.328,-23.902 -0.764,-8.097 -1.871,-17.294 -2.453,-20.442 -2.047,-11.016 -1.069,-53.592 1.607,-70.097 1.405,-8.655 3.133,-17.022 3.842,-18.596 0.711,-1.574 2.302,-7.428 3.535,-13.01 1.317,-5.966 5.763,-17.169 10.787,-27.181 4.701,-9.368 8.244,-15.744 7.871,-14.17 -0.372,1.573 -2.257,9.298 -4.189,17.166 -4.046,16.602 -7.01,38.971 -10.664,58.652 -6.869,41.298 -4.984,108.919 17.23,149.492 4.254,7.77 11.411,11.12 23.289,11.444 9.457,-0.626 26.356,-8.566 32.754,-16.928 14.883,-17.519 37.188,-90.204 41.473,-115.764 0.17,-10.136 -0.512,-9.582 14.455,-11.748 5.507,-0.797 13.404,-2.003 17.549,-2.682 l 7.537,-1.234 2.66,6.014 c 2.749,6.212 7.583,8.65 13.885,7.006 2.904,-0.758 5.542,4.846 11.861,25.185 1.588,5.114 5.229,15.736 8.086,23.604 27.271,75.665 59.115,165.743 104.422,246.316 l 17.998,36.027 c 0.443,19.247 1,38.245 3.381,57.409 23.229,123.445 -30.049,143.502 -18.881,173.545 2.45,3.737 2.368,4.311 -3.404,24.22 -17.73,62.212 -26.341,131.721 -34.907,187.766 -2.67,22.997 -4.053,70.81 -2.047,70.81 4.721,0 -1.36,3.965 -19.777,12.893 -28.405,13.771 -29.741,15.166 -21.984,22.922 7.635,5.719 54.296,-17.179 54.541,-28.654 -1.197,-0.741 -0.672,-2.079 1.781,-4.532 3.349,-3.348 3.429,-3.888 2.135,-14.142 -3.165,-60.329 12.858,-128.116 21.201,-185.901 5.579,-27.394 16.789,-68.666 18.654,-68.666 31.218,22.919 84.966,24.778 125.912,2.715 1.396,-1.16 2.359,-0.263 4.047,3.78 9.686,23.352 18.083,47.76 26.83,72.9 9.127,27.278 42.762,143.704 51.406,174.6 9.808,38.402 9.302,33.746 19.372,39.083 3.315,1.975 45.333,35.378 49.091,13.075 0,-3.884 -5.496,-8.134 -21.453,-16.592 -13.655,-7.237 -24.216,-14.827 -26.25,-18.863 -2.332,-4.629 -5.119,-13.8 -10.963,-36.088 -16.66,-63.41 -42.182,-148.174 -71.513,-223.625 -1.739,-7.499 -6.39,-14.307 -8.934,-21.561 9.316,-7.642 10.846,-13.765 14.52,-26.789 11.824,-49.851 18.905,-151.536 14.535,-208.674 0.912,-40.68 -9.309,-37.181 -8.883,-43.396 13.241,-41.164 20.223,-78.302 32.465,-116.121 15.797,-59.521 28.391,-98.369 56.097,-173.008 l 4.215,-11.356 1.994,4.073 c 3.352,6.839 6.282,7.706 10.948,3.238 l 4.047,-3.879 12.8,1.848 12.803,1.849 -0.705,5.645 c -0.386,3.105 -0.682,17.877 -0.652,32.826 0.04,22.03 0.679,30.704 3.379,45.777 5.035,27.582 13.207,77.733 52.98,65.141 5.731,-2.924 18.693,-16.558 18.693,-19.662 5.613,-6.848 -13.075,-7.499 -13.734,0.844 -2.455,6.002 -7.479,10.107 -14.225,11.629 -49.562,-5.119 -34.984,-169.807 -15.609,-207.081 7.591,-23.226 18.649,-49 21.022,-49 0.695,0 1.004,0.485 0.695,1.075 -5.142,9.803 -20.053,51.723 -25.293,71.109 -8.918,34.536 -14.113,93.927 -4.453,136.676 0.742,2.754 2.135,8.224 3.094,12.158 2.154,8.821 6.082,16.926 11.621,23.963 3.369,4.282 5.183,5.363 8.99,5.363 10.423,0 12.362,-4.008 4.252,-8.793 -6.812,-4.019 -9.575,-9.861 -14.115,-29.853 -12.914,-63.846 -3.36,-141.005 30.246,-208.258 5.629,-10.274 19.655,-30.471 31.379,-30.619 11.714,-0.148 14.133,38.055 9.134,42.719 -27.316,3.427 -45.049,69.551 -50.607,88.89 -3.559,17.333 -5.805,44.618 -4.676,56.82 0.566,6.122 1.528,16.925 2.135,24.006 2.529,24.784 9.026,50.107 37.439,39.006 15.675,-3.569 31.147,-70.281 38.036,-88.793 1.982,-7.633 3.301,-10.1 6.111,-11.447 5.425,-2.6 6.875,-8.308 3.387,-13.344 -2.204,-3.184 -2.598,-5.222 -1.766,-9.109 4.821,-22.652 8.927,-86.824 -14.975,-86.436 -4.111,-0.975 -4.123,-1.008 -3.326,-9.802 2.018,-22.25 -7.483,-41.433 -22.379,-45.184 -7.294,-1.837 -9.634,-1.553 -24.527,2.971 -10.446,3.172 -15.627,7.345 -28.211,22.716 -7.804,9.534 -18.668,33.999 -27.568,62.09 -5.227,16.498 -12.164,44.384 -12.194,48.987 -0.04,6.489 -1.565,7.6 -9.363,6.804 -17.308,-1.765 -19.227,-2.25 -19.227,-4.857 0,-4.16 1.422,-4.433 8.68,-1.676 6.564,2.494 7.024,2.501 9.164,0.137 3.394,-3.751 1.283,-6.788 -6.525,-9.381 -7.68,-2.551 -7.665,-2.533 -5.602,-6.387 2.182,-4.077 0.251,-7.162 -4.484,-7.162 -2.473,0 -4.533,-0.914 -5.039,-2.234 -0.954,-2.486 -8.417,-2.514 -11.725,-0.04 -1.068,0.797 -3.32,2.171 -5.006,3.053 -1.687,0.881 -2.905,2.356 -2.709,3.275 0.197,0.919 -0.973,1.672 -2.601,1.672 -2.23,0 -2.749,-0.654 -2.112,-2.66 1.844,-5.813 -7.607,-7.707 -13.199,-2.645 -2.498,2.261 -3.8,2.287 -17.605,0.35 -92.331,-12.254 -200.028,-9.366 -298.155,-7.133 -8.655,0.412 -17.507,1.03 -19.671,1.375 -3.192,0.509 -3.934,0.08 -3.934,-2.244 0,-4.296 -3.616,-4.861 -9.162,-1.434 l -4.942,3.055 -0.459,-3.988 c -0.38,-3.311 -1.048,-3.905 -3.929,-3.498 -5.556,0.784 -10.119,4.507 -10.119,8.255 0,2.686 -0.762,3.413 -3.577,3.413 -1.967,0 -3.576,-0.728 -3.576,-1.618 0,-2.239 -9.693,-0.544 -12.759,2.231 -2.074,1.877 -32.735,8.883 -33.678,7.695 -0.191,-0.241 0.22,-5.59 0.914,-11.885 1.775,-16.066 1.713,-51.142 -0.111,-62.289 -1.532,-9.358 -6.257,-25.302 -9.094,-30.695 -2.675,-5.083 -10.806,-13.857 -16.303,-17.592 -9.308,-4.896 -18.92,-7.654 -28.029,-7.392 z m 12.351,11.623 c 0.968,-0.02 1.93,0.08 2.885,0.324 8.138,2.042 16.314,14.155 21.356,31.635 2.575,8.926 2.906,14.345 2.996,49.892 0.07,25.443 -0.414,40.032 -1.325,40.303 -0.789,0.233 -6.461,1.492 -12.609,2.797 -10.182,2.161 -14.495,4.838 -11.93,7.402 1.824,1.825 12.02,1.599 20.911,-0.463 5.131,-1.19 10.945,-2.406 12.917,-2.701 7.721,-1.155 19.625,-3.381 25.758,-4.816 11.29,-2.642 12.875,-2.242 12.875,3.246 0,4.744 -0.122,4.838 -7.509,5.767 -4.131,0.52 -17.167,2.513 -28.969,4.43 -11.801,1.917 -24.998,4.012 -29.326,4.656 -7.191,1.071 -7.836,1.468 -7.479,4.608 0.214,1.889 0.623,3.671 0.908,3.957 1.002,1.003 10.219,0.939 17.785,-0.121 l 7.639,-1.071 -0.795,4 c -0.436,2.201 -1.193,6.576 -1.681,9.723 -5.852,32.663 -21.476,60.072 -30.383,91.391 -4.791,13.336 -20.492,24.343 -27.657,14.293 -6.028,-5.765 -13.373,-31.818 -17.091,-60.623 -2.77,-21.472 -2.98,-23.38 -4.063,-37.194 -2.106,-26.848 0.947,-54.974 9.295,-85.676 15.114,-55.587 30.978,-85.409 45.492,-85.759 z m 647.756,61.322 c 9.826,0.432 11.962,41.154 4.828,62.119 -1.287,7.829 -2.562,14.458 -2.834,14.729 -0.27,0.271 -3.507,-0.268 -7.193,-1.196 -7.736,-1.948 -13.674,0.104 -13.674,4.725 0,1.727 -0.857,2.532 -2.408,2.262 -3.097,-0.541 -4.589,5.048 -3.127,11.712 0.97,4.423 2.416,6.194 4.783,5.856 0.413,-0.06 2.082,1.223 3.707,2.848 2.227,2.228 3.987,2.726 7.153,2.031 2.494,-0.548 4.199,-0.333 4.199,0.531 0,7.35 -16.435,61.898 -20.756,68.889 -2.651,4.291 -8.658,-0.54 -10.303,-8.289 -1.887,-8.89 -1.214,-75.649 0.877,-86.86 3.705,-19.879 8.885,-36.091 16.676,-52.215 2.471,-5.114 5.59,-11.635 6.933,-14.49 4.404,-9.142 8.131,-12.784 11.139,-12.652 z m -401.201,51.07 c 41.752,0 87.112,0.855 123.402,2.617 15.93,0.774 60.016,4.529 64.373,5.483 1.178,0.258 6.186,0.968 11.12,1.576 4.934,0.608 9.247,1.553 9.585,2.1 0.338,0.546 0.241,2.424 -0.216,4.171 -0.748,2.862 -1.629,3.145 -8.871,2.844 -4.423,-0.183 -15.445,-1.179 -24.493,-2.213 -23.264,-2.659 -73.42,-5.731 -103.714,-6.353 -83.571,-1.715 -175.158,0.115 -193.481,3.867 -2.853,0.584 -3.217,0.09 -3.217,-4.375 0,-4.485 0.429,-5.058 3.934,-5.252 2.163,-0.12 4.576,-0.331 5.363,-0.471 14.815,-2.619 62.534,-4.002 116.215,-3.994 z m -155.553,7.543 c 2.315,0 2.86,0.955 2.86,5.008 0,3.219 -0.681,5.006 -1.907,5.006 -2.868,0 -3.814,-1.48 -3.814,-5.959 0,-3.1 0.673,-4.055 2.861,-4.055 z m -95.812,5.162 c -6.044,-0.248 -17.264,7.514 -17.156,13.188 0.06,3.115 3.295,7.322 7.412,9.638 4.494,2.53 11.716,1.946 12.271,-0.992 0.283,-1.496 -0.865,-2.658 -3.207,-3.246 -5.366,-1.347 -5.003,-7.374 0.637,-10.584 4.532,-2.579 5.278,-4.463 2.763,-6.978 -0.659,-0.66 -1.601,-0.98 -2.72,-1.026 z m 477.013,0.561 c 2.75,0 2.736,0.689 -0.128,5.056 -2.004,3.061 -4.842,4.763 -4.842,2.905 0,-2.809 3.215,-7.961 4.97,-7.961 z m -235.343,7.449 c 52.841,-0.05 103.969,1.255 161.203,2.637 7.985,0.784 16.353,1.397 18.597,1.361 3.818,-0.06 19.753,1.852 30.122,3.615 3.287,0.559 4.356,1.377 3.775,2.891 -1.607,4.188 9.154,11.886 12.266,8.773 1.111,-1.111 2.001,-1.095 3.15,0.05 1.18,1.181 0.824,3.789 -1.363,9.942 -6.858,19.31 -11.865,33.017 -14.02,38.382 -15.412,38.401 -28.288,88.965 -41.213,135.186 -8.289,26.861 -15.398,53.922 -23.121,80.826 -1.855,6.294 -4.268,14.662 -5.361,18.596 -1.723,6.196 -2.446,7.111 -5.393,6.836 -45.93,-4.401 -84.308,-3.632 -131.683,17.812 l -3.827,3.578 c -4.945,-9.594 -9.824,-19.222 -14.521,-28.941 -47.853,-88.924 -86.574,-187.313 -117.305,-287.957 0,-0.204 2.548,-0.129 5.66,0.168 5.233,0.499 5.725,0.234 6.555,-3.537 1.614,-7.323 1.931,-7.655 7.412,-7.758 2.974,-0.06 7.66,-0.345 10.414,-0.643 34.626,-1.276 66.948,-1.791 98.653,-1.82 z m -358.057,3.996 c 1.436,0 1.908,0.799 1.346,2.262 -0.477,1.244 -0.867,2.854 -0.867,3.576 0,2.101 -2.872,1.515 -3.748,-0.764 -1.041,-2.71 0.484,-5.074 3.269,-5.074 z m 719.148,10.481 c 0.561,0.05 0.553,1.801 -0.05,4.755 -0.618,3.028 -1.038,20.955 -0.948,39.838 0.138,27.587 0.606,35.317 2.385,39.34 3.551,8.036 8.372,12.597 13.867,13.121 6.02,0.574 7.627,4.81 2.549,6.711 -3.739,1.392 -6.776,3.554 -12.306,0.201 -4.978,-5.343 -7.249,-16.197 -9.067,-43.357 -1.43,-21.319 -1.413,-29.55 0.09,-43.027 1.021,-9.166 2.464,-17.04 3.205,-17.498 0.103,-0.06 0.195,-0.09 0.275,-0.08 z m 44.524,2.541 -4.65,1.398 c -2.557,0.769 -4.649,2.023 -4.649,2.787 0,0.764 -0.691,1.389 -1.535,1.389 -0.845,0 -1.324,-1.125 -1.063,-2.502 0.346,-1.825 2.023,-2.582 6.186,-2.789 z m -751.156,6.732 c 0.326,0.1 0.626,4.902 1.154,16.008 0.542,11.409 1.623,24.284 2.4,28.611 0.777,4.328 1.817,12.985 2.309,19.238 0.493,6.254 1.825,13.596 2.961,16.315 3.24,8.134 -17.877,8.281 -9.494,-75.607 0.269,-2.988 0.474,-4.623 0.67,-4.565 z m 52.625,101.311 c 0.377,-0.164 1.54,1.686 3.519,5.537 2.021,3.934 4.665,8.279 5.877,9.656 2.957,3.361 1.553,3.165 -3.006,-0.422 -2.046,-1.609 -4.382,-5.312 -5.191,-8.226 -1.167,-4.204 -1.576,-6.382 -1.199,-6.545 z m 411.209,8.605 c -10.194,0.201 -20.247,5.384 -27.063,15.676 -2.047,-0.09 -4.288,-0.155 -6.771,-0.197 -18.461,-0.319 -31.572,1.594 -41.321,6.027 -5.114,2.325 -20.144,12.741 -21.724,15.055 -0.448,0.657 -3.67,-0.735 -7.153,-3.096 -7.318,-4.957 -15.636,-5.937 -15.636,-1.842 0,2.478 6.267,8.287 12.55,11.635 l 3.25,1.732 -4.929,8.873 c -8.31,14.959 -10.874,24.723 -10.854,41.373 0.03,22.598 6.549,38.924 20.094,50.321 28.023,22.679 57.825,16.353 86.572,-4.227 11.36,-9.914 20.074,-21.454 25.823,-33.551 4.335,11.071 28.858,11.31 21.982,4.639 0,0 -12.592,-11.128 -6.975,-33.822 6.663,-26.919 10.747,-55.494 -4.664,-69.565 -6.742,-6.156 -15.005,-9.192 -23.181,-9.031 z m -34.321,24.028 c 3.246,6.574 18.686,11.415 27.821,11.949 6.474,8.419 11.131,20.061 11.519,29.982 0.131,3.346 -0.03,6.273 -0.353,6.504 -0.326,0.231 -4.777,-0.01 -9.891,-0.547 -30.986,-3.202 -59.324,-5.008 -91.525,-9.197 -2.832,1.75 -1.402,-4.329 2.017,-8.565 2.71,-3.36 3.844,-3.918 5.219,-2.57 1.188,1.165 2.579,1.28 4.301,0.359 2.101,-1.125 2.312,-2.162 1.217,-5.98 -1.095,-3.821 -0.831,-5.112 1.529,-7.473 2.639,-2.637 2.853,-2.66 2.853,-0.289 0,4.934 6.092,8.095 9.299,5.223 3.961,-3.547 11.747,-1.559 14.545,2.047 3.624,4.805 8.207,5.371 8.813,1.09 1.062,-7.491 -8.324,-14.58 -19.305,-14.58 -7.377,0 -4.704,-1.982 7.537,-5.588 11.819,3.512 18.048,0.604 24.404,-2.365 z m 13.998,17.738 c -1.024,-0.03 -2.046,0.06 -3.052,0.289 -6.462,1.457 -8.133,3.159 -6.901,7.035 1.413,4.456 6.677,6.526 10.879,4.277 3.043,-1.628 3.696,-1.374 6.977,2.709 1.99,2.479 4.755,4.51 6.144,4.51 2.059,0 2.372,-0.846 1.707,-4.619 -1.376,-7.816 -8.582,-13.994 -15.754,-14.201 z m -75.511,29.023 c 0.488,-0.05 1.974,0.524 3.584,1.395 25.987,4.103 57.433,5.193 77.314,8.535 13.45,0.179 13.778,0.977 4.402,10.762 -16.237,16.509 -47.701,25.549 -72.212,21.261 -7.807,-2.465 -13.142,-8.657 -11.903,-13.812 0.435,-1.811 0.226,-8.762 -0.463,-15.449 -0.69,-6.688 -1.08,-12.375 -0.867,-12.635 0.03,-0.03 0.08,-0.05 0.145,-0.06 z m -10.149,27.711 2.278,5.111 c 4.54,34.988 56.986,21.31 85.158,9.879 2.505,-0.919 7.169,-4.082 10.359,-7.029 3.192,-2.946 6.072,-5.091 6.397,-4.766 1.734,1.734 -8.394,16.55 -17.946,26.254 -26.162,26.37 -64.3,32.876 -84.213,-12.332 -1.673,-5.032 -2.816,-10.941 -2.537,-13.133 z m 92.11,89.008 c 11.91,-0.112 22.205,0.299 28.679,0.826 12.781,1.852 14.238,3.727 15.811,20.344 1.868,19.784 1.935,93.996 0.1,112.986 -3.972,41.049 -5.382,78.605 -18.818,119.449 -5.256,-3.787 -5.102,-14.59 -16.375,-9.498 -3.621,3.184 4.791,16.261 7.619,23.811 l -5.97,3.484 c -29.674,17.162 -71.708,19.248 -107.131,-0.502 -17.899,-12.341 -15.822,-24.995 -5.565,-44.81 13.225,-26.391 14.636,-33.347 15.457,-76.198 0.702,-38.444 -11.198,-99.444 -5.052,-123.742 5.25,-20.765 55.516,-25.813 91.246,-26.15 z" transform="translate(135.10147,110.82039) matrix(0.26458333,0,0,0.26458333,-3432.6892,-688.21897) translate(-938.144,-12492.376)" fill="#030303"/>
</svg>
