<svg xmlns="http://www.w3.org/2000/svg" viewBox="0 0 320.25586 254.97966" height="254.97966mm" width="320.25586mm">
    <path d="m 21281.361,6985.5684 c -67.848,-172.2411 148.815,-228.2882 177.159,-43.5032 l 33.642,-4.8085 178.967,283.0096 c 77.877,-9.9759 105.795,21.9331 105.273,77.6902 131.962,41.1732 299.159,69.5685 415.597,154.4386 0,0 -180.998,102.3342 -198.862,114.7311 -17.868,12.3976 -31.338,26.4334 -78.814,-0.9015 -85.884,-49.4525 -447.668,-148.2965 -451.692,-144.3333 -84.118,-129.3639 -191.895,-253.5263 -257.602,-385.634 z" color="#000" overflow="visible" fill="#fff" paint-order="fill markers stroke" transform="translate(429.02451,170.75286) matrix(0.26458333,0,0,0.26458333,-6014.6821,-1975.2435)"/>
    <path d="m 21742.222,7778.158 c -0.461,-2.3081 -1.239,-23.7793 -1.777,-47.7144 -1.567,-69.1994 -11.473,-225.471 -15.19,-229.3389 -7.387,-7.695 -202.374,-59.7965 -236.57,-63.9788 -17.34,-2.1212 -19.393,-2.9787 -25.465,-4.6647 -32.101,34.5006 -66.03,89.7134 -89.751,122.7258 -21.057,29.2364 -44.87,57.8412 -47.674,65.2249 -2.807,7.3838 -8.689,13.425 -13.071,13.425 -11.187,0 -23.49,-11.1953 -14.412,-18.0487 7.782,-5.877 49.718,-61.7726 82.981,-110.6149 10.552,-15.4873 27.299,-39.303 37.215,-52.9236 9.917,-13.6207 26.418,-39.0552 26.418,-39.0552 -5.053,-10.771 -23.74,-31.9894 -50.813,-72.9522 -22.148,-33.5208 -41.931,-62.04 -46.892,-71.0032 -2.678,-4.8407 -22.164,-32.2418 -42.582,-59.1028 -20.412,-26.8614 -39.007,-62.1551 -39.007,-65.0795 0,-12.7595 20.837,-0.512 39.92,33.9913 10.249,18.5232 24.256,42.6175 30.59,49.6572 6.328,7.0397 31.655,42.7501 56.281,79.3565 24.627,36.6065 51.086,73.131 58.802,81.1649 l 14.022,14.6078 23.689,-10.4797 c 13.03,-5.7644 23.623,-12.3376 23.531,-14.6082 -0.103,-2.2701 -15.006,-14.1337 -33.151,-26.3633 -80.917,-54.537 -112.543,-104.2397 -127.739,-200.7338 l -2.862,-18.1783 -92.263,2.1775 c -78.348,1.8493 -95.73,0.8555 -115.216,-6.586 -27.738,-10.5934 -33.8,-20.3246 -28.185,-45.2236 28.555,-72.2222 111.29,-126.4545 145.597,-160.3587 0.682,-40.5272 23.556,-72.4392 43.815,-86.0205 16.655,-11.1611 30.474,-15.8283 51.347,-17.3376 41.686,-0.051 54.792,17.6792 81.819,44.9538 12.359,-9.3298 28.953,-3.3919 9.288,14.2124 3.988,8.185 6.03,12.7002 12.43,10.2458 4.271,-1.6399 30.56,-6.7936 58.422,-11.4515 52.252,-8.738 78.865,-5.7786 78.701,8.7508 0,3.5894 -13.88,31.8691 -30.759,62.8437 -27.55,50.564 -42.827,80.677 -57.419,113.1758 -6.62,14.7403 15.468,49.5221 59.938,94.3826 31.103,31.3786 74.753,57.4583 82.761,49.4484 4.265,-4.2648 -11.525,-31.3106 -62.61,-107.2266 -26.485,-39.3563 -48.151,-74.758 -48.151,-78.67 0,-12.5574 15.374,-7.5886 21.559,6.9664 3.287,7.7437 31.261,52.6697 62.169,99.8357 l 56.189,85.7563 h 23.143 c 32.755,0 66.613,17.5143 75.644,39.1295 3.948,9.4536 8.073,17.1881 9.17,17.1881 1.091,0 27.16,-10.1172 57.925,-22.4825 63.817,-25.6481 121.134,-38.9548 167.785,-38.9548 40.114,-1.4002 63.844,23.5633 63.993,54.7361 0,32.4834 -10.804,74.593 -34.247,133.4787 -11.489,28.8628 -20.182,49.3563 -20.182,49.3563 0,0 27.585,15.4566 47.962,26.0165 l 37.052,19.1997 33.257,-19.7992 c 18.288,-10.8892 33.295,-21.5604 33.341,-23.7137 0.154,-6.2742 -30.406,-23.1814 -67.745,-37.4926 -19.01,-7.285 -34.558,-15.3476 -34.558,-17.9173 0,-9.1946 13.582,-4.4854 90.875,31.5041 41.691,19.4117 53.149,32.6463 33.279,38.4291 -14.673,4.2694 -72.956,34.6814 -72.956,38.0676 0,1.7208 13.243,14.449 29.438,28.2847 24.605,17.2695 58.257,77.9057 73.09,66.1614 l 46.595,-27.4098 c 23.126,-13.6048 43.268,-24.8899 45.853,-23.294 9.046,5.5913 4.567,17.4621 -9.385,24.8704 -7.746,4.1116 -29.684,18.8162 -48.761,32.6764 -42.688,31.0213 -56.316,30.8463 -70.207,-0.8995 -15.113,-34.537 -78.568,-88.1677 -142.494,-120.4382 l -31.804,-16.0536 -17.837,39.1505 c -9.815,21.5328 -17.842,42.0723 -17.842,45.6434 0,11.3002 10.516,6.7734 19.88,10.3813 29.29,-20.1156 85.571,-53.2078 90.466,-50.1847 6.655,4.1139 0,14.654 -14.571,20.6989 -9.128,3.7901 -50.353,26.8829 -58.621,34.3967 5.836,1.495 10.618,2.8148 25.205,5.4408 29.008,5.2216 78.076,26.3638 65.03,39.409 -7.724,7.7283 -35.873,-0.8084 -45.801,-8.0437 -18.104,-13.1911 -52.442,-16.2108 -82.336,-18.2868 -16.015,-1.1125 -27.892,-12.6158 -30.228,-16.3957 -4.478,-7.2459 2.842,-25.1872 10.276,-25.1872 6.819,0 42.351,-77.7013 37.605,-82.2365 -6.358,-6.0761 -100.921,-44.4124 -137.164,-55.6068 -17.837,-5.5105 -51.361,-12.6101 -74.494,-15.7776 l -42.063,-5.7589 -14.576,13.9674 c -13.542,12.9725 -18.328,14.1218 -67.187,16.1426 -46.354,1.9168 -57.091,0.6364 -90.344,-10.7741 l -37.732,-12.9494 -27.534,11.2195 c -15.144,6.1708 -27.54,12.5491 -27.545,14.1745 0,1.6251 14.391,5.6277 31.994,8.8947 42.177,7.8296 215.609,57.0912 293.107,83.2532 78.855,26.6208 149.103,58.8576 140.897,71.9682 -4.685,9.491 -104.414,-45.6254 -188.317,-68.2072 1.071,22.2152 7.04,93.9884 4.517,179.1585 -1.256,42.444 4.524,66.3026 6.276,85.3605 1.367,14.8766 -21.912,10.3087 -23.049,4.3176 z m 316.668,-495.695 c 4.747,-52.3186 -16.643,-55.1493 -53.25,-54.495 -87.743,1.2354 -172.276,45.8318 -219.367,65.3576 0,4.7757 -8.034,31.6822 -15.048,44.8718 -8.99,16.9121 -10.879,24.4962 -6.399,25.7289 3.496,0.961 26.7,5.3896 51.566,9.8407 28.123,5.0339 70.699,18.6146 112.635,35.9271 37.083,15.3091 72.655,29.2196 76.075,29.5191 20.864,-46.9643 48.725,-103.6269 53.788,-156.7502 z m -123.877,63.4636 c -19.712,-5.5861 -55.421,-14.9215 -79.358,-20.7452 -23.934,-5.8237 -45.667,-12.5957 -48.299,-15.0486 -10.993,-10.2637 4.11,-10.4576 36.622,-0.471 19.092,5.8663 56.604,16.8261 83.355,24.3547 26.75,7.5287 52.094,15.642 56.317,18.0299 13.783,7.7934 -10.188,4.7767 -48.637,-6.1202 z m -243.19,46.6116 c 6.241,-4.0348 5.581,-4.9775 -3.537,-5.0414 -13.066,-0.092 -20.301,-9.0078 -13.133,-16.1785 2.734,-2.7325 17.714,-6.2835 33.284,-7.8906 26.729,-2.7586 28.977,-4.1036 40.175,-24.0236 12.266,-21.823 16.664,-50.2072 12.112,-78.1995 -2.118,-13.057 -6.527,-17.7006 -23.063,-24.3189 -11.248,-4.4994 -34.14,-8.1804 -50.871,-8.1804 -46.405,0 -81.825,-15.663 -122.767,-54.2856 -31.189,-29.4223 -87.231,-103.3979 -87.231,-115.1464 0,-9.255 -26.946,-6.8436 -48.602,4.3499 -30.688,15.8594 -48.673,33.88 -48.673,48.7679 0,8.1619 -6.974,12.5081 -7.967,17.2966 -3.809,18.3866 15.948,107.4094 54.828,152.6627 34.097,39.6828 108.533,91.6173 160.489,108.1184 24.36,7.7375 94.056,9.1117 104.956,2.0694 z m -339.411,-289.4729 c 7.869,-5.1468 23.52,-19.45 34.784,-31.7855 21.335,-23.3653 42.683,-32.3484 81.916,-34.4684 17.965,-0.9708 22.83,-4.188 39.638,-26.2011 23.289,-30.5031 66.542,-113.6882 62.507,-120.218 -4.315,-6.9793 -42.289,-5.7158 -73.787,2.455 -15.2,3.9422 -29.53,7.3739 -44.09,10.5498 1.643,13.1747 6.062,23.2669 4.955,28.1685 -2.099,9.3497 7.47,-0.43 22.343,-1.303 15.84,-0.9287 18.656,0.7306 22.045,12.9905 4.466,16.1492 -3.04,24.6573 -7.991,9.0583 -3.682,-11.6107 -6.861,-12.3274 -24.647,-5.5637 -8.596,3.2686 -13.496,10.0978 -15.712,21.8932 -29.229,75.0509 -93.216,96.722 -145.878,52.7969 l -26.418,-22.5486 -19.118,8.8141 c -49.712,22.9199 -50.097,23.9811 -24.488,67.6785 9.722,16.5828 16.026,31.9975 13.363,32.8156 -10.705,3.2885 -19.04,-17.7297 -24.574,-23.5872 -8.08,-8.545 -8.459,-15.4449 -17.388,-26.2748 -20.028,-24.2989 -12.308,-30.8267 29.384,-52.8269 16.602,-8.7614 35.531,-20.0276 33.872,-21.9485 -8.734,-10.1336 -13.399,-31.6331 -13.399,-31.6331 -8.668,-0.5723 -94.198,77.3973 -114.233,106.4854 -33.284,48.3311 -12.989,58.6777 109.64,55.894 69.624,-1.5804 85.27,-3.3887 97.276,-11.241 z m 73.484,-118.8187 c 13.471,-21.2123 15.263,-28.2654 13.973,-55.0484 -1.333,-27.6888 -6.54,-40.9229 -6.54,-40.9229 -22.531,18.9765 -25.264,-2.1621 -8.958,-14.5017 0,0 -7.742,-10.4675 -13.353,-10.4675 -4.12,0 -7.265,4.4379 -8.739,10.0697 -1.47,5.6317 -3.917,12.3042 -7.086,12.3042 -8.898,0 -14.715,-25.2681 2.192,-34.7069 -2.182,-3.5127 -10.696,-11.217 -35.511,-13.4435 -29.716,-2.6663 -53.513,8.2921 -69.409,31.9638 -25.911,38.5785 -20.525,86.4562 3.307,118.0007 25.706,34.0188 93.41,53.4264 130.124,-3.2475 z m -95.31,1.688 c -13.393,-9.7937 -7.029,-14.7753 10.404,-8.1461 12.717,4.8351 15.789,3.5623 31.431,-13.0206 14.222,-15.0773 17.334,-16.5999 17.334,-8.4737 0,13.3548 -24.323,36.9012 -38.116,36.9012 -6.119,0 -15.595,-3.2675 -21.053,-7.2608 z m 5.382,-69.5814 c -10.844,-17.5512 17.683,-38.2515 32.418,-23.5198 7.525,7.5281 7.265,8.2061 -3.134,8.2061 -7.925,0 -11.334,3.0831 -11.334,10.2394 0,10.6267 -12.36,14.1199 -17.95,5.0743 z" fill="#030303" transform="translate(429.02451,170.75286) matrix(0.26458333,0,0,0.26458333,-6014.6821,-1975.2435)"/>
</svg>
