<svg xmlns="http://www.w3.org/2000/svg" viewBox="0 0 138.78815 126.00056" height="126.00056mm" width="138.78815mm">
    <path d="m 14901.392,6313.2182 c -1.037,0 -2.086,0.03 -3.146,0.077 -67.84,3.052 -61.322,60.3971 -61.322,60.3971 l -61.301,29.8023 55.71,95.3732 c 0,0 40.702,-27.1517 49.727,-19.7119 58.486,61.1825 127.769,-49.7257 105.162,-51.6777 0,0 -8.896,21.2761 -54.032,20.9836 -45.137,-0.2924 -32.283,-24.9573 -18.439,-36.3261 13.844,-11.3687 74.042,-14.0776 74.042,-14.0776 0,0 -21.034,-85.0925 -86.401,-84.8404 z m 28.54,219.1907 c -4.089,-0.011 -8.284,0.1067 -12.583,0.3476 -91.715,5.1394 -56.994,111.6299 -43.431,187.0701 -4.858,11.8291 160.89,41.1004 163.841,12.0114 14.808,-145.9513 -24.679,-199.207 -107.827,-199.4291 z" color="#000" overflow="visible" fill="#fff" paint-order="fill markers stroke" transform="translate(85.322335,-110.88293) matrix(0.2881372,0,0,0.2881372,-4328.9196,-1706.4073)"/>
    <path d="m 14901.77,6307.0315 c -20.147,-0.07 -41.93,6.025 -58.262,22.4832 -7.603,6.7581 -12.275,17.2396 -13.717,27.1093 -0.581,2.7239 -1.264,5.4703 0.326,7.1769 6.386,6.6088 7.615,-1.3044 11.123,-7.7434 25.528,-46.6843 86.611,-42.646 111.73,-16.4584 1.635,1.2829 2.688,3.1381 3.956,4.3604 3.177,3.044 3.106,4.8262 -0.09,2.2461 -0.798,-0.6449 -2.453,-1.8166 -3.678,-2.6042 -2.05,-1.3179 -2.487,-1.4047 -5.486,-1.0835 -4.106,0.4396 -4.861,1.7038 -2.861,5.6915 3.839,4.9701 8.537,11.732 16.526,10.7028 0.755,-0.39 1.507,-1.0646 1.674,-1.4988 0.566,-1.4751 2.324,-0.8736 3.668,1.255 0.71,1.1246 1.291,2.3796 1.291,2.7886 0,0.7931 -4.979,3.3491 -8.686,4.4598 -4.842,2 -3.583,4.4047 -1.035,6.9286 3.139,2.8205 7.41,6.4903 14.275,3.617 0.981,-0.8873 1.042,-0.8781 1.773,0.28 1.302,4.8744 1.159,8.3051 1.459,13.6404 0.422,2.369 -2.548,2.1116 -5.614,2.8526 -20.618,4.6049 -37.796,4.6797 -65.008,19.1927 -6.473,3.6527 -16.063,10.4861 -3.942,26.1734 13.806,17.464 33.936,20.4707 52.138,11.7946 9.047,-4.6388 15.564,-5.9567 23.116,-9.0159 0.174,-0.2825 0.881,-0.5132 1.57,-0.5132 1.827,0 1.765,0.8857 -0.588,8.2184 -0.499,1.5538 -2.038,4.7187 -3.421,7.0331 -3.948,6.6048 -11.065,16.1972 -19.241,22.8745 -13.778,11.3428 -36.042,16.6387 -52.018,11.4223 -3.003,-0.9969 -19.044,-9.8415 -16.808,-11.3665 3.845,-2.4834 8.985,-10.8905 5.993,-15.2244 -0.558,-0.7089 -1.014,-2.0155 -1.014,-2.9038 -7.902,-13.3034 -20.802,-38.0086 -27.343,-38.5443 -2.306,-0.8753 -4.951,-0.8446 -10.669,0.1242 -0.424,0.072 -0.887,-0.084 -1.028,-0.3454 -0.141,-0.2619 1.362,-1.2795 3.34,-2.2611 6.437,-3.1964 16.224,-3.7155 13.55,-12.5833 -0.62,-2.3757 -3.061,-3.6712 -6.039,-3.2062 -1.025,0.1598 -3.01,0.1153 -4.414,-0.099 -2.512,-0.3827 -2.56,-0.4243 -2.991,-2.6027 -0.399,-2.0164 -0.316,-2.3264 0.922,-3.4741 1.128,-1.0457 1.302,-1.5426 1.023,-2.9187 -0.848,-4.1603 -1.424,-5.5351 -3.721,-8.8752 -3.7,-6.1152 -8.35,-11.9257 -13.54,-16.2838 -3.119,-2.7734 -4.362,-1.8667 -7.432,-0.8237 -12.684,4.5104 -37.48,21.235 -53.233,30.0507 -5.565,3.5631 -5.093,4.4906 2.047,17.262 1.406,3.4442 2.505,6.6686 3.809,11.1709 0.287,0.9888 1.093,3.0336 1.792,4.5448 1.981,4.782 0.449,8.3752 1.139,13.6901 0.571,4.1823 2.597,11.0606 3.62,12.2936 1.199,1.4445 0.719,4.1864 -1.244,7.0978 -2.442,3.461 -4.437,7.0188 -7.044,10.3726 -25.21,35.9209 -44.822,90.2473 -54.128,135.1253 -0.134,2.2601 -0.461,5.3181 -0.728,6.7954 -0.91,5.0507 -1.21,15.6826 -0.567,20.0829 2.011,12.977 16.115,26.0656 30.654,22.9535 1.387,-0.4206 3.114,-0.7655 3.837,-0.7704 29.765,-7.3846 55.002,-47.9793 82.777,-70.2422 1.705,-2.0438 3.276,-3.6075 3.49,-3.4748 -2.187,20.5493 6.554,36.4992 8.766,60.8696 1.439,11.6384 1.579,14.2461 1.854,34.6729 0.301,22.2939 0.311,24.2983 0.139,28.5399 0,11.4593 12.392,22.7274 16.672,6.6825 1.551,-10.1106 1.758,-48.018 0.321,-58.604 -0.287,-2.1135 -0.622,-4.883 -0.745,-6.1544 -0.489,-5.0296 -1.807,-14.7774 -2.327,-17.2078 -0.542,-2.5313 -2.056,-10.4369 -3.347,-17.4651 -0.362,-1.9776 -1.038,-5.3296 -1.501,-7.4485 -2.062,-9.4451 -2.439,-11.3973 -3.327,-17.2079 -1.519,-9.9472 -1.849,-26.7864 -0.614,-31.3344 2.424,-7.2594 10.775,-7.7238 15.956,-11.7886 19.463,-10.2316 53.546,-18.5763 81.535,-11.8842 11.371,1.6877 22.754,8.0084 31.002,15.9475 8.232,8.9828 13.96,20.5017 19.966,31.3404 10.472,18.6327 16.067,59.9361 15.751,82.4589 0.486,9.6026 0.477,41.0148 -0.02,53.8079 l -0.479,12.4568 c 3.79,4.0347 7.394,4.2982 9.354,-1.8232 0.808,-1.7089 1.747,-4.7141 2.085,-6.678 1.218,-6.9248 5.513,-15.0967 5.22,-23.8602 0.282,-2.9665 0.729,-5.8564 0.993,-6.4215 0.653,-1.3992 1.441,-32.2601 0.969,-38.0115 -0.208,-2.5427 -0.508,-7.1657 -0.665,-10.2734 -0.84,-15.9214 -4.31,-34.3449 -10.021,-50.6437 -1.538,-5.8614 -4.803,-10.8553 -5.86,-16.621 26.492,21.6915 59.611,36.3581 86.232,49.4783 14.173,6.9531 32.554,-14.29 30.591,-28.7158 0.294,-5.3177 -0.47,-13.6083 -0.324,-13.8443 -0.412,-11.8443 -2.798,-24.2623 -5.629,-36.9951 -4.709,-21.1706 -9.67,-47.0804 -18.069,-71.4003 -0.953,-2.9664 -2.343,-7.3584 -3.088,-9.7599 -1.657,-5.3325 -2.559,-7.832 -3.828,-10.587 -0.534,-1.1611 -0.971,-2.3797 -0.971,-2.7089 -0.171,-1.8358 -8.424,-13.7074 0.424,-10.6787 0.473,0.4246 1.67,0.9199 2.658,1.1 42.263,11.0751 74.454,-12.2263 90.458,-35.1561 0.438,-2.2693 2.292,-13.2846 -7.094,-8.4334 -0.788,0.1892 -2.057,0.6587 -2.82,1.0429 -3.377,1.7001 -3.809,0.4782 -1.182,-3.3409 2.372,-3.4771 4.091,-7.8861 4.614,-12.1498 0,-2.7843 -0.168,-3.3059 -1.788,-5.2567 -5.827,-6.4985 -20.781,10.6837 -18.736,5.7059 1.174,-2.7589 1.605,-12.302 0.609,-13.4666 -4.104,-4.8845 -12.658,-8.0901 -15.516,0.9541 -5.994,26.0176 -26.652,38.2567 -60.37,43.1546 -0.821,0.4393 -1.11,0.2761 -1.77,-0.9993 -3.359,-7.3457 5.531,-18.5263 10.531,-24.7579 3.28,-3.8137 2.469,-8.1698 -1.854,-9.9053 -5.517,-2.215 -10.601,2.1679 -15.029,6.4756 -4.317,4.1752 -6.064,6.2697 -7.286,8.733 -0.884,1.7821 -1.907,3.5867 -2.274,4.0105 -1.085,1.2517 -1.994,7.4926 -1.672,11.4899 0.264,3.292 3.446,14.6963 4.463,15.9919 6.326,18.9969 26.719,89.779 31.832,121.9055 1.404,6.1875 1.776,8.331 3.137,18.0701 1.564,11.1976 1.452,28.0054 -0.222,33.3893 -0.483,1.5539 -1.263,4.0687 -1.735,5.5885 -3.639,8.8479 -9.284,5.276 -14.258,2.6132 -24.52,-13.1611 -41.086,-24.1633 -65.856,-39.9138 -18.012,-13.2807 -38.056,-26.8858 -56.912,-40.4488 -7.907,-5.681 -18.629,-7.2472 -27.334,-8.9034 -28.408,-5.4045 -67.732,0.3975 -92.674,19.6274 -9.384,7.9249 -18.85,13.3982 -25.943,22.7 -14.369,15.8655 -28.021,33.2049 -43.877,47.6843 -12.157,8.5885 -31.047,34.0183 -45.772,33.8507 -4.784,-0.9292 -6.261,-8.24 -4.818,-23.8634 4.748,-45.0128 26.228,-89.2301 46.114,-128.8611 1.573,-2.9664 3.831,-7.2426 5.016,-9.5027 4.464,-8.5068 5.531,-9.8275 6.865,-8.493 2.59,1.6064 7.286,-2.2192 7.874,-0.6102 0.173,0.4861 0.587,1.2309 0.921,1.6547 4.667,6.3038 5.732,16.1265 12.591,22.3012 3.068,3.4872 7.588,5.6116 10.082,4.6712 11.306,-2.9006 22.326,-8.5878 33.043,-14.9099 2.106,-1.2666 4.135,-2.3025 4.508,-2.3025 3.461,5.3106 10.464,7.4527 14.307,10.7541 19.562,15.6206 59.468,18.312 93.526,-22.8339 4.689,-4.8541 10.964,-14.7576 10.964,-17.3094 0,-0.4838 0.454,-2.1013 1.007,-3.5953 2.183,-5.8954 2.477,-13.9456 0.709,-19.4102 -3.992,-10.9473 -12.046,-12.8942 -25.224,-6.1618 -12.688,5.3639 -23.988,10.9796 -38.322,14.0874 -9.644,0.012 -20.197,-5.3884 -21.439,-10.9692 -0.663,-2.9843 -0.19,-2.7185 2.18,-4.9903 3.758,-3.7045 9.509,-5.7619 14.312,-8.3575 20.63,-10.5293 53.154,-8.3209 63.742,-16.4004 1.36,-2.1883 1.516,-2.9327 1.799,-8.5599 0.299,-6.1673 -3.81,-17.8272 -4.314,-22.7843 6.469,-2.3844 10.666,-5.9776 14.365,-11.598 2.115,-5.1543 -3.489,-11.3036 -7.273,-9.2795 -3.62,2.0007 -7.291,4.0038 -13.413,6.7337 -5.27,-10.7825 -19.467,-25.2868 -31.051,-33.339 -9.788,-8.2055 -28.3,-14.4415 -48.448,-14.5117 z m 12.354,47.7965 c -2.178,-0.03 -3.888,1.2312 -3.804,4.6065 0.462,4.9931 3.988,11.5096 8.587,13.7014 14.675,3.9472 5.009,-17.7228 -4.783,-18.3079 z m -77.889,30.0604 c 2.093,2.2573 3.271,4.8076 4.758,7.5065 0.369,0.6695 0.529,1.4477 0.355,1.7291 -4.53,-1.0121 -28.582,3.4997 -40.347,18.49 -2.769,2.8252 -5.276,5.137 -5.574,5.137 -0.857,-0.1301 -3.747,-7.2898 -3.919,-8.7089 10.357,-9.984 33.05,-20.7042 41.98,-24.5653 1.201,-0.8977 1.963,-0.3177 2.747,0.4116 z m 4.726,23.0002 c 3.222,0 2.748,1.1913 -1.26,3.1671 -10.783,5.5393 -21.75,15.1468 -31.746,22.0972 -0.193,-0.3135 0.02,-0.9782 0.469,-1.4771 0.451,-0.4988 0.82,-1.0509 0.82,-1.2264 1.541,-9.0043 21.68,-19.9935 31.717,-22.5608 z m 19.327,30.4096 c 0.918,0 1.534,0.8767 3.337,4.7509 2.939,6.3121 3.601,7.5441 8.929,16.5819 3.741,6.3435 2.834,7.7725 -8.603,13.5464 -7.757,3.9353 -14.113,8.1815 -21.972,12.3183 -3.359,1.8141 -5.015,2.0045 -6.098,0.702 -4.739,-5.9363 -8.514,-11.0868 -12.767,-19.6893 0,-0.4728 2.686,-2.3755 6.374,-4.5155 8.642,-5.0618 21.228,-12.17 27.015,-19.803 0,-1.2308 2.588,-3.8917 3.785,-3.8917 z" fill="#030303" transform="translate(85.322335,-110.88293) matrix(0.2881372,0,0,0.2881372,-4328.9196,-1706.4073)"/>
</svg>
